<svg xmlns="http://www.w3.org/2000/svg" viewBox="0 0 1700 1009" style="enable-background:new 0 0 1700 1009" xml:space="preserve"><path d="M975.9 1353.5c-.4 0-.8-.2-1.1-.6-.4-.6-.2-1.3.4-1.7l42.7-25.6 27.6-16.5c9.1-5.4 18.3-10.9 27.5-16.3 9.1-5.4 18.3-10.8 27.4-16.2 9.1-5.4 18.3-10.7 27.4-16.1 7.7-4.5 15.4-9 23.2-13.6l11.3-6.6c6.8-4 13.5-7.9 20.3-11.8l54.8-31.8c9.1-5.3 18.3-10.6 27.4-15.9l17.4-10.1 37.4-21.6c9.1-5.3 18.2-10.5 27.4-15.8l109.6-63.3c6.3-3.6 12.5-7.3 18.8-10.9l118.2-68.2 17-9.8 37.8-21.8c6.3-3.6 12.5-7.2 18.7-10.8l31-17.9c.6-.3 1.3-.1 1.7.4.3.6.1 1.3-.4 1.7l-31 17.9c-6.2 3.6-12.5 7.2-18.7 10.8l-37.8 21.8c-5.7 3.3-11.3 6.6-17 9.8l-118.2 68.2c-6.3 3.6-12.5 7.2-18.8 10.9l-109.6 63.3c-9.1 5.3-18.2 10.6-27.4 15.8l-37.4 21.6-17.5 10.2c-9.1 5.3-18.3 10.6-27.4 15.9l-54.8 31.8c-6.8 3.9-13.5 7.9-20.3 11.8l-11.3 6.6c-7.7 4.5-15.5 9-23.2 13.5-9.1 5.3-18.3 10.7-27.4 16.1-9.1 5.4-18.3 10.8-27.4 16.2-9.1 5.4-18.3 10.8-27.5 16.3l-27.6 16.5-42.7 25.6c-.1.1-.3.1-.5.2zM3.8 165c6.1-3.5 12.1-7 18.2-10.5l87.8-50.7c9.1-5.3 18.3-10.5 27.4-15.8 9.1-5.2 18.3-10.4 27.4-15.6 7.5-4.2 17.4-9.8 27.4-15.2 10.6-5.7 19.3-10.2 27.4-14.1 8.9-4.4 18-8.3 27.3-11.7 8.8-3.3 17.9-5.8 27.1-7.6 8.9-1.6 17.9-2.3 27-2.1 9.2.4 18.3 1.2 27.4 2.6l1.5.2c8.6 1.1 17.4 2.3 26.3 2.3 9.5.1 18.9-1.5 27.8-4.8 9.1-3.4 18.3-9 27.4-16.7 8.2-6.9 17.2-16.1 27.4-28.1 8-9.5 16.2-19.9 24.1-30l3.5-4.5c8.7-11.1 18-22.8 27.5-33.7 9.2-10.5 18.3-20.2 27.2-28.6 8.6-8.1 17.5-15.7 27.2-23.3 8.1-6.4 17.1-12.8 27.3-19.7 8.2-5.5 16.9-11 27.4-17.5 10-6.1 19.9-12 27.4-16.5 9.1-5.4 18.3-10.7 27.4-16l7.1-4.1c6.8-3.9 13.5-7.9 20.3-11.8l7.9-4.5c6.5-3.8 13-7.5 19.5-11.3L850.9-324c9-5.2 18.1-10.4 27.1-15.7l1.2-.7c1.1-.6 2.1-1.2 3.2-1.9.6-.3.8-1.1.5-1.7-.3-.6-1.1-.8-1.7-.5-1.1.6-2.2 1.2-3.2 1.9l-1.2.7c-9 5.2-18.1 10.4-27.1 15.7l-138.4 79.9c-6.5 3.8-13 7.5-19.5 11.3l-7.9 4.5c-6.8 3.9-13.5 7.8-20.3 11.8l-7.1 4.1c-9.1 5.3-18.3 10.6-27.4 16-7.5 4.4-17.5 10.4-27.5 16.5-10.5 6.5-19.3 12-27.5 17.6-10.3 6.9-19.3 13.4-27.5 19.8-9.8 7.6-18.7 15.3-27.3 23.5-9 8.5-18.2 18.2-27.4 28.8-9.5 10.9-18.9 22.7-27.6 33.8l-3.5 4.5c-7.9 10.1-16 20.5-24 29.9-10.1 11.9-19 21-27.1 27.8-8.9 7.5-17.9 12.9-26.7 16.3-8.6 3.2-17.8 4.8-26.9 4.6h-.2c-8.6 0-17.3-1.2-25.8-2.3l-1.5-.2c-9.2-1.4-18.4-2.2-27.6-2.6-9.2-.2-18.4.5-27.5 2.1-9.4 1.8-18.6 4.3-27.5 7.7-8.3 3-17.4 6.9-27.5 11.8-8.2 3.9-16.9 8.4-27.5 14.1-10 5.4-19.9 11-27.5 15.2-9.1 5.2-18.2 10.4-27.4 15.6s-18.3 10.5-27.4 15.8l-87.8 50.7c-6.1 3.5-12.1 7-18.2 10.5-.6.3-.8 1.1-.4 1.7.2.4.6.6 1.1.6.1-.1.3-.1.4-.2zm.4-491.8 1.4-1.8c3.7-4.6 7.3-9.3 11-13.9.4-.5.3-1.3-.2-1.7-.5-.4-1.3-.3-1.7.2-3.7 4.6-7.4 9.2-11 13.9l-1.4 1.8c-.4.5-.3 1.3.2 1.7.2.2.5.3.8.3.3 0 .7-.2.9-.5zm-.1 69c3.9-4.1 8-8.7 12.3-13.7 8-9.4 16-19.7 23.9-29.7L44-306c8.7-11.1 18.1-22.9 27.6-33.8.8-.9 1.5-1.8 2.3-2.6.5-.5.4-1.3-.1-1.8s-1.3-.4-1.8.1l-2.4 2.7c-9.4 10.8-18.8 22.7-27.6 33.8l-3.8 4.8c-7.8 10-15.8 20.3-23.8 29.6-4.3 5-8.4 9.6-12.2 13.6-.5.5-.4 1.3 0 1.8.2.2.5.3.8.3.5.1.9 0 1.1-.3zm-.4 52.1c8.5-3.9 16.5-9 23.6-15.1 8.2-6.9 17.2-16.1 27.4-28.1 7.9-9.3 15.9-19.5 23.6-29.3l4-5.1c8.7-11.1 18-22.8 27.5-33.7 8-9.2 16-17.7 23.8-25.3.5-.5.5-1.2 0-1.7s-1.2-.5-1.7 0c-7.8 7.6-15.8 16.1-23.9 25.4-9.5 11-18.9 22.7-27.6 33.8l-4 5.1c-7.7 9.8-15.7 20-23.5 29.3-10.1 11.9-19 21-27.1 27.8-7 6-14.7 10.9-23 14.8-.6.3-.9 1-.6 1.6.2.5.6.7 1.1.7.1 0 .3 0 .4-.2zm34.6 24.2c9-3.4 18.3-9 27.4-16.7 8.2-6.8 17.2-16 27.4-28.1 7.9-9.2 15.8-19.4 23.5-29.2l4.1-5.3c8.8-11.1 18.1-22.9 27.5-33.7 9.1-10.5 18.2-20.1 27.2-28.6 6.8-6.5 14.2-13 22-19.2.5-.4.6-1.2.2-1.7-.4-.5-1.2-.6-1.7-.2-7.8 6.3-15.2 12.8-22.1 19.3-9.1 8.6-18.3 18.3-27.4 28.8-9.4 10.9-18.8 22.7-27.6 33.8l-4.1 5.3c-7.7 9.8-15.6 19.9-23.4 29.1-10.1 11.9-19 21-27.1 27.8-8.9 7.5-17.9 12.9-26.7 16.3-8.6 3.2-17.8 4.8-26.9 4.6-2.4 0-4.8-.1-7.2-.2-.7-.1-1.2.4-1.3 1.1v.1c0 .7.5 1.3 1.1 1.3 2.4.1 4.9.2 7.3.2 9.5.2 19-1.5 27.8-4.8zm38.4 22.7c9-3.4 18.3-9 27.4-16.7 8.2-6.8 17.2-16 27.4-28.1 7.7-9.1 15.5-19.1 23.1-28.7l4.5-5.8c10.1-12.9 18.7-23.6 27.5-33.7 9.1-10.5 18.3-20.1 27.2-28.6 8.6-8.1 17.5-15.7 27.2-23.3 7.9-6.1 16.2-12.2 25.6-18.5.6-.4.7-1.1.3-1.7-.4-.6-1.1-.7-1.7-.3-9.4 6.3-17.8 12.4-25.7 18.6-9.5 7.4-18.6 15.2-27.3 23.5-9 8.6-18.2 18.2-27.4 28.8-8.8 10.2-17.4 20.9-27.6 33.8l-4.5 5.8c-7.5 9.6-15.4 19.6-23 28.6-10.2 11.9-19 21-27.1 27.8-8.9 7.5-17.9 13-26.7 16.3-8.6 3.2-17.8 4.8-26.9 4.7-8.7 0-17.5-1.2-26-2.3l-1.4-.2c-6.4-.8-12.2-1.6-18.1-2.1-.7 0-1.3.5-1.3 1.1-.1.7.4 1.3 1.1 1.3 5.9.5 11.7 1.2 18 2.1l1.4.2c8.6 1.1 17.5 2.3 26.3 2.3 9.4 0 18.8-1.6 27.7-4.9zm10.6 27.4c9.5.1 18.9-1.5 27.8-4.8 9.1-3.4 18.3-9 27.4-16.7 8.2-6.8 17.2-16 27.4-28.1 8.1-9.5 16.3-20 24.2-30.1l3.4-4.4c8.8-11.1 18.1-22.9 27.5-33.7 9.1-10.5 18.2-20.1 27.2-28.6 8.5-8.1 17.3-15.7 27.2-23.3 8.1-6.4 17.1-12.8 27.3-19.7 8.3-5.5 17-11.1 27.4-17.5 2.1-1.3 4.3-2.6 6.4-3.9.6-.4.8-1.1.4-1.7-.4-.6-1.1-.8-1.7-.4-2.1 1.3-4.3 2.6-6.4 3.9-10.5 6.4-19.2 12-27.5 17.5-10.3 6.9-19.3 13.4-27.5 19.8-9.9 7.7-18.8 15.4-27.3 23.5-9 8.6-18.2 18.3-27.4 28.8-9.4 10.9-18.8 22.7-27.6 33.8l-3.4 4.4c-7.9 10.1-16.1 20.5-24.1 30-10.1 12-19 21.1-27.1 27.8-8.9 7.5-17.9 12.9-26.7 16.3-8.6 3.2-17.8 4.8-26.9 4.6-8.7 0-17.5-1.2-26.1-2.3l-1.3-.2c-9.2-1.4-18.4-2.2-27.7-2.6-9.2-.2-18.4.5-27.5 2.1l-1.7.4c-.7.1-1.1.8-1 1.4.1.7.8 1.1 1.4 1l1.7-.3c8.9-1.6 17.9-2.3 27-2.1 9.2.4 18.3 1.2 27.4 2.6l1.3.2c8.6 1.1 17.5 2.3 26.2 2.3h.3zM3.7-99.2c4.6-2 8.8-3.6 12.8-5 8.8-3.3 17.9-5.8 27.1-7.6 8.9-1.6 17.9-2.3 27-2.1 9.2.4 18.3 1.2 27.4 2.6l1.4.2c8.6 1.1 17.5 2.3 26.3 2.3 9.5.1 18.9-1.5 27.8-4.8 9.1-3.4 18.3-9 27.4-16.7 8.3-6.9 17.2-16.1 27.4-28.1 7.9-9.3 15.8-19.5 23.6-29.3l4.1-5.2c8.7-11.1 18-22.8 27.5-33.7 9.1-10.5 18.2-20.1 27.2-28.6 8.5-8.1 17.4-15.7 27.2-23.3 8.3-6.5 17.3-12.9 27.3-19.7 8-5.4 16.4-10.8 27.4-17.5 8.4-5.1 17.3-10.5 27.4-16.4 5.7-3.4 11.5-6.7 17.2-10.1.6-.3.8-1.1.4-1.7-.3-.6-1.1-.8-1.7-.4-5.7 3.3-11.5 6.7-17.2 10.1-10.1 6-19.1 11.3-27.4 16.5-11 6.8-19.5 12.2-27.5 17.5-10.1 6.8-19.1 13.2-27.5 19.7-9.5 7.4-18.6 15.2-27.3 23.5-9 8.6-18.3 18.3-27.4 28.8-9.5 10.9-18.9 22.7-27.6 33.8l-4.1 5.2c-7.7 9.8-15.7 20-23.5 29.2-10.1 11.9-19 21-27.1 27.8-8.9 7.5-17.9 12.9-26.7 16.3-8.6 3.2-17.8 4.8-26.9 4.7-8.7 0-17.5-1.2-26-2.3l-1.4-.2c-9.2-1.4-18.4-2.2-27.6-2.6-9.2-.2-18.4.5-27.5 2.1-9.4 1.8-18.6 4.4-27.5 7.7-4 1.4-8.2 3.1-12.9 5.1-.6.3-.9 1-.6 1.6.2.5.6.8 1.1.8.2 0 .3 0 .5-.1l-.1-.1zm.1 41.4c8.8-4.7 16.6-8.7 23.7-12.1 10.1-4.9 19-8.7 27.3-11.7 8.8-3.3 17.9-5.8 27.1-7.6 8.9-1.6 17.9-2.3 27-2.1 9.2.4 18.3 1.2 27.4 2.6l1.2.1c8.7 1.2 17.6 2.3 26.5 2.3 9.5.1 18.9-1.5 27.8-4.8 9.1-3.4 18.3-9 27.4-16.7 8.3-6.9 17-15.9 27.4-28.1 8.1-9.5 16.3-20 24.2-30.1l3.4-4.4c8.7-11.1 18.1-22.9 27.5-33.7 9.2-10.5 18.3-20.2 27.2-28.6 8.7-8.2 17.7-16 27.2-23.3 8.3-6.5 17.3-12.9 27.3-19.7 8.2-5.5 16.9-11 27.4-17.5 10-6.1 19.9-12 27.4-16.5 9.1-5.4 18.3-10.7 27.4-16l7.6-4.4c6.6-3.8 13.2-7.7 19.8-11.5l.4-.2c.3-.2.6-.4 1-.6.6-.3.8-1.1.5-1.7-.3-.6-1.1-.8-1.7-.5l-1 .6-.4.2c-6.6 3.8-13.2 7.6-19.8 11.5l-7.6 4.4c-9.1 5.3-18.3 10.6-27.4 16-7.5 4.4-17.5 10.3-27.5 16.5-10.6 6.5-19.3 12.1-27.5 17.6-10.1 6.8-19.1 13.2-27.5 19.7-9.8 7.6-18.8 15.3-27.3 23.5-9 8.5-18.2 18.2-27.4 28.8-9.5 10.9-18.9 22.7-27.6 33.8l-3.4 4.4c-7.9 10.1-16.1 20.6-24.1 30.1-10.2 12-19 21.1-27.1 27.8-8.9 7.5-17.9 12.9-26.7 16.3-8.6 3.2-17.8 4.8-26.9 4.7-8.7 0-17.6-1.2-26.2-2.3l-1.2-.1c-9.2-1.4-18.4-2.2-27.6-2.6-9.2-.2-18.4.5-27.5 2.1-9.4 1.8-18.6 4.3-27.5 7.7-8.3 3-17.3 6.9-27.5 11.8-7.2 3.5-15 7.4-23.8 12.1-.6.3-.8 1.1-.5 1.7.2.4.6.7 1.1.6.2 0 .4-.1.6-.1h-.1zm0 43.9c2.4-1.4 4.8-2.8 7.3-4.2 7.5-4.2 17.4-9.8 27.4-15.2C49.1-39 57.8-43.5 65.9-47.4c10.1-4.8 19-8.7 27.3-11.7 8.8-3.3 17.9-5.8 27.1-7.6 8.9-1.6 17.9-2.3 27-2.1 9.2.4 18.3 1.2 27.4 2.6l1.5.2c8.5 1.1 17.4 2.3 26.1 2.3h.2c9.5.1 18.9-1.5 27.8-4.8 9-3.4 18.3-9 27.4-16.7 8.2-6.8 17.2-16 27.4-28.1 7.8-9.2 15.7-19.2 23.3-29l4.3-5.5c8.8-11.1 18.1-22.9 27.5-33.7 9-10.4 18.2-20.1 27.2-28.6 8.6-8.2 17.5-15.8 27.1-23.3 8.4-6.5 17.3-12.9 27.3-19.7 8.1-5.5 16.8-11 27.4-17.5 10-6.1 19.9-12 27.4-16.4 9.1-5.4 18.3-10.7 27.4-16 9.1-5.3 18.2-10.6 27.4-15.9l27.4-15.8c4.4-2.5 8.8-5.1 13.2-7.6.6-.3.8-1.1.4-1.7-.3-.6-1.1-.8-1.7-.4-4.4 2.5-8.8 5-13.2 7.6L530.1-321c-9.1 5.3-18.3 10.6-27.4 15.9-9.1 5.3-18.3 10.6-27.4 16-7.5 4.4-17.5 10.3-27.5 16.5-10.6 6.5-19.3 12.1-27.5 17.5-10.1 6.7-19.1 13.2-27.5 19.7-9.7 7.6-18.6 15.2-27.3 23.5-9.1 8.6-18.3 18.3-27.4 28.8-9.4 10.9-18.8 22.7-27.6 33.8l-4.3 5.5c-7.6 9.7-15.5 19.8-23.2 28.9-10.1 12-19 21.1-27.1 27.8-8.9 7.5-17.9 12.9-26.7 16.3-8.6 3.2-17.8 4.8-26.9 4.6h-.2c-8.6 0-17.3-1.2-25.8-2.3l-1.5-.2c-9.2-1.4-18.4-2.2-27.6-2.6-9.2-.2-18.4.5-27.5 2.1-9.4 1.8-18.6 4.3-27.5 7.7-8.4 3.1-17.4 6.9-27.5 11.8-8.1 3.9-16.8 8.4-27.5 14.1-10 5.4-19.9 11-27.5 15.2-2.4 1.4-4.9 2.8-7.3 4.2-.4.4-.6 1.2-.3 1.8.2.4.6.6 1.1.6.2 0 .4-.1.6-.1zm0 44.6 18.3-10.5C31.2 15 40.4 9.8 49.5 4.6 59.7-1.2 68.7-6.1 76.9-10.6c10.3-5.5 19.2-10.1 27.4-14.1 10.2-4.9 19.2-8.7 27.3-11.7 8.8-3.3 17.9-5.8 27.1-7.6 8.9-1.6 17.9-2.3 27-2.1 9.2.4 18.3 1.2 27.4 2.6l.8.1c8.8 1.2 17.9 2.4 26.9 2.4 9.5.1 18.9-1.5 27.8-4.8 9-3.4 18.3-9 27.4-16.7 8.2-6.9 17.2-16.1 27.4-28.1 7.7-9.1 15.5-19.1 23.1-28.7l4.5-5.8c8.7-11.1 18.1-22.9 27.5-33.7 9.1-10.5 18.3-20.1 27.2-28.6 8.5-8.1 17.4-15.7 27.1-23.3 8.4-6.5 17.3-12.9 27.3-19.7 8.2-5.5 16.9-11.1 27.4-17.5 7.9-4.8 16.3-9.9 27.4-16.5 9.1-5.4 18.3-10.7 27.4-16 7.5-4.4 15.1-8.8 22.6-13.1l32.2-18.6c9.1-5.3 18.3-10.5 27.4-15.8l24.9-14.4c.6-.3.8-1.1.5-1.7-.3-.6-1.1-.8-1.7-.5l-24.9 14.4c-9.1 5.3-18.3 10.6-27.4 15.8L564-295.5c-7.5 4.4-15.1 8.7-22.6 13.1-9.1 5.3-18.3 10.6-27.4 16-11.1 6.6-19.6 11.6-27.5 16.5-10.5 6.5-19.3 12-27.5 17.6-10.1 6.7-19.1 13.2-27.5 19.7-9.8 7.6-18.8 15.3-27.3 23.5-9 8.5-18.2 18.2-27.4 28.8-9.5 10.9-18.9 22.7-27.6 33.8l-4.5 5.8c-7.5 9.6-15.3 19.6-23 28.6-10.1 11.9-19 21-27.1 27.8-8.9 7.5-17.9 13-26.7 16.3-8.6 3.2-17.8 4.8-26.9 4.7-8.8 0-17.9-1.2-26.6-2.4l-.8-.1c-9.2-1.4-18.4-2.2-27.6-2.6-9.2-.2-18.4.5-27.5 2.1-9.4 1.8-18.6 4.3-27.5 7.7-8.2 3-17.2 6.8-27.5 11.8-8.2 4-17.2 8.6-27.5 14.1-8.5 4.4-17.4 9.4-27.7 15.2C39.2 7.6 30 12.9 20.9 18.1L2.6 28.6c-.6.3-.8 1.1-.4 1.7.2.4.6.6 1.1.6.2 0 .4-.1.5-.2zm0 44.8 1.9-1.1c9.1-5.3 18.3-10.5 27.4-15.8l1.5-.9c8.6-5 17.2-9.9 25.9-14.9 9.1-5.2 18.3-10.4 27.4-15.6 10.5-5.9 19.2-10.7 27.4-15.2 10.5-5.6 19.2-10.1 27.3-14 10.1-4.8 19-8.7 27.3-11.7 8.8-3.3 17.9-5.8 27.1-7.6 8.9-1.6 17.9-2.3 27-2.1 9.2.4 18.3 1.2 27.4 2.6l1.4.2c8.6 1.1 17.5 2.3 26.2 2.3h.1c9.5.1 18.9-1.5 27.8-4.8 9-3.4 18.3-9 27.4-16.7 8.2-6.8 17.2-16 27.4-28.1 7.9-9.2 15.8-19.4 23.5-29.2l4.1-5.3c8.7-11.1 18-22.8 27.5-33.7 9-10.4 18.2-20 27.2-28.6 8.5-8.1 17.4-15.7 27.2-23.3 8.3-6.4 17.2-12.9 27.3-19.7 8.2-5.5 17-11.1 27.4-17.5 10.1-6.2 19.9-12 27.4-16.5 9.1-5.4 18.3-10.7 27.4-16L718.2-337c3-1.8 6-3.5 9.1-5.2.6-.3.8-1.1.4-1.7-.3-.6-1.1-.8-1.7-.4-3 1.7-6 3.5-9.1 5.2l-137.3 79.3c-9.1 5.3-18.3 10.6-27.4 16-7.5 4.4-17.4 10.3-27.5 16.5-10.5 6.5-19.2 12-27.5 17.6-10.2 6.8-19.2 13.3-27.5 19.8-9.9 7.7-18.8 15.4-27.3 23.5-9.1 8.6-18.3 18.3-27.4 28.8-9.5 11-18.9 22.7-27.6 33.8l-4.1 5.3c-7.7 9.8-15.6 19.9-23.4 29.1-10.1 12-19 21.1-27.1 27.8-8.9 7.5-17.9 12.9-26.7 16.3-8.6 3.2-17.8 4.8-26.9 4.6-8.6 0-17.5-1.2-26.1-2.3l-1.4-.2c-9.2-1.4-18.4-2.2-27.6-2.6-9.2-.2-18.4.5-27.5 2.1-9.4 1.8-18.6 4.3-27.5 7.7-8.4 3.1-17.4 6.9-27.5 11.8-8.2 3.9-16.9 8.4-27.5 14.1-8.2 4.4-17 9.3-27.4 15.2-9.1 5.2-18.3 10.4-27.4 15.6-8.6 4.9-17.3 9.9-25.9 14.9l-1.5.9C22.7 61.7 13.6 67 4.4 72.2l-1.9 1.1c-.5.4-.7 1.1-.4 1.7.2.4.6.6 1.1.6.2 0 .4 0 .6-.1zm0 44.8L44.1 97c9.1-5.3 18.3-10.6 27.4-15.8 9.1-5.3 18.3-10.5 27.4-15.8 9.1-5.2 18.3-10.4 27.4-15.6 10.7-6.1 19.4-10.9 27.4-15.2 10.6-5.7 19.3-10.2 27.4-14.1 10-4.8 18.9-8.6 27.3-11.7 8.8-3.3 17.9-5.8 27.1-7.6 8.9-1.6 17.9-2.3 27-2.1 9.2.4 18.3 1.2 27.4 2.6l1.4.2c8.6 1.2 17.5 2.3 26.4 2.3 9.5.1 18.9-1.5 27.8-4.8 9.1-3.5 18.3-9 27.4-16.7 8.1-6.7 17.1-15.9 27.3-28 7.9-9.3 15.9-19.6 23.7-29.5l3.9-5c8.7-11.1 18-22.8 27.5-33.7 9.1-10.5 18.2-20.1 27.2-28.6 8.6-8.1 17.4-15.7 27.2-23.3 8.3-6.5 17.3-12.9 27.3-19.7 8-5.4 16.4-10.8 27.4-17.5 8.5-5.2 17.5-10.6 27.4-16.4 9.1-5.4 18.3-10.7 27.4-16 9.1-5.3 18.3-10.6 27.4-15.9l54.8-31.7c9.1-5.3 18.3-10.6 27.5-15.8l75.8-43.8c.6-.3.8-1.1.4-1.7-.3-.6-1.1-.8-1.7-.5l-75.9 43.8c-9.1 5.3-18.3 10.6-27.5 15.9L645.4-253c-9.1 5.3-18.3 10.6-27.4 15.9s-18.3 10.6-27.4 16c-9.9 5.8-18.9 11.2-27.5 16.5-11 6.8-19.5 12.2-27.5 17.6-10.1 6.8-19.1 13.2-27.5 19.7-9.8 7.6-18.7 15.3-27.3 23.5-9 8.6-18.2 18.3-27.4 28.8-9.5 11-18.9 22.7-27.6 33.8l-3.9 5c-7.8 9.9-15.8 20.1-23.7 29.4-10.1 11.9-19 21-27.1 27.8-8.9 7.4-17.9 12.9-26.7 16.3-8.6 3.2-17.8 4.8-26.9 4.7-8.7 0-17.5-1.2-26-2.3l-1.4-.2C281-2 271.7-2.8 262.5-3.2c-9.2-.2-18.4.5-27.5 2.1-9.4 1.8-18.6 4.4-27.5 7.7-8.4 3.1-17.5 6.9-27.5 11.8-8.1 3.9-16.8 8.4-27.5 14.1-8 4.3-16.7 9.1-27.5 15.2-9.1 5.1-18.2 10.3-27.4 15.6-9.1 5.2-18.3 10.5-27.4 15.8-9.1 5.2-18.2 10.5-27.4 15.8L2.6 118.1c-.6.3-.8 1.1-.4 1.7.2.4.6.6 1.1.6.1 0 .3 0 .5-.1zm-.4 491.5.9.9c6.7-3.9 13.4-7.7 20-11.6l89.5-51.7c9.1-5.3 18.2-10.6 27.4-15.8 6.6-3.8 13.2-7.7 19.9-11.5l199.3-115c9.1-5.3 18.3-10.6 27.4-15.8l137-79c9.1-5.2 18.3-10.5 27.4-15.6 10.1-5.7 19-10.7 27.4-15.3 10.1-5.5 19.1-10.2 27.4-14.4 10.2-5 19.2-9.1 27.3-12.3 8.8-3.5 17.9-6.4 27.1-8.7 8.9-2.1 17.9-3.4 27-3.8 9.1-.4 18.3-.2 27.4.6 2.8.2 5.5.4 8.3.7 6.4.5 12.9 1.1 19.4 1.3 9.3.5 18.6-.2 27.7-2.1 9.7-2.2 18.9-6 27.4-11.2 8.8-5.4 17.8-12.6 27.5-22.1 8.1-7.9 16.6-17.5 27.7-30.9 4.8-5.8 9.7-11.8 14.5-17.9 4.3-5.4 8.7-10.8 13.1-16.1 10.4-12.6 19-22.6 27.2-31.5 8.9-9.6 18.1-18.6 27.1-26.7 8.7-7.8 17.6-15 27.3-22.2 8.2-6.1 17.2-12.3 27.4-18.9 8.1-5.3 16.8-10.7 27.4-17.1 8.2-5 17.2-10.3 27.4-16.3 9.1-5.4 18.3-10.7 27.4-16L1100-20c5.9-3.4 11.9-6.9 17.8-10.3l18.2-10.5c6.3-3.6 12.6-7.3 18.9-10.9l110.6-63.8c7.5-4.4 15.1-8.7 22.7-13.1 123.3-71.2 246.7-142.4 370-213.6.6-.3.8-1.1.5-1.7-.3-.6-1.1-.8-1.7-.5-123.4 71.2-246.7 142.4-370 213.6-7.6 4.3-15.1 8.7-22.7 13.1l-110.6 63.8c-6.3 3.6-12.6 7.3-18.9 10.9l-18.2 10.5c-5.9 3.4-11.9 6.9-17.8 10.3l-27.4 15.8c-9.1 5.3-18.3 10.6-27.4 16-10.2 6-19.2 11.3-27.4 16.3-10.6 6.4-19.3 11.8-27.5 17.1-10.2 6.6-19.3 12.9-27.5 19-9.7 7.2-18.7 14.5-27.5 22.3-9.1 8.2-18.3 17.2-27.3 26.9-8.3 8.9-17 18.9-27.3 31.6-4.4 5.3-8.8 10.8-13.1 16.1-4.9 6-9.7 12-14.5 17.9-11.1 13.4-19.6 22.9-27.6 30.7-9.4 9.3-18.5 16.6-27 21.8-8.2 5.1-17.2 8.7-26.6 10.9-8.9 1.8-18 2.5-27.1 2.1-6.4-.2-12.9-.8-19.3-1.3-2.8-.2-5.6-.5-8.3-.7-9.2-.8-18.5-1-27.7-.6-9.2.5-18.4 1.7-27.4 3.9-9.3 2.3-18.5 5.2-27.5 8.8-8.2 3.2-17.2 7.3-27.5 12.4-8.4 4.2-17.4 8.8-27.5 14.4-8.4 4.6-17.4 9.6-27.4 15.3-9.1 5.2-18.3 10.4-27.4 15.7l-137 79.1c-9.1 5.3-18.3 10.5-27.4 15.8L159.8 520c-6.6 3.8-13.2 7.7-19.9 11.5-9.1 5.3-18.3 10.5-27.4 15.8L23 598.9c-6.7 3.9-13.4 7.7-20 11.5-.1.1-.2.1-.3.2l.5 1.2.8 1-.6-1.1v.1zm265.8 741.5c96.1-52 192.6-105.9 282.5-156.4l12.5-7c14.6-8.2 29.7-16.3 44.9-24.1l4.9-2.5c11-5.6 19.9-10.1 28.1-14.2 9.6-4.8 19-9.4 27.8-13.7 10-4.8 19-9 27.6-13 9.2-4.2 18.4-8.4 27.5-12.3 9.7-4.2 18.6-8 27.4-11.6 9.5-3.9 18.7-7.5 27.4-10.9 9.6-3.7 18.5-7 27.4-10.2 8.9-3.2 18.1-6.5 27.4-9.7 8.9-3.1 18.1-6.2 27.4-9.2 9.1-3 18.2-5.9 27.4-8.9l4-1.3 23.4-7.5c10.1-3.3 19.1-6.2 27.4-9.1 10.1-3.5 19.1-6.7 27.4-9.9 9.4-3.6 18.7-7.4 27.5-11.3 9.5-4.2 18.7-8.7 27.5-13.3 9.2-4.8 18.5-10.1 27.5-15.6 8.9-5.5 18.1-11.6 27.5-18.2 9.1-6.5 18.3-13.4 27.4-20.7 8.6-6.8 17.6-14.3 27.4-22.8 8.5-7.4 17.5-15.4 27.4-24.4 9.3-8.5 18.7-17.2 27.4-25.3l6.9-6.5c6.8-6.4 13.6-12.7 20.5-19 10.9-10.1 19.4-17.8 27.4-24.9 9.2-8.2 18.4-16.3 27.4-23.9 9.3-7.9 18.5-15.4 27.4-22.4 8.9-7.1 18.2-14.1 27.4-20.8 9-6.6 18.2-13.1 27.4-19.3 9-6.1 18.2-12.2 27.4-18.1 8.2-5.2 16.9-10.7 27.4-17.1 8.3-5.1 17.3-10.5 27.3-16.5 9.2-5.5 18.2-10.8 27.2-16 9.3-5.4 18.4-10.8 27.5-16 9.2-5.4 18.4-10.7 27.6-16l2.9-1.7c8.1-4.7 16.3-9.4 24.5-14.1l27-15.6c9.1-5.2 18.2-10.5 27.2-15.7l55.2-31.9c9-5.2 18.1-10.4 27.3-15.7l15.4-8.9c.6-.3.8-1.1.4-1.7-.3-.6-1.1-.8-1.7-.4l-15.4 8.9c-9.2 5.3-18.3 10.6-27.3 15.7l-55.2 31.9c-9 5.2-18.1 10.5-27.2 15.7l-27 15.6c-8.2 4.7-16.4 9.4-24.5 14.1l-2.9 1.7c-9.2 5.3-18.4 10.7-27.6 16-9.1 5.3-18.2 10.6-27.5 16-8.9 5.2-18 10.6-27.2 16.1-10.1 6-19 11.4-27.3 16.5-10.6 6.5-19.3 11.9-27.4 17.1-9.2 5.9-18.4 12-27.5 18.1-9.2 6.3-18.5 12.8-27.5 19.4-9.2 6.8-18.5 13.8-27.4 20.9-8.9 7-18.1 14.6-27.4 22.5-9 7.6-18.2 15.6-27.4 23.9-8 7.2-16.5 14.9-27.4 25-6.8 6.3-13.6 12.6-20.5 19l-6.9 6.5c-8.7 8.1-18 16.8-27.4 25.3-9.9 9-18.8 17-27.4 24.4-9.8 8.5-18.8 16-27.4 22.8-9.1 7.3-18.3 14.2-27.3 20.6-9.3 6.6-18.5 12.7-27.3 18.1-8.9 5.5-18.1 10.8-27.3 15.6-8.7 4.5-17.9 9-27.3 13.2-8.7 3.9-17.9 7.7-27.3 11.3-8.3 3.2-17.3 6.4-27.3 9.9-8.4 2.9-17.3 5.8-27.4 9.1-7.8 2.5-15.6 5-23.3 7.5l-4 1.3c-9.1 2.9-18.2 5.9-27.4 8.9-9.3 3-18.5 6.1-27.4 9.2-9.3 3.2-18.5 6.5-27.4 9.7-8.8 3.2-17.8 6.6-27.4 10.3-8.7 3.4-17.9 7-27.4 10.9-8.8 3.6-17.7 7.4-27.4 11.6-9 3.9-18.3 8.1-27.5 12.3-8.6 3.9-17.6 8.2-27.7 13-8.9 4.3-18.2 8.9-27.9 13.7-8.2 4.1-17.2 8.7-28.1 14.3l-4.9 2.5c-15.2 7.9-30.4 16-45 24.2l-12.5 7c-89.9 50.5-186.4 104.4-282.5 156.3-.6.3-.8 1.1-.5 1.7.2.4.6.7 1.1.6-.3-.3-.1-.4.1-.6zm97 0c53.5-29.3 110.9-61.2 186.2-103.4 63.1-35.3 128.7-65.9 196.4-91.6 5-1.9 10-3.8 15-5.6 7.9-2.9 16.3-6 27.4-9.9 9.1-3.2 18.3-6.4 27.4-9.6l11.1-3.9c5.4-1.9 10.9-3.8 16.3-5.7 9.1-3.2 18.3-6.5 27.4-9.8 9.8-3.6 18.8-6.9 27.4-10.2 9.3-3.6 18.5-7.3 27.4-11 9.5-4 18.8-8 27.4-12 9.4-4.4 18.7-8.9 27.4-13.5 9.2-4.8 18.5-10 27.5-15.3 9.2-5.5 18.4-11.3 27.4-17.4 9-6.1 18.3-12.7 27.4-19.6 8.9-6.7 18.1-13.9 27.4-21.6 8.7-7.1 17.9-15 27.4-23.3 8-7 16.5-14.5 27.4-24.4 9.1-8.3 18.2-16.6 27.4-24.9 9.2-8.4 18.3-16.7 27.4-24.8 9.4-8.4 18.6-16.5 27.4-24.1 9.6-8.3 18.6-15.8 27.4-23 8.8-7.2 18-14.5 27.4-21.7 9.2-7.1 18.4-13.9 27.4-20.3 9.2-6.6 18.4-13.1 27.4-19.1 9-6.1 18.2-12.2 27.4-18 8.2-5.3 17.2-10.9 27.4-17.2 8.7-5.3 17.6-10.8 27.4-16.6 9.2-5.5 18.3-10.9 27.4-16.2 9.1-5.4 18.3-10.7 27.3-15.9 9.2-5.3 18.3-10.6 27.2-15.8 9.3-5.4 18.4-10.7 27.5-15.9l27.6-16c9.1-5.2 18.2-10.5 27.4-15.8l113.4-65.4c.6-.3.8-1.1.4-1.7-.3-.6-1.1-.8-1.7-.4L1584.7 638c-9.2 5.3-18.3 10.6-27.4 15.8l-27.6 16c-9.1 5.2-18.2 10.6-27.5 15.9-8.9 5.2-18 10.5-27.2 15.8-9 5.2-18.1 10.6-27.3 15.9-9.1 5.4-18.3 10.8-27.4 16.3-9.8 5.9-18.8 11.3-27.4 16.6-10.2 6.3-19.2 11.9-27.4 17.3-9.2 5.9-18.4 12-27.4 18.1-9 6.1-18.2 12.5-27.4 19.2-8.9 6.4-18.1 13.3-27.4 20.4-9.4 7.2-18.6 14.5-27.4 21.8-8.8 7.2-17.8 14.7-27.4 23-8.8 7.6-18 15.7-27.4 24.1-9.1 8.2-18.2 16.4-27.4 24.8-9.1 8.3-18.2 16.6-27.4 24.9-10.9 9.9-19.4 17.4-27.4 24.4-9.5 8.3-18.7 16.1-27.4 23.2-9.3 7.6-18.5 14.9-27.4 21.5-9.1 6.8-18.3 13.4-27.3 19.5s-18.2 11.9-27.3 17.3c-8.9 5.3-18.1 10.5-27.3 15.3-8.7 4.5-17.9 9.1-27.3 13.4-8.7 4-17.8 8-27.3 12-8.9 3.7-18.1 7.4-27.4 10.9-8.6 3.3-17.5 6.6-27.4 10.2-9.1 3.3-18.2 6.6-27.4 9.8-5.4 1.9-10.9 3.8-16.3 5.7L818 1131c-9.1 3.2-18.3 6.4-27.4 9.6-11.1 4-19.6 7-27.4 9.9-5 1.9-10 3.7-15 5.6-67.7 25.7-133.5 56.3-196.7 91.7-75.3 42.2-132.7 74.1-186.2 103.4-.6.3-.8 1.1-.5 1.7.2.4.6.7 1.1.6.2 0 .4-.1.6-.1l-.3-.1zm112.2 0c26.5-14.7 52.9-29.4 79.4-44.3 62.1-34.7 126.7-64.9 193.2-90.2 8-3.1 16.1-6.1 24.1-9.1 9.2-3.5 18.3-7 27.5-10.5 10-3.9 19-7.4 27.4-10.8 9.9-4 18.8-7.6 27.4-11.3 9.7-4.1 18.6-8.1 27.4-12.2 9.4-4.3 18.7-8.8 27.4-13.2 9.2-4.6 18.4-9.5 27.4-14.5 9.1-5 18.4-10.4 27.4-15.9 9.4-5.7 18.6-11.6 27.4-17.5 8.9-5.9 18.1-12.4 27.4-19.1 9-6.6 18.2-13.5 27.4-20.8 8.7-6.9 17.7-14.1 27.4-22.3 8.4-7 17.4-14.7 27.4-23.4 9.6-8.4 19.3-16.9 27.4-24.1l10.9-9.6 16.5-14.7c9.8-8.7 18.7-16.5 27.4-24 9.8-8.5 18.8-16.1 27.4-23.2 9.1-7.6 18.3-15 27.4-22.2 9.2-7.2 18.4-14.3 27.4-21 8.9-6.6 18.1-13.2 27.4-19.7 8.8-6.2 17.8-12.3 27.4-18.7 8.7-5.8 17.9-11.7 27.4-17.7 8.7-5.5 17.9-11.3 27.4-17.1 9.1-5.6 18.3-11.1 27.4-16.6 9.1-5.5 18.3-10.9 27.4-16.3 9.1-5.4 18.3-10.7 27.4-16.1 7.9-4.6 15.7-9.2 23.6-13.7l31.1-18c6.2-3.6 12.3-7.1 18.3-10.6l8.9-5.1c7.1-4.1 14.2-8.2 21.2-12.2L1679 631l20.3-11.7c.6-.3.8-1.1.4-1.7-.3-.6-1.1-.8-1.7-.4-6.8 3.9-13.5 7.8-20.3 11.7l-115.6 66.8c-7 4.1-14.1 8.1-21.2 12.2l-8.9 5.1c-6.1 3.5-12.2 7-18.3 10.6l-31.1 18c-7.8 4.5-15.7 9.1-23.6 13.7-9.1 5.3-18.3 10.7-27.4 16.1-9.1 5.4-18.3 10.8-27.4 16.3-9.1 5.5-18.3 11-27.4 16.6-9.5 5.8-18.7 11.6-27.4 17.1-9.5 6-18.7 12-27.4 17.8-9.6 6.4-18.6 12.5-27.4 18.7-9.3 6.5-18.5 13.2-27.4 19.8-9 6.7-18.2 13.8-27.4 21-9.1 7.2-18.3 14.6-27.4 22.2-8.6 7.1-17.6 14.8-27.4 23.3-8.7 7.5-17.6 15.3-27.4 24-5.5 4.9-11 9.8-16.6 14.7l-10.9 9.6c-8.1 7.2-17.7 15.7-27.4 24.1-10 8.7-19 16.4-27.4 23.4-9.7 8.1-18.7 15.4-27.4 22.2-9.2 7.2-18.4 14.2-27.4 20.7-9.3 6.7-18.5 13.2-27.4 19.1-8.8 5.9-18 11.7-27.3 17.4-9 5.5-18.2 10.8-27.3 15.8-9 5-18.2 9.8-27.4 14.4-8.8 4.4-17.9 8.8-27.3 13.2-8.8 4.1-17.7 8-27.4 12.1-8.6 3.7-17.5 7.3-27.4 11.3-8.4 3.4-17.4 6.9-27.4 10.8-9.2 3.5-18.3 7-27.5 10.5-8 3-16.1 6.1-24.1 9.1-66.6 25.4-131.3 55.5-193.5 90.3-26.5 14.8-52.9 29.6-79.4 44.3-.6.3-.8 1.1-.5 1.7.4.4 1.1.6 1.8.4zm126.1 0 14.1-7.9c41.8-23.4 85.3-45 129.4-64.3 3.5-1.5 6.9-3 10.3-4.5 10.4-4.6 19.5-8.7 27.9-12.5 9.1-4.1 18.4-8.5 27.6-13 10-4.8 19-9.3 27.5-13.7 9.1-4.7 18.3-9.6 27.5-14.6 9.3-5.2 18.5-10.5 27.4-15.8 8.9-5.3 18.2-11.1 27.4-17 9.1-5.8 18.3-12 27.4-18.3 9.3-6.4 18.5-13 27.4-19.5 8.8-6.4 17.7-13.1 27.4-20.6 8.9-6.8 18.1-14.1 27.4-21.6 9-7.3 18.2-14.8 27.4-22.4 8-6.6 16.7-14 27.4-23.1 6.6-5.6 13.2-11.2 19.7-16.9l7.6-6.5c9.1-7.8 18.3-15.6 27.4-23.3 7.5-6.4 17.5-14.7 27.4-22.8 9-7.4 18.2-14.8 27.4-22.1 9.6-7.6 18.5-14.5 27.4-21.1 9-6.8 18.2-13.5 27.4-20.1 9.1-6.5 18.3-12.9 27.4-19.1 8.7-5.9 17.9-12 27.4-18.2 9-5.8 18.2-11.7 27.4-17.4 8.7-5.5 17.7-10.9 27.4-16.9 9.1-5.6 18.3-11 27.4-16.5 9.1-5.4 18.3-10.8 27.4-16.2 9.1-5.4 18.3-10.7 27.4-16 8.3-4.8 16.7-9.7 25-14.5l2.4-1.4c8.5-4.9 17-9.9 25.5-14.8l1.9-1.1c7.9-4.6 15.9-9.2 23.8-13.7l3.7-2.1c9.1-5.3 18.3-10.6 27.3-15.7l82.4-47.6c6.8-3.9 13.6-7.8 20.4-11.8l34-19.6c2.9-1.7 5.9-3.4 8.8-5.1.6-.3.8-1.1.4-1.7-.3-.6-1.1-.8-1.7-.4-2.9 1.7-5.9 3.4-8.8 5.1l-34 19.6c-6.8 4-13.6 7.9-20.4 11.8l-82.4 47.6c-9 5.2-18.1 10.5-27.3 15.7l-3.7 2.1c-7.9 4.6-15.8 9.2-23.8 13.7l-1.9 1.1c-8.5 4.9-17 9.9-25.5 14.8l-2.4 1.4c-8.3 4.8-16.7 9.7-25 14.5-9.1 5.3-18.3 10.7-27.4 16-9.1 5.4-18.3 10.8-27.4 16.2-9.1 5.4-18.3 10.9-27.4 16.5-9.7 5.9-18.7 11.4-27.4 16.9-9.2 5.7-18.4 11.6-27.4 17.5-9.4 6.1-18.7 12.2-27.4 18.2-9 6.2-18.3 12.6-27.4 19.1-9.2 6.6-18.4 13.3-27.4 20.1-8.8 6.6-17.8 13.6-27.4 21.2-9.2 7.3-18.4 14.7-27.4 22.1-9.9 8.2-19.9 16.5-27.4 22.8-9.1 7.7-18.2 15.5-27.4 23.3l-7.6 6.5c-6.6 5.6-13.2 11.3-19.7 16.9-10.7 9.1-19.4 16.4-27.4 23.1-9.1 7.6-18.4 15.2-27.4 22.4-9.3 7.5-18.5 14.7-27.4 21.6-9.7 7.4-18.6 14.2-27.4 20.5-8.9 6.5-18.1 13.1-27.4 19.5-9.1 6.3-18.3 12.4-27.4 18.2-9.2 5.9-18.4 11.7-27.4 17-8.9 5.3-18.1 10.6-27.4 15.7-9.1 5-18.3 9.9-27.4 14.6-8.5 4.4-17.5 8.8-27.5 13.7-9.3 4.4-18.5 8.8-27.6 12.9-8.3 3.8-17.5 7.9-27.8 12.5-3.5 1.5-6.9 3-10.3 4.5-44.2 19.3-87.8 41-129.6 64.4l-14.1 7.9c-.6.3-.8 1.1-.5 1.7.2.4.6.6 1.1.6.3.1.5.1.7-.1zm-423.5 0c115.9-61.8 234.1-127.7 344.7-189.7 7.6-4.2 15.1-8.5 22.7-12.7l88.2-49.3c58.5-32.7 119.2-61.2 181.6-85.5 1.7-.7 3.4-1.3 5-2 9.1-3.5 18.4-6.9 27.4-10 8.8-3.1 18.1-6.2 27.4-9.1 8.5-2.7 17.5-5.4 27.4-8.3 9.1-2.6 18.2-5.2 27.4-7.8l1.1-.3c8.8-2.4 17.5-4.9 26.3-7.4 10.5-3 19.2-5.7 27.4-8.4 10-3.2 19-6.4 27.4-9.6 9.4-3.6 18.6-7.5 27.5-11.6 9.3-4.3 18.5-9.1 27.5-14.1 9.1-5.1 18.4-10.9 27.5-17 8.8-5.9 18.1-12.6 27.5-19.9 8.8-6.8 18-14.4 27.4-22.5 8.4-7.3 17.4-15.3 27.4-24.6 8-7.4 16.7-15.7 27.4-26l12.6-12.2c4.9-4.7 9.8-9.5 14.8-14.2 10.7-10.3 19.5-18.5 27.4-25.9 9.9-9.2 18.9-17.2 27.4-24.5a823.333 823.333 0 0 1 54.8-43.5c8.8-6.4 18.1-12.8 27.4-19 8.3-5.6 17.2-11.3 27.2-17.7 8.2-5.1 16.8-10.5 27.2-16.8 9.4-5.7 18.7-11.2 27.5-16.4 9.2-5.5 18.4-10.8 27.6-16.2 9.1-5.3 18.2-10.6 27.4-15.9 8-4.6 16.1-9.3 24.1-14l2.8-1.7c8.5-4.9 17-9.9 25.6-14.8l29.3-16.9c9.1-5.3 18.3-10.6 27.6-15.9l54.5-31.5c8.9-5.2 17.9-10.3 26.9-15.5.6-.3.8-1.1.4-1.7-.3-.6-1.1-.8-1.7-.4-9 5.2-18 10.4-26.9 15.5l-54.5 31.5c-9.3 5.4-18.5 10.7-27.6 15.9l-29.3 16.9c-8.5 4.9-17 9.8-25.6 14.8l-2.8 1.7c-8.1 4.7-16.1 9.3-24.1 14-9.2 5.3-18.3 10.6-27.4 15.9-9.2 5.4-18.4 10.8-27.7 16.2-8.8 5.2-18.1 10.8-27.5 16.4-10.4 6.3-19.1 11.6-27.2 16.8-10.1 6.4-19 12.2-27.3 17.7-9.3 6.3-18.6 12.7-27.5 19.1-9.5 6.9-18.8 13.9-27.5 20.8-9.2 7.3-18.4 14.9-27.5 22.8-8.5 7.3-17.5 15.4-27.4 24.6-8 7.4-16.7 15.6-27.4 25.9-4.9 4.7-9.8 9.5-14.8 14.2-4.2 4.1-8.4 8.1-12.6 12.2-10.7 10.3-19.4 18.5-27.4 26-10 9.3-18.9 17.3-27.4 24.6-9.4 8.2-18.6 15.7-27.3 22.4-9.3 7.2-18.5 13.9-27.3 19.8-9 6.1-18.2 11.7-27.3 16.9-8.9 5-18.1 9.8-27.3 14-8.8 4.1-18 8-27.3 11.5-8.5 3.2-17.4 6.4-27.3 9.6-8.2 2.6-16.9 5.3-27.4 8.3-8.8 2.5-17.5 5-26.3 7.4l-1.1.3c-9.1 2.5-18.3 5.1-27.4 7.8-9.9 2.9-18.9 5.6-27.4 8.3-9.3 2.9-18.5 6-27.4 9.1-9 3.1-18.3 6.5-27.4 10-1.7.6-3.4 1.3-5.1 2-62.5 24.3-123.3 53-181.9 85.7l-88.2 49.3c-7.5 4.2-15.1 8.5-22.7 12.7-110.5 62-228.7 128-344.6 189.7-.6.3-.8 1.1-.5 1.7.2.4.6.7 1.1.6 0 0 .2 0 .5-.1zm1488.2 0 3.1-1.8 27-15.6c.6-.3.8-1.1.4-1.7-.3-.6-1.1-.8-1.7-.4l-27 15.6-3.1 1.8c-.6.3-.8 1.1-.4 1.7.2.4.6.6 1.1.6.2 0 .4-.1.6-.2zm-77.5 0 25.9-14.9c9.1-5.3 18.3-10.5 27.4-15.8l27.4-15.8 27-15.6c.6-.3.8-1.1.4-1.7-.3-.6-1.1-.8-1.7-.4l-27 15.6-27.4 15.8c-9.1 5.3-18.2 10.6-27.4 15.8l-25.9 14.9c-.6.3-.8 1.1-.4 1.7.2.4.6.6 1.1.6.2 0 .4-.1.6-.2zm-77.6 0 21.3-12.3c9.1-5.3 18.2-10.6 27.4-15.8l29.4-17c8.5-4.9 16.9-9.8 25.4-14.7l81.8-47.2c.6-.3.8-1.1.4-1.7-.3-.6-1.1-.8-1.7-.4l-81.8 47.2c-8.5 4.9-16.9 9.8-25.4 14.7l-29.4 17c-9.1 5.3-18.3 10.5-27.4 15.8l-21.3 12.3c-.6.3-.8 1.1-.4 1.7.2.4.6.6 1.1.6.2 0 .4-.1.6-.2zM3.8 254.6c6.3-3.6 12.6-7.3 18.8-10.9l109.6-63.3c6.7-3.9 13.4-7.7 20-11.6l7.3-4.2c9.1-5.3 18.3-10.6 27.4-15.8 9.1-5.3 18.3-10.5 27.4-15.8 9.1-5.2 18.3-10.4 27.4-15.6 10.7-6 19.4-10.8 27.4-15.1 10.2-5.5 19.2-10 27.4-13.9 8.9-4.3 18-8.1 27.3-11.4 8.8-3.2 17.9-5.6 27.1-7.3 8.9-1.6 17.9-2.4 27-2.3 9.3 0 18.5.7 27.4 1.5 8.6.7 18.3 1.5 27.8 1.1 9.5-.3 18.8-2.1 27.8-5.3 9.9-3.8 19.1-9.1 27.4-15.6 8.5-6.6 17.4-15.1 27.4-26.1 9-9.9 17.9-20.7 27.7-32.8l1.5-1.9c8.5-10.4 17.3-21.2 26-31.3 9.6-11 18.5-20.6 27.2-29.2 8.7-8.5 17.8-16.6 27.1-24.2 8.5-6.8 17.4-13.5 27.3-20.3 8-5.5 16.7-11.2 27.4-17.8 8.1-5 16.8-10.3 27.4-16.6 9.1-5.4 18.2-10.8 27.4-16.1 9.1-5.3 18.3-10.6 27.4-15.9l65.3-37.7c5.7-3.3 11.3-6.6 17-9.8l34.2-19.7 21.3-12.3c7-4 13.9-8 20.9-12l34.3-19.8c7.6-4.4 15.2-8.8 22.7-13.1l42.6-24.6 15.7-9.1c.6-.3.8-1.1.4-1.7-.3-.6-1.1-.8-1.7-.4l-15.7 9.1-42.6 24.6c-7.6 4.4-15.1 8.8-22.7 13.1l-34.3 19.8c-6.9 4-13.9 8-20.9 12l-21.3 12.3-34.2 19.7c-5.7 3.3-11.3 6.6-17 9.8L761-185.3c-9.1 5.3-18.3 10.6-27.4 15.9-9.1 5.3-18.3 10.7-27.4 16.1-10.6 6.3-19.4 11.6-27.5 16.6-10.7 6.7-19.5 12.4-27.5 17.9-10 6.9-19 13.6-27.5 20.4-9.4 7.6-18.6 15.8-27.3 24.3-8.8 8.7-17.8 18.2-27.4 29.3-8.8 10.2-17.6 21-26.1 31.4l-1.5 1.9c-9.8 12.1-18.6 22.8-27.6 32.7-9.9 10.9-18.7 19.3-27.1 25.8-8.1 6.4-17.1 11.6-26.7 15.3-8.7 3.1-17.8 4.9-27 5.2-9.3.4-19-.4-27.5-1.1-8.9-.7-18.2-1.5-27.6-1.5-9.2 0-18.4.8-27.4 2.4-9.3 1.7-18.5 4.2-27.5 7.4-9.4 3.4-18.5 7.2-27.5 11.5-8.3 3.9-17.3 8.5-27.5 13.9-8.1 4.3-16.8 9.1-27.4 15.2-9.1 5.1-18.3 10.3-27.4 15.6-9.1 5.2-18.2 10.5-27.4 15.8-9.1 5.2-18.3 10.5-27.4 15.8l-7.3 4.2c-6.7 3.9-13.4 7.7-20 11.6L21.4 241.7c-6.3 3.6-12.6 7.2-18.8 10.9-.6.3-.8 1.1-.4 1.7.2.4.6.6 1.1.6.1-.1.3-.1.5-.3zm1045.8 1098.7 8.4-4.9c9.2-5.4 18.3-10.7 27.5-16l6.8-4c6.9-4 13.8-8 20.6-12l54.8-31.8c9.1-5.3 18.3-10.6 27.4-15.9 6.5-3.8 13-7.5 19.5-11.3l42.8-24.8c6.6-3.8 13.2-7.7 19.9-11.5l27.4-15.8c9.1-5.3 18.3-10.6 27.4-15.8 9.1-5.3 18.2-10.6 27.4-15.8l27.4-15.8c9.1-5.3 18.3-10.6 27.4-15.8l164.3-94.9c9.1-5.3 18.3-10.6 27.4-15.8l82.2-47.5c3.7-2.1 7.3-4.2 11-6.4.6-.3.8-1.1.4-1.7-.3-.6-1.1-.8-1.7-.4-3.7 2.1-7.3 4.2-11 6.3l-82.2 47.5c-9.1 5.3-18.3 10.5-27.4 15.8l-164.3 94.9c-9.1 5.3-18.3 10.5-27.4 15.8l-27.4 15.8c-9.1 5.3-18.2 10.5-27.4 15.8-9.1 5.3-18.3 10.5-27.4 15.8l-27.4 15.8c-6.6 3.8-13.2 7.6-19.9 11.5l-42.8 24.8c-6.5 3.8-13 7.5-19.5 11.3-9.1 5.3-18.3 10.6-27.4 15.9l-54.8 31.8c-6.9 4-13.8 8-20.6 12l-6.8 4c-9.2 5.3-18.4 10.7-27.5 16l-8.4 4.9c-.6.3-.8 1.1-.4 1.7.2.4.6.6 1.1.6.3 0 .5 0 .6-.1zm-327.4 0c2.9-1.9 5.8-3.7 8.8-5.6 3.8-2.3 7.5-4.5 11.3-6.8 8.6-5 17.3-10 25.7-14.8l2.9-1.7c8.8-5 17.6-10.1 26.4-15.2 10-5.8 19.1-11.2 27.9-16.6 9.7-6 18.8-11.6 27.7-17.4 9.5-6.1 18.7-12.3 27.5-18.3 9.1-6.2 18.3-12.7 27.4-19.2s18.3-13.3 27.4-20.1c8.5-6.4 17.4-13.2 27.4-21 8.9-7 18.2-14.3 27.4-21.6 9.1-7.3 18.3-14.6 27.4-22 8.2-6.6 16.3-13.2 24.5-19.9l10.9-8.9c6.5-5.2 12.9-10.5 19.4-15.7 9.1-7.4 18.3-14.8 27.4-22.1 9.1-7.3 18.2-14.6 27.4-21.8 9.8-7.7 18.7-14.7 27.4-21.4 9.1-7 18.3-14 27.4-20.7 9.7-7.2 18.6-13.7 27.4-19.9 9.4-6.7 18.6-13.1 27.4-19.1 8.6-5.9 17.5-11.8 27.4-18.3 9.2-6 18.4-11.9 27.4-17.6s18.2-11.4 27.4-17.1c9.1-5.6 18.3-11.2 27.4-16.6 9.1-5.5 18.3-10.9 27.4-16.3 9.1-5.4 18.3-10.8 27.4-16.1 9.1-5.4 18.3-10.7 27.4-16 7.1-4.2 14.2-8.3 21.3-12.4l60.9-35.2c9.1-5.3 18.3-10.6 27.4-15.8l161.4-93.2c.6-.3.8-1.1.4-1.7-.3-.6-1.1-.8-1.7-.4L1536.6 800c-9.1 5.3-18.3 10.6-27.4 15.8l-60.9 35.2c-7.1 4.1-14.2 8.3-21.3 12.4-9.1 5.3-18.3 10.6-27.4 16-9.1 5.3-18.2 10.7-27.4 16.1-9.1 5.4-18.3 10.8-27.4 16.3-9.1 5.5-18.2 11-27.4 16.6-9.2 5.7-18.4 11.4-27.4 17.1-9 5.7-18.2 11.6-27.4 17.6-9.9 6.5-18.8 12.5-27.4 18.3-8.8 6-18 12.5-27.4 19.1-8.8 6.3-17.7 12.8-27.4 19.9-9 6.7-18.2 13.7-27.4 20.7-8.7 6.6-17.6 13.6-27.4 21.4-9.1 7.2-18.2 14.5-27.4 21.8s-18.3 14.7-27.4 22.1c-6.5 5.2-12.9 10.5-19.4 15.7l-10.9 8.9c-8.2 6.6-16.3 13.3-24.5 19.9-9.1 7.4-18.3 14.7-27.4 22-9.2 7.4-18.4 14.6-27.4 21.6-10 7.8-18.9 14.6-27.4 21-9.1 6.8-18.3 13.6-27.4 20.1-9.1 6.5-18.3 13-27.4 19.2-8.8 6-18 12.1-27.4 18.2-8.8 5.7-17.9 11.4-27.6 17.3-8.8 5.4-17.9 10.8-27.8 16.6-8.8 5.1-17.6 10.2-26.4 15.2l-2.9 1.7c-8.5 4.8-17.2 9.8-25.8 14.8-3.8 2.2-7.6 4.5-11.4 6.8-3 1.8-5.9 3.7-8.8 5.6-.6.4-.7 1.2-.3 1.7.2.3.6.5 1 .5.1.3.3.2.6.1zm70.3-.1c4.4-3.2 8.9-6.4 13.1-9.4l5.9-4.2c8.3-5.9 16.5-11.7 24.7-17.6 10.1-7.2 19.2-13.9 27.9-20.3 9-6.6 18.3-13.6 27.6-20.7 8.8-6.6 17.8-13.5 27.5-21.1 9.1-7.1 18.3-14.2 27.4-21.5 7.5-5.9 14.9-11.8 22.3-17.7l5.1-4c9.1-7.3 18.2-14.5 27.4-21.8 9.1-7.2 18.3-14.4 27.4-21.6 9.1-7.1 18.2-14.2 27.4-21.3 9.3-7.1 18.5-14.1 27.4-20.8 8.9-6.7 18.2-13.6 27.4-20.3 9.2-6.7 18.4-13.4 27.4-19.7 9.2-6.5 18.4-13 27.4-19.2 8.8-6.1 17.9-12.3 27.4-18.6 9.9-6.6 18.9-12.5 27.4-18.1 9-5.8 18.2-11.7 27.4-17.5 8.4-5.3 17.4-10.9 27.4-17.1 9.1-5.6 18.2-11.2 27.4-16.7 9.1-5.5 18.3-10.9 27.4-16.4 9.1-5.4 18.3-10.8 27.4-16.2 9.1-5.4 18.3-10.7 27.4-16 9.1-5.3 18.3-10.6 27.4-15.9 9.1-5.3 18.3-10.6 27.4-15.9l62.1-35.9c6.7-3.9 13.4-7.7 20-11.6l29.3-16.9c8.5-4.9 17.1-9.9 25.6-14.8l27.4-15.8c9.1-5.3 18.3-10.6 27.3-15.8l68-39.2c.6-.3.8-1.1.4-1.7-.3-.6-1.1-.8-1.7-.4l-68 39.2c-9 5.2-18.1 10.5-27.3 15.8l-27.4 15.8c-8.5 4.9-17.1 9.8-25.6 14.8l-29.3 16.9c-6.7 3.9-13.4 7.7-20 11.6l-62.1 35.9c-9.1 5.3-18.3 10.6-27.4 15.9-9.1 5.3-18.2 10.6-27.4 15.9-9.1 5.3-18.3 10.7-27.4 16-9.1 5.4-18.2 10.8-27.4 16.2a3961.418 3961.418 0 0 0-54.8 33.1c-10 6.2-19 11.8-27.4 17.1-9.2 5.8-18.4 11.7-27.4 17.5-8.5 5.5-17.5 11.5-27.4 18.1-9.4 6.3-18.6 12.6-27.4 18.7-9 6.2-18.2 12.7-27.4 19.2-8.9 6.4-18.1 13-27.4 19.8-9.2 6.7-18.4 13.6-27.4 20.3-8.9 6.7-18.1 13.7-27.4 20.8-9.1 7-18.2 14.1-27.4 21.3-9.1 7.2-18.3 14.4-27.4 21.6-9.1 7.2-18.2 14.5-27.4 21.8l-5.1 4c-7.4 5.9-14.9 11.8-22.3 17.7-9.1 7.2-18.3 14.3-27.4 21.5-9.7 7.5-18.7 14.4-27.5 21.1-9.3 7-18.6 14-27.6 20.7-8.7 6.4-17.8 13-27.8 20.3-8.3 5.9-16.5 11.8-24.7 17.6l-5.9 4.2c-4.2 3-8.7 6.2-13.1 9.4-.6.4-.7 1.2-.3 1.7.2.3.6.5 1 .5.3 0 .5-.1.7-.2l-.2-.1zm40.6 0c4.3-3.3 8.6-6.6 12.9-9.8l12.1-9.2c5.7-4.3 11.3-8.6 17-12.9 9.3-7 18.6-14.1 27.9-21.2 5.7-4.3 11.4-8.7 17.1-13l11.3-8.6c8.9-6.8 17.8-13.6 26.7-20.3 9.1-6.9 18.3-13.8 27.4-20.7 9.1-6.8 18.2-13.6 27.4-20.4 9.1-6.7 18.2-13.4 27.4-20 9.9-7.2 18.9-13.5 27.4-19.5 9.8-6.9 18.8-13.1 27.4-19 8.4-5.8 17.4-11.8 27.4-18.5 8.6-5.8 17.6-11.6 27.4-18 9.6-6.2 18.6-12 27.4-17.5 9.1-5.8 18.2-11.5 27.4-17.2 9.1-5.7 18.3-11.3 27.4-16.9 9.1-5.6 18.2-11.1 27.4-16.6 9.1-5.5 18.2-10.9 27.4-16.4 9.1-5.4 18.3-10.8 27.4-16.2 9.1-5.4 18.2-10.7 27.4-16 8.2-4.8 16.3-9.5 24.4-14.3l2.9-1.7c9.1-5.3 18.3-10.6 27.4-15.9l303.1-175.1c.6-.3.8-1.1.4-1.7-.3-.6-1.1-.8-1.7-.4L1395 971.4c-9.1 5.3-18.3 10.6-27.4 15.9l-2.9 1.7c-8.1 4.7-16.3 9.5-24.4 14.3-9.1 5.3-18.2 10.7-27.4 16-9.1 5.4-18.3 10.8-27.4 16.2s-18.3 10.9-27.4 16.4c-9.1 5.5-18.2 11-27.4 16.6-9.1 5.6-18.3 11.2-27.4 16.9-9.1 5.7-18.3 11.4-27.4 17.2-8.8 5.6-17.8 11.3-27.4 17.6-9.8 6.4-18.8 12.2-27.4 18-10 6.7-19 12.7-27.4 18.5-8.6 5.9-17.6 12.1-27.4 19-8.5 6-17.5 12.4-27.4 19.6-9.1 6.6-18.3 13.3-27.4 20-9.1 6.7-18.3 13.5-27.4 20.4-9.1 6.8-18.3 13.7-27.4 20.7-8.9 6.8-17.8 13.6-26.7 20.3l-11.3 8.6c-5.7 4.3-11.4 8.7-17.1 13-9.3 7.1-18.6 14.1-27.9 21.2-5.7 4.3-11.3 8.6-17 12.9l-12.1 9.2c-4.3 3.3-8.6 6.5-12.9 9.8-.5.4-.6 1.2-.2 1.7.2.3.6.5 1 .5.2-.1.4-.2.6-.4zm81.1.1 10.2-6.5c5.7-3.6 11.4-7.3 17-10.9l11.1-7.2c9.3-6 18.6-11.9 27.9-17.9 9.2-5.9 18.4-11.7 27.6-17.5 9.1-5.8 18.3-11.5 27.5-17.2 9.1-5.7 18.3-11.3 27.4-17 9.1-5.6 18.3-11.2 27.4-16.7 9.1-5.6 18.3-11 27.4-16.6 9.1-5.5 18.2-10.9 27.4-16.4 9.1-5.4 18.3-10.8 27.4-16.2 7.7-4.6 15.4-9.1 23.2-13.6l4.2-2.5c9.1-5.4 18.2-10.7 27.4-16l4.8-2.8c7.5-4.4 15.1-8.8 22.6-13.2 9.1-5.3 18.2-10.6 27.4-15.9l27.4-15.9c9.1-5.3 18.3-10.6 27.4-15.9l301.3-174c9.1-5.3 18.3-10.6 27.4-15.8l33.7-19.5c.6-.3.8-1.1.4-1.7-.3-.6-1.1-.8-1.7-.4l-33.7 19.5c-9.1 5.3-18.3 10.6-27.4 15.8l-301.3 174c-9.1 5.3-18.3 10.6-27.4 15.9l-27.4 15.9c-9.1 5.3-18.2 10.6-27.4 15.9-7.5 4.4-15.1 8.8-22.6 13.2l-4.8 2.8c-9.1 5.3-18.3 10.7-27.4 16l-4.2 2.5c-7.7 4.5-15.4 9.1-23.2 13.6-9.1 5.4-18.3 10.8-27.4 16.2-9.1 5.4-18.2 10.9-27.4 16.4-9.1 5.5-18.3 11-27.4 16.6a4019.423 4019.423 0 0 0-54.8 33.7c-9.1 5.7-18.3 11.5-27.5 17.2-9.2 5.8-18.4 11.7-27.6 17.6-9.3 5.9-18.6 11.9-27.9 17.9l-11.1 7.2c-5.7 3.7-11.3 7.3-17 10.9l-10.2 6.5c-.6.4-.7 1.1-.4 1.7.2.4.6.6 1 .6.2-.1.5-.2.7-.3zm212 0 87.5-50.5c6.8-3.9 13.6-7.8 20.4-11.8l7.5-4.3c6.6-3.8 13.2-7.7 19.9-11.5l27.4-15.8c6.8-3.9 13.6-7.9 20.4-11.8l89.2-51.5c9.1-5.3 18.2-10.6 27.4-15.8 7-4.1 14.1-8.1 21.1-12.2l88.4-51c9.1-5.3 18.2-10.6 27.4-15.8 9.1-5.3 18.2-10.6 27.4-15.8l82.2-47.5 27-15.6c.6-.3.8-1.1.4-1.7-.3-.6-1.1-.8-1.7-.4l-27 15.6-82.2 47.5c-9.1 5.3-18.3 10.5-27.4 15.8-9.1 5.3-18.3 10.5-27.4 15.8l-88.4 51c-7 4.1-14.1 8.1-21.2 12.2-9.1 5.3-18.3 10.5-27.4 15.8l-89.2 51.5c-6.8 3.9-13.6 7.8-20.4 11.8l-27.4 15.8c-6.6 3.8-13.2 7.7-19.9 11.5l-7.5 4.3c-6.8 3.9-13.6 7.9-20.4 11.8l-87.5 50.5c-.6.3-.8 1.1-.4 1.7.2.4.6.6 1.1.6.3 0 .5-.1.7-.2zm-258.1 0c5.9-4.1 11.7-8.3 17.5-12.4l17.7-12.6 10.4-7.4c9.3-6.6 18.6-13.2 27.9-19.7 9.2-6.5 18.4-13 27.6-19.4 9.1-6.4 18.3-12.7 27.5-19 9.1-6.3 18.3-12.4 27.4-18.6 8.3-5.6 17.2-11.5 27.4-18.2 9.1-6 18.2-12 27.4-17.8 9.1-5.9 18.3-11.8 27.4-17.5 9.1-5.8 18.3-11.5 27.4-17.2 9.1-5.7 18.3-11.3 27.4-16.8 9.1-5.6 18.3-11.1 27.4-16.6 9.1-5.5 18.2-11 27.4-16.4 9.1-5.4 18.3-10.9 27.4-16.2 7.5-4.4 15-8.9 22.6-13.3l4.8-2.8c9.1-5.4 18.3-10.7 27.4-16 9.1-5.3 18.3-10.6 27.4-15.9l20-11.6L1630 883.3c8.1-4.7 16.1-9.3 24.2-14l45.1-26c.6-.3.8-1.1.4-1.7-.3-.6-1.1-.8-1.7-.4l-45.1 26c-8.1 4.6-16.1 9.3-24.2 14l-284.6 164.4c-6.7 3.9-13.4 7.8-20 11.6-9.1 5.3-18.3 10.6-27.4 15.9-9.1 5.3-18.3 10.7-27.4 16l-4.8 2.8c-7.5 4.4-15.1 8.9-22.6 13.3-9.1 5.4-18.3 10.8-27.4 16.2s-18.3 10.9-27.4 16.4c-9.1 5.5-18.3 11-27.4 16.6-9.1 5.6-18.3 11.2-27.4 16.8-9.1 5.7-18.3 11.4-27.4 17.2-9.1 5.7-18.3 11.6-27.4 17.5-9.1 5.9-18.2 11.8-27.4 17.9-10.2 6.7-19.2 12.7-27.4 18.2-9.2 6.2-18.3 12.4-27.4 18.6-9.2 6.3-18.3 12.6-27.5 19s-18.4 12.9-27.6 19.4l-27.9 19.8-10.4 7.4-17.7 12.6c-5.8 4.2-11.7 8.3-17.5 12.4-.6.4-.7 1.2-.3 1.7.2.3.6.5 1 .5.2.1.5.1.7-.1zM3.8 1016c44.6-25.8 89.3-51.6 134-77.3 7.5-4.3 14.9-8.6 22.4-12.9l.3-.2 27-15.6 83.6-48.2c9.1-5.3 18.3-10.6 27.5-15.9l1.8-1.1c8.5-4.9 17.1-9.8 25.6-14.8l54.8-31.6c6.7-3.9 13.4-7.7 20-11.6l45.1-26.1 17-9.8 82.2-47.5 17.7-10.2 37.1-21.4c6.9-4 13.9-8 20.9-12l6.5-3.8c9.1-5.3 18.3-10.6 27.4-15.8l27.4-15.8c9.1-5.3 18.3-10.5 27.4-15.8l54.8-31.5c9.1-5.2 18.3-10.4 27.4-15.6 11-6.2 19.4-10.9 27.4-15.3 10.7-5.8 19.4-10.5 27.4-14.5 10.2-5.2 19.1-9.5 27.3-13.2 9.7-4.3 18.7-7.9 27.3-10.8 8.9-3.1 18-5.6 27.3-7.5 9-1.8 18.1-3.1 27.3-3.8 9.4-.7 18.7-.8 27.3-.8h5.4c7.2 0 14.7 0 22-.2 9.2-.3 18.4-1.4 27.4-3.4 9.7-2.2 19.1-5.7 27.8-10.4 10-5.4 19.3-11.9 27.9-19.4 9.7-8.5 18.9-17.6 27.5-27.2 8.8-9.7 17.8-20.4 27-31.3l3.4-4.1c7.8-9.3 15.9-18.9 23.8-27.9 9.8-11.1 18.8-20.8 27.6-29.4 8.9-8.8 18.2-17.3 27.5-25 8.4-7 17.3-13.8 27.2-20.9 8.3-5.9 17.2-11.8 27.2-18.2 8.1-5.2 16.8-10.6 27.4-16.9 8.2-4.9 17-10.1 27.4-16.2 9.1-5.3 18.3-10.7 27.4-16l137.1-79.2 27.6-15.9c9.3-5.4 18.6-10.7 27.9-16.1l28.1-16.2 108-62.4c.6-.3.8-1.1.4-1.7-.3-.6-1.1-.8-1.7-.4l-108 62.4-28.1 16.2-27.9 16.1-27.6 15.9-137.1 79.2c-9.1 5.3-18.3 10.6-27.5 16-10.5 6.1-19.2 11.3-27.5 16.3-10.6 6.3-19.3 11.7-27.4 16.9-10 6.4-18.9 12.4-27.3 18.3-9.9 7-18.9 13.9-27.4 21-9.4 7.8-18.7 16.3-27.7 25.2-8.8 8.7-17.9 18.4-27.7 29.6-7.9 9-16 18.6-23.8 27.9l-3.4 4.1c-9.2 11-18.2 21.6-27 31.3-8.5 9.5-17.6 18.6-27.3 27-8.4 7.4-17.6 13.8-27.4 19.1-8.6 4.6-17.7 8-27.2 10.1-8.9 1.9-17.9 3-27 3.3-7.2.3-14.7.3-21.8.3h-5.4c-8.7 0-18 .1-27.5.8-9.3.7-18.5 1.9-27.6 3.8-9.3 2-18.6 4.5-27.6 7.6-8.7 3-17.7 6.5-27.5 10.9-8.3 3.7-17.3 8-27.5 13.2-8 4.1-16.7 8.7-27.4 14.6-8 4.4-16.4 9.1-27.4 15.3-9.1 5.2-18.3 10.4-27.4 15.6l-54.8 31.5c-9.1 5.3-18.2 10.5-27.4 15.8l-27.4 15.8c-9.1 5.3-18.3 10.5-27.4 15.8l-6.5 3.8c-6.9 4-13.9 8-20.9 12l-37.1 21.4-17.7 10.2-82.2 47.5-17 9.8-45.1 26.1c-6.7 3.9-13.4 7.7-20 11.6l-54.8 31.6c-8.5 4.9-17.1 9.8-25.6 14.8l-1.8 1.1c-9.1 5.3-18.3 10.6-27.5 15.9l-83.6 48.2-27 15.6-.3.2c-7.5 4.3-14.9 8.6-22.4 12.9-44.7 25.8-89.3 51.6-134 77.3-.6.3-.8 1.1-.4 1.7.2.4.6.6 1.1.6.3-.2.5-.2.7-.4zm0 44.8c57.6-33.2 115.2-66.5 172.8-99.7l30.1-17.4 19.5-11.3c6-3.4 12-6.9 17.9-10.3l175.4-101.2c9.1-5.3 18.3-10.6 27.4-15.8l82.2-47.5c6.7-3.9 13.4-7.7 20-11.6l34.7-20c9.1-5.3 18.3-10.5 27.4-15.8l54.8-31.6c6.6-3.8 13.2-7.7 19.9-11.5l17.7-10.2c5.7-3.3 11.5-6.6 17.2-9.9 9.1-5.3 18.2-10.5 27.4-15.8 9.1-5.2 18.3-10.5 27.4-15.7 9.1-5.2 18.3-10.4 27.4-15.6 10.1-5.7 19.1-10.7 27.4-15.2 10.6-5.8 19.3-10.4 27.4-14.5 10.2-5.2 19.1-9.5 27.3-13.2 9.8-4.4 18.7-8 27.3-11 8.9-3.2 18-5.9 27.3-8 9-2.1 18.1-3.6 27.3-4.5 7.9-.8 16.3-1.3 27.3-1.6 3.1-.1 6.2-.1 9.3-.2 5.9-.1 12.1-.2 18.1-.5 9.2-.3 18.4-1.3 27.5-2.9 9.5-1.8 18.7-4.7 27.5-8.7 9.9-4.6 19.2-10.3 27.8-16.9 9.9-7.7 19.1-16.1 27.8-25.2 9.9-10.2 19.9-21.6 27.4-30.4 3.9-4.5 7.8-9.1 11.7-13.7 5.1-6 10.2-12 15.3-17.9 10.1-11.6 19-21.5 27.2-30 9.2-9.6 18.5-18.5 27.6-26.6 8.8-7.9 17.8-15.2 27.5-22.4 8.4-6.3 17.3-12.6 27.2-19.1 8.1-5.3 17-11 27.2-17.2 8.1-4.9 16.8-10.2 27.4-16.4 9.1-5.4 18.3-10.7 27.5-16s18.3-10.6 27.4-15.9c9.1-5.3 18.3-10.6 27.4-15.8l7.9-4.5c6.5-3.8 13-7.5 19.5-11.3l109.9-63.5c9.3-5.4 18.6-10.7 27.9-16.1 6.9-4 13.7-7.9 20.6-11.9l57.2-33 23.4-13.5c.6-.3.8-1.1.4-1.7-.3-.6-1.1-.8-1.7-.4l-23.4 13.5-57.2 33c-6.9 4-13.7 7.9-20.6 11.9-9.3 5.4-18.6 10.7-27.9 16.1l-109.9 63.5c-6.5 3.8-13 7.5-19.5 11.3l-7.9 4.5c-9.1 5.3-18.3 10.5-27.4 15.8-9.1 5.3-18.3 10.6-27.4 15.9s-18.3 10.7-27.5 16.1c-10.6 6.3-19.3 11.5-27.4 16.4-10.2 6.3-19.1 11.9-27.2 17.3-10 6.6-18.9 12.9-27.4 19.2-9.7 7.3-18.8 14.7-27.7 22.6-9.1 8.1-18.5 17.1-27.7 26.7-8.3 8.6-17.2 18.5-27.3 30.1-5.1 5.9-10.2 11.9-15.3 17.9-3.9 4.6-7.8 9.2-11.7 13.7-7.5 8.8-17.5 20.1-27.3 30.3-8.5 9-17.7 17.3-27.5 25-8.4 6.6-17.6 12.2-27.3 16.7-8.6 3.9-17.6 6.8-26.9 8.5-9 1.6-18 2.6-27.1 2.9-6 .3-12.1.4-18 .5-3.1 0-6.3.1-9.4.2-11.1.3-19.6.8-27.5 1.6-9.3 1-18.5 2.5-27.6 4.6-9.3 2.2-18.5 4.9-27.5 8.1-8.6 3-17.6 6.7-27.5 11.1-8.3 3.7-17.2 8-27.4 13.2-8.1 4.1-16.8 8.8-27.4 14.5-8.3 4.6-17.3 9.5-27.4 15.2-9.1 5.1-18.3 10.4-27.4 15.6-9.1 5.2-18.3 10.5-27.4 15.7s-18.3 10.5-27.4 15.8c-5.7 3.3-11.5 6.6-17.2 9.9l-17.7 10.2c-6.6 3.8-13.2 7.7-19.9 11.5L610.1 708c-9.1 5.3-18.3 10.6-27.4 15.8l-34.7 20c-6.7 3.9-13.4 7.7-20 11.6l-82.2 47.5c-9.1 5.3-18.3 10.5-27.4 15.8L243 920c-6 3.4-11.9 6.9-17.9 10.3l-19.5 11.3-30.2 17.4c-57.6 33.2-115.2 66.5-172.8 99.7-.6.3-.8 1.1-.4 1.7.2.4.6.6 1.1.6.2 0 .4 0 .5-.2zm0 44.8 10.1-5.8c67.1-38.8 134.3-77.5 201.4-116.3l49.6-28.6 28.1-16.2c9.3-5.4 18.6-10.7 27.9-16.1l27.6-15.9 29.3-16.9c8.5-4.9 17.1-9.8 25.6-14.8l54.8-31.6c6.8-3.9 13.6-7.9 20.4-11.8L650 732.5c9.1-5.3 18.3-10.5 27.4-15.8l27.4-15.8c9.1-5.3 18.3-10.5 27.4-15.8l31.6-18.2c7.7-4.4 15.5-8.8 23.2-13.2 9.1-5.2 18.3-10.3 27.4-15.4 10.1-5.7 19.1-10.6 27.4-15.1 10.2-5.5 19.1-10.2 27.4-14.3 9.9-5 18.9-9.2 27.3-13 9.8-4.3 18.7-7.9 27.3-10.9 8.9-3.2 18.1-5.9 27.3-8.1 9-2.1 18.1-3.8 27.3-4.9 8-1 16.7-1.7 27.3-2.2 3.7-.2 7.4-.3 11.1-.5 5.5-.2 10.9-.4 16.3-.8 9.2-.5 18.4-1.5 27.6-3.1 9.4-1.7 18.7-4.5 27.5-8.2 9.7-4.1 18.9-9.3 27.5-15.5 9.8-7.1 19.1-14.9 27.7-23.5 8.1-7.9 16.9-17.2 27.7-29.4 6.1-6.9 12.3-14.1 18.3-21.1l9-10.5c10.6-12.3 19.2-21.8 27-30.1 9.4-10 18.5-19.1 27.2-27.1 8.9-8.3 18.2-16.2 27.6-23.6 8.7-6.8 17.6-13.4 27.5-20.1 8.1-5.6 17-11.4 27.2-17.8 8.3-5.1 17.2-10.6 27.2-16.5 9.1-5.4 18.2-10.8 27.4-16.1 9.1-5.3 18.3-10.7 27.4-15.9 8.7-5 17.3-10.1 26-15l145.7-84.1c6.8-3.9 13.7-7.9 20.5-11.8 9.3-5.4 18.6-10.7 27.9-16.1l28.1-16.2 34.2-19.7c.6-.3.8-1.1.4-1.7-.3-.6-1.1-.8-1.7-.4l-34.2 19.8-28.1 16.2-27.9 16.1c-6.8 4-13.7 7.9-20.5 11.8L1441.6 273c-8.7 5-17.3 10-26 15.1-9.2 5.3-18.3 10.6-27.5 15.9-9.1 5.3-18.3 10.7-27.4 16.1-10.1 6-19 11.4-27.2 16.6-10.3 6.4-19.2 12.2-27.3 17.8-9.9 6.8-19 13.4-27.7 20.2-9.4 7.4-18.7 15.4-27.7 23.7-8.7 8.1-17.9 17.3-27.3 27.3-7.8 8.3-16.4 17.9-27 30.2-3 3.5-6.1 7-9.1 10.5-6 7-12.2 14.2-18.3 21.1-10.8 12.2-19.5 21.5-27.6 29.3-8.5 8.4-17.7 16.2-27.4 23.2-8.4 6.1-17.5 11.2-27 15.3-8.7 3.6-17.7 6.4-27 8.1-9 1.6-18.1 2.7-27.2 3.1-5.4.3-10.9.5-16.3.8-3.7.1-7.4.3-11.1.5-10.7.5-19.5 1.3-27.5 2.3-9.3 1.1-18.5 2.8-27.5 5-9.3 2.2-18.5 5-27.5 8.2-8.7 3.1-17.7 6.6-27.5 11-8.5 3.8-17.5 8-27.4 13-8.3 4.2-17.2 8.8-27.4 14.3-8.3 4.5-17.3 9.4-27.4 15.1-9.1 5.1-18.3 10.2-27.4 15.5-7.7 4.4-15.5 8.8-23.2 13.2L730.9 683c-9.1 5.3-18.2 10.5-27.4 15.8l-27.4 15.8c-9.1 5.3-18.3 10.6-27.4 15.8l-171.4 98.9c-6.8 3.9-13.6 7.8-20.4 11.8l-54.8 31.6c-8.5 4.9-17.1 9.8-25.6 14.8l-29.3 16.9-27.6 15.9c-9.3 5.4-18.6 10.7-27.9 16.1l-28.1 16.2-49.6 28.6c-67.2 38.8-134.3 77.5-201.4 116.3l-10.1 5.8c-.6.3-.8 1.1-.4 1.7.2.4.6.6 1.1.6.2.2.4.1.6 0zm0 44.8L331.9 961l27.9-16.1c6.6-3.8 13.2-7.6 19.7-11.4l35.3-20.4c9.1-5.3 18.3-10.6 27.4-15.8l54.8-31.6c9.1-5.3 18.3-10.6 27.4-15.8l35.2-20.3c6.5-3.8 13.1-7.5 19.6-11.3L688.8 755c9.1-5.3 18.2-10.5 27.4-15.8 9.1-5.3 18.3-10.5 27.4-15.8s18.2-10.5 27.4-15.7c9.1-5.2 18.3-10.4 27.4-15.5 10.5-6 19.2-10.8 27.4-15.3 10-5.5 19-10.3 27.4-14.8 10.4-5.5 19.1-9.9 27.4-13.8 9.8-4.7 18.7-8.8 27.3-12.4 9.4-4 18.6-7.5 27.3-10.4 9.3-3.1 18.4-5.7 27.3-7.8 8.7-2 17.9-3.7 27.3-5 7.9-1.1 16.3-1.9 27.3-2.7l9.1-.7c6-.4 12.2-.9 18.3-1.4 9.3-.8 18.5-2.1 27.6-3.9 9.5-2 18.7-4.8 27.6-8.6 9.6-4.2 18.9-9.3 27.5-15.3 9.7-6.8 18.8-14.3 27.3-22.4 8.1-7.6 16.9-16.7 27.6-28.4 7.9-8.7 15.9-17.9 23.7-26.8l4-4.5c8.7-9.9 18-20.5 27.4-30.5 9.3-10 18.3-19.2 26.9-27.3 8.8-8.4 18-16.4 27.2-23.9 8.7-7.1 17.7-13.9 27.6-20.9 8.3-5.9 17.3-11.9 27.5-18.4 8.3-5.2 17.2-10.8 27.3-16.8 8.1-4.9 16.7-10 27.2-16.1 9.1-5.3 18.2-10.7 27.4-16 9.1-5.3 18.3-10.6 27.5-15.9l164.5-95 27.6-15.9c9.3-5.4 18.6-10.7 27.9-16.1 7.2-4.2 14.4-8.3 21.6-12.5l1.9-1.1c.6-.3.8-1.1.4-1.7-.3-.6-1.1-.8-1.7-.4l-1.9 1.1c-7.2 4.2-14.4 8.3-21.6 12.5-9.3 5.4-18.6 10.7-27.9 16.1l-27.6 15.9-164.5 95c-9.1 5.3-18.3 10.6-27.5 15.9-9.2 5.3-18.3 10.6-27.4 16-10.5 6.1-19.1 11.2-27.2 16.1-10.1 6.1-19.1 11.6-27.3 16.9-10.3 6.5-19.3 12.6-27.6 18.5-9.9 7-19 13.9-27.7 21-9.3 7.5-18.5 15.6-27.3 24-8.7 8.2-17.7 17.4-27.1 27.4-9.3 10-18.7 20.6-27.4 30.6l-3.9 4.5c-7.8 8.9-15.8 18.1-23.7 26.8-10.7 11.7-19.4 20.7-27.5 28.3-8.5 8-17.5 15.5-27.1 22.1-8.5 5.9-17.6 10.9-27.1 15.1-8.8 3.7-17.9 6.5-27.2 8.5-9 1.8-18.1 3.1-27.3 3.9-6.1.6-12.3 1-18.3 1.4-3 .2-6.1.4-9.1.7-11 .8-19.5 1.7-27.5 2.8-9.5 1.3-18.7 3-27.5 5-8.9 2.1-18.2 4.7-27.5 7.8-8.7 2.9-18 6.4-27.5 10.4-8.7 3.7-17.6 7.7-27.4 12.5-8.3 4-17 8.4-27.4 13.9-8.4 4.4-17.4 9.3-27.4 14.8-8.2 4.5-16.9 9.3-27.4 15.3-9.1 5.1-18.3 10.3-27.4 15.5s-18.3 10.5-27.4 15.7c-9.1 5.2-18.3 10.5-27.4 15.8-9.1 5.2-18.2 10.5-27.4 15.8L578 815.9c-6.5 3.8-13.1 7.6-19.6 11.3l-35.2 20.3c-9.1 5.3-18.3 10.5-27.4 15.8L441.1 895c-9.1 5.3-18.3 10.5-27.4 15.8l-35.3 20.4c-6.6 3.8-13.2 7.6-19.7 11.4-9.3 5.4-18.6 10.7-27.9 16.1L2.6 1148.2c-.6.3-.8 1.1-.4 1.7.2.4.6.6 1.1.6.1 0 .3 0 .5-.1zm0 44.7c95.2-55 190.5-110 285.7-165l53-30.6 28.1-16.2c9.3-5.4 18.6-10.7 27.9-16.1l27.6-15.9L535.9 888l19.2-11.1 35.6-20.5c9.1-5.3 18.3-10.6 27.4-15.8 6.8-3.9 13.6-7.9 20.4-11.8l89.2-51.4c9.1-5.2 18.3-10.5 27.4-15.7 9.1-5.2 18.2-10.4 27.4-15.6 9.1-5.2 18.3-10.3 27.4-15.4 9.9-5.5 18.9-10.4 27.4-15 9.8-5.2 18.7-9.9 27.4-14.3 9.7-4.9 18.6-9.2 27.4-13.2 9.7-4.4 18.6-8.2 27.3-11.6 9.3-3.6 18.5-6.8 27.3-9.5 8.9-2.7 18.1-5.1 27.3-7 8.7-1.9 17.6-3.4 27.3-4.7 8.8-1.2 17.6-2.2 27.4-3.2l2.2-.2c8.3-.9 16.8-1.8 25.2-2.9 9.3-1.2 18.5-3 27.6-5.3 9.5-2.5 18.7-5.8 27.6-9.9 9.7-4.5 18.9-9.9 27.6-16 9.6-6.9 18.8-14.3 27.4-22.4 8.3-7.7 17.2-16.7 27.3-27.6 8.4-9 16.8-18.5 24.9-27.7l2.6-2.9c8.9-10 18.3-20.5 27.6-30.5 9.8-10.5 18.7-19.5 27.3-27.7 8.6-8.2 17.7-16.3 26.9-23.9 8.7-7.2 17.6-14 27.2-20.9 8.5-6.1 17.5-12.2 27.6-18.8 8.6-5.6 17.6-11.2 27.6-17.2 9.6-5.8 19.2-11.5 27.3-16.3 9-5.3 18.1-10.6 27.2-15.9 9.1-5.3 18.2-10.6 27.4-15.9l27.5-15.9c9.1-5.3 18.3-10.6 27.4-15.8l144.6-83.5c6.7-3.9 13.4-7.8 20.1-11.6l12-6.9.6-.4c.6-.3.8-1.1.4-1.7-.3-.6-1.1-.8-1.7-.4l-.6.4-12 6.9c-6.7 3.9-13.4 7.8-20.1 11.6l-144.6 83.5c-9.1 5.3-18.3 10.6-27.4 15.8l-27.5 15.9c-9.1 5.3-18.3 10.6-27.4 15.9-9.2 5.3-18.2 10.6-27.2 15.9-8.1 4.8-17.7 10.5-27.3 16.3-9.9 6-19 11.7-27.6 17.2-10.1 6.5-19.2 12.7-27.7 18.8-9.6 6.9-18.6 13.8-27.3 21-9.3 7.7-18.4 15.8-27.1 24-8.7 8.2-17.6 17.3-27.4 27.8-9.3 10-18.8 20.6-27.7 30.6l-2.6 2.9c-8.1 9.1-16.5 18.6-24.9 27.6-10 10.8-18.9 19.8-27.1 27.4-8.6 8-17.6 15.4-27.2 22.2-8.6 6.1-17.7 11.4-27.2 15.8-8.8 4-17.9 7.3-27.2 9.7-9 2.3-18.1 4.1-27.3 5.3-8.4 1.2-16.9 2.1-25.1 2.9l-2.2.2c-9.8 1-18.6 2-27.4 3.2-9.7 1.3-18.7 2.9-27.5 4.7-9.3 2-18.5 4.4-27.5 7.1-8.9 2.7-18.1 5.9-27.5 9.5-8.8 3.4-17.7 7.2-27.5 11.6-8.8 4-17.7 8.3-27.4 13.2-8.7 4.4-17.6 9.1-27.4 14.3-8.6 4.6-17.5 9.5-27.4 15-9.1 5.1-18.2 10.2-27.4 15.4-9.1 5.2-18.2 10.4-27.4 15.6-9.1 5.2-18.3 10.4-27.4 15.7l-89.2 51.4c-6.8 3.9-13.6 7.8-20.4 11.8-9.1 5.3-18.3 10.5-27.4 15.8L554 874.4l-19.2 11.1-109.7 63.3-27.6 15.9c-9.3 5.4-18.6 10.7-27.9 16.1-9.4 5.4-18.8 10.8-28.1 16.2l-53 30.6c-95.2 55-190.5 110-285.7 165-.6.3-.8 1.1-.4 1.7.2.4.6.6 1.1.6-.1.4.1.4.3.2zm0 44.8 209-120.6 168.6-97.3 28.1-16.2 27.9-16.1c6.4-3.7 12.9-7.4 19.3-11.1l96.9-55.9c7-4.1 14.1-8.1 21.2-12.2 9.1-5.3 18.3-10.5 27.4-15.8l61.3-35.3c6.9-4 13.9-8 20.9-12l34-19.5c6.9-4 13.9-8 20.8-11.9l3.3-1.9c8-4.6 16.1-9.2 24.1-13.7 9.1-5.2 18.2-10.3 27.4-15.4 9.9-5.5 18.8-10.4 27.4-15 9.2-5 18.4-9.9 27.4-14.4 10-5.2 19-9.6 27.4-13.5 9.6-4.6 18.6-8.6 27.3-12.3 9.5-4 18.7-7.5 27.3-10.5 9.2-3.2 18.4-6 27.3-8.4 8.7-2.3 17.9-4.4 27.3-6.2 8-1.5 16.4-2.9 27.3-4.4 4.8-.7 9.6-1.3 14.4-1.9 4.3-.6 8.7-1.1 13-1.7 8.1-1.1 17.7-2.5 27.5-4.5 9.3-1.8 18.5-4.3 27.6-7.3 9.5-3.2 18.7-7.2 27.6-11.9 9.6-5.1 18.8-11 27.6-17.6 9.6-7.2 18.8-15 27.5-23.2 8.1-7.6 16.8-16.3 27.3-27.5 7.9-8.4 15.8-17.1 23.5-25.5l3.8-4.1c8.8-9.7 18.2-20 27.5-29.7 9.7-10.1 18.7-19.2 27.6-27.6 9-8.5 18.2-16.6 27.3-24.1 8.7-7.1 17.7-14.1 26.9-20.7 8.3-6 17.2-12.1 27.2-18.6 8.3-5.4 17.4-11.1 27.6-17.4 8.7-5.3 17.7-10.7 27.6-16.5 9-5.3 18.1-10.6 27.3-16 7.8-4.5 15.7-9.1 23.6-13.7l3.6-2.1c9-5.2 18.1-10.5 27.1-15.7l27.7-16c9.1-5.3 18.3-10.6 27.4-15.8L1698 262l1.5-.9c.6-.3.8-1.1.4-1.7-.3-.6-1.1-.8-1.7-.4-.5.3-.9.6-1.5.8L1559.5 339c-9.1 5.3-18.3 10.5-27.4 15.8l-27.7 16c-9.1 5.2-18.1 10.5-27.1 15.7l-3.6 2.1c-7.9 4.6-15.8 9.2-23.7 13.7-9.2 5.4-18.3 10.7-27.3 16-9.9 5.8-18.9 11.2-27.6 16.5-10.3 6.3-19.4 12-27.7 17.4-10 6.5-19 12.7-27.3 18.7-9.3 6.7-18.4 13.7-27.1 20.8-9.1 7.5-18.4 15.6-27.5 24.2-8.9 8.4-18 17.5-27.7 27.6-9.3 9.7-18.7 20-27.6 29.7l-3.8 4.1c-7.6 8.4-15.5 17.1-23.4 25.5-10.5 11.1-19.1 19.8-27.2 27.4-8.7 8.2-17.8 15.9-27.3 23-8.6 6.5-17.8 12.3-27.3 17.4-8.7 4.6-17.9 8.6-27.2 11.7-8.9 3-18 5.4-27.2 7.2-9.7 2-19.2 3.4-27.3 4.5-4.3.6-8.6 1.2-13 1.7-4.8.6-9.6 1.3-14.5 1.9-11 1.6-19.5 2.9-27.5 4.4-9.5 1.8-18.7 3.9-27.5 6.2-9 2.4-18.3 5.2-27.5 8.4-8.7 3-17.9 6.6-27.5 10.6-8.8 3.7-17.8 7.7-27.5 12.3-8.4 4-17.4 8.4-27.4 13.6-8.9 4.6-18.2 9.5-27.4 14.5-8.6 4.6-17.5 9.5-27.4 15-9.1 5.1-18.2 10.2-27.4 15.4-8.1 4.5-16.1 9.1-24.1 13.7l-3.3 1.9c-6.9 4-13.9 7.9-20.8 11.9L683 845c-7 4-13.9 8-20.9 12l-61.3 35.3c-9.1 5.3-18.3 10.6-27.4 15.8-7 4.1-14.1 8.1-21.2 12.2l-96.9 55.9c-6.4 3.7-12.9 7.4-19.3 11.1-9.3 5.4-18.6 10.7-27.9 16.1l-28.1 16.2-168.6 97.3-209 120.7c-.6.3-.8 1.1-.4 1.7.2.4.6.6 1.1.6.3.2.5.2.7 0zm0 44.8c113-65.2 226-130.5 339-195.7l50.3-29 27-15.6 8.4-4.9c6.6-3.8 13.1-7.6 19.7-11.4 9.3-5.4 18.6-10.7 27.9-16.1l55.1-31.8c9.1-5.3 18.3-10.6 27.4-15.8 9.1-5.3 18.3-10.6 27.4-15.8 9.1-5.3 18.3-10.5 27.4-15.8 9.1-5.3 18.3-10.5 27.4-15.8l27.4-15.7c9.1-5.2 18.3-10.5 27.4-15.7 9.1-5.2 18.2-10.4 27.4-15.6s18.3-10.4 27.4-15.5c9.1-5.1 18.3-10.2 27.4-15.3 9.4-5.2 18.6-10.2 27.4-14.9 9.6-5.2 18.6-9.9 27.4-14.4 9.8-5 18.7-9.4 27.4-13.6 9.9-4.7 18.9-8.8 27.3-12.5 9.5-4.1 18.7-7.8 27.3-11 9.2-3.4 18.4-6.6 27.3-9.2 9-2.7 18.2-5.2 27.3-7.3 8.4-2 17.4-3.8 27.3-5.6 8.6-1.5 17.3-2.9 25.7-4.2l1.9-.3c8.9-1.4 18.1-2.9 27.2-4.6 10.2-2 19.2-4 27.5-6.4 9.4-2.7 18.6-5.9 27.6-9.8 9.5-4.2 18.7-9 27.6-14.5 9.6-6 18.8-12.6 27.6-19.7 8.7-7 17.7-15 27.5-24.4 8.1-7.8 16.8-16.6 27.4-27.7 6.7-7 13.4-14.2 20-21.3l7.3-7.8c7.5-8 17.4-18.5 27.2-28.4 9.6-9.7 18.6-18.4 27.5-26.5 9.2-8.4 18.2-16.2 27.6-23.7 8.8-7.1 17.7-13.8 27.3-20.7 8.4-6 17.2-12 27-18.3 8.4-5.5 17.4-11 27.2-17.1 8.5-5.2 17.5-10.6 27.6-16.6 9.1-5.4 18.3-10.8 27.6-16.2 8.9-5.2 18-10.5 27.3-15.8l6-3.5c7-4.1 14.1-8.1 21.2-12.3l27.4-15.8c9.1-5.3 18.3-10.6 27.5-15.9l127.2-73.4c.6-.3.8-1.1.4-1.7-.3-.6-1.1-.8-1.7-.4l-127.2 73.4c-9.1 5.3-18.3 10.6-27.5 15.9l-27.4 15.8-21.3 12.3-6 3.5c-9.2 5.3-18.3 10.6-27.3 15.8-9.3 5.4-18.5 10.8-27.6 16.2-10.1 6-19.2 11.4-27.7 16.6-9.9 6.1-18.8 11.6-27.3 17.1-9.8 6.4-18.6 12.4-27.1 18.4-9.7 6.9-18.6 13.7-27.4 20.8-9.4 7.6-18.4 15.4-27.7 23.8-8.9 8.2-17.9 16.9-27.6 26.6-9.8 9.9-19.7 20.4-27.2 28.4l-7.3 7.8c-6.6 7.1-13.3 14.2-20 21.2-10.6 11.1-19.3 19.9-27.4 27.7-9.8 9.4-18.7 17.3-27.4 24.3-8.7 7.1-17.8 13.6-27.3 19.5-8.7 5.4-17.8 10.2-27.2 14.3-8.9 3.8-18 7.1-27.2 9.7-8.2 2.3-17.2 4.4-27.3 6.3-9 1.7-18.2 3.2-27.3 4.6l-1.7.2c-8.5 1.3-17.2 2.7-25.8 4.2-10 1.8-19 3.6-27.5 5.6-9.1 2.1-18.4 4.6-27.5 7.3-8.9 2.7-18.2 5.8-27.5 9.3-8.7 3.2-17.9 7-27.5 11.1-8.5 3.7-17.5 7.7-27.4 12.5-8.7 4.1-17.6 8.6-27.4 13.6-8.8 4.5-17.8 9.2-27.4 14.4-8.8 4.7-18 9.7-27.4 14.9-9.1 5-18.3 10.1-27.4 15.3-9.1 5.1-18.2 10.3-27.4 15.5-9.1 5.2-18.2 10.4-27.4 15.6-9.1 5.2-18.3 10.5-27.4 15.7l-27.4 15.7c-9.1 5.3-18.3 10.5-27.4 15.8-9.1 5.3-18.2 10.5-27.4 15.8s-18.3 10.5-27.4 15.8c-9.1 5.3-18.3 10.5-27.4 15.8l-55.1 31.8c-9.3 5.4-18.6 10.7-27.9 16.1-6.6 3.8-13.1 7.6-19.7 11.4l-8.4 4.9-27 15.6-50.3 29.1c-113 65.3-226 130.5-339 195.7-.6.3-.8 1.1-.4 1.7.2.4.6.6 1.1.6.3.1.5.1.8 0zm0 44.7c113.5-65.5 227-130.9 340.4-196.5l71.5-41.3c5.4-3.1 10.8-6.2 16.2-9.4l55.1-31.8 25.4-14.7 149.3-85.9c5.9-3.4 11.9-6.8 17.8-10.2 9.1-5.2 18.3-10.4 27.4-15.5 9.1-5.2 18.2-10.3 27.4-15.4 9.1-5.1 18.3-10.1 27.4-15.1 9.3-5.1 18.6-10.1 27.4-14.7 9.1-4.8 18.3-9.6 27.4-14.1 9.9-4.9 18.8-9.3 27.4-13.3 9.3-4.4 18.5-8.5 27.3-12.3 9.7-4.2 18.7-7.7 27.3-11 9-3.4 18.2-6.6 27.3-9.5 8.8-2.8 18-5.5 27.3-8 8.7-2.3 17.7-4.4 27.4-6.5 9.5-2.1 19.2-4 27.4-5.5l5.8-1.1c7.2-1.4 14.4-2.7 21.6-4.2 10.7-2.2 19.4-4.3 27.5-6.4 9.3-2.5 18.5-5.5 27.5-9 9.4-3.7 18.6-8 27.5-12.8 9.5-5.2 18.7-11.1 27.5-17.5s18.1-13.8 27.5-22c8.5-7.4 17.5-15.9 27.5-25.8 9.6-9.5 19.3-19.5 27.5-28l9.2-9.5c6.1-6.4 12.2-12.7 18.3-18.9 10-10.3 18.9-19.2 27.2-27.2 9.6-9.2 18.5-17.4 27.2-25 9-7.9 18.3-15.5 27.5-22.7 8.7-6.8 17.7-13.4 27.6-20.3 8.5-5.9 17.4-11.9 27.3-18.2 8.2-5.2 17-10.7 27-16.8 8-4.9 16.7-10.1 27.2-16.3 9.2-5.4 18.4-10.8 27.7-16.2 9.1-5.3 18.3-10.6 27.6-16l84-48.5c8.5-4.9 16.9-9.8 25.4-14.7 9.1-5.3 18.3-10.6 27.4-15.8 9.1-5.3 18.3-10.6 27.4-15.8 9.1-5.3 18.3-10.6 27.4-15.8 2.1-1.2 4.1-2.4 6.2-3.6.6-.3.8-1.1.5-1.7-.3-.6-1.1-.8-1.7-.5-2.1 1.2-4.1 2.4-6.2 3.6-9.1 5.3-18.3 10.5-27.4 15.8-9.1 5.3-18.3 10.5-27.4 15.8-9.1 5.3-18.3 10.5-27.4 15.8-8.5 4.9-16.9 9.8-25.4 14.7l-84 48.5c-9.3 5.4-18.5 10.7-27.6 16-9.2 5.4-18.4 10.8-27.7 16.2-10.6 6.2-19.2 11.4-27.2 16.3-10 6.1-18.9 11.6-27 16.8-9.9 6.4-18.9 12.4-27.4 18.3-9.9 6.9-18.9 13.6-27.7 20.4-9.2 7.2-18.5 14.8-27.6 22.8-8.7 7.6-17.6 15.8-27.2 25.1-8.3 8-17.3 17-27.3 27.2-6.1 6.2-12.2 12.6-18.3 18.9l-9.1 9.5c-8.2 8.5-17.8 18.4-27.4 27.9-10 9.9-18.9 18.3-27.4 25.7-9.3 8.2-18.5 15.5-27.3 21.9-8.7 6.3-17.8 12.1-27.3 17.3-8.8 4.8-17.9 9-27.2 12.7-8.9 3.4-18 6.4-27.3 8.9-8 2.2-16.7 4.2-27.3 6.4-7.2 1.5-14.4 2.8-21.6 4.2l-5.8 1.1c-8.2 1.6-17.8 3.5-27.4 5.5-9.7 2.1-18.7 4.2-27.5 6.5-9.3 2.5-18.6 5.1-27.4 8-9.1 2.9-18.4 6.1-27.5 9.5-8.7 3.3-17.6 6.8-27.4 11-8.9 3.8-18.1 7.9-27.4 12.3-8.6 4-17.5 8.4-27.4 13.4-9.1 4.6-18.3 9.3-27.4 14.2-8.8 4.7-18 9.6-27.4 14.7-9.1 5-18.3 10-27.4 15.1-9.1 5.1-18.3 10.2-27.4 15.4-9.1 5.2-18.3 10.3-27.4 15.5-5.9 3.4-11.9 6.8-17.8 10.2l-149.3 85.9-25.4 14.7-55.1 31.8c-5.4 3.1-10.8 6.3-16.2 9.4l-71.5 41.3c-113.5 65.5-227 131-340.4 196.5-.6.3-.8 1.1-.4 1.7.2.4.6.6 1.1.6-.2.2 0 .2.1 0zm35.5 23.9c114.6-65.8 231.2-133 343.9-198.1l64.8-37.4 133.2-76.7c6.9-4 13.7-7.9 20.6-11.8l6.9-3.9c9.1-5.2 18.3-10.4 27.4-15.6l5.2-2.9 22.2-12.6c9.1-5.1 18.3-10.3 27.4-15.4a3742.52 3742.52 0 0 1 54.8-30.1c10.7-5.7 19.4-10.3 27.4-14.4 9.3-4.8 18.5-9.4 27.4-13.8 9.3-4.5 18.5-8.9 27.4-13 9.2-4.2 18.4-8.2 27.4-11.9 9.1-3.8 18.3-7.4 27.3-10.7 8.9-3.3 18.1-6.4 27.3-9.4 8.8-2.8 18-5.5 27.3-8.1 8.8-2.4 18-4.7 27.4-7 8.9-2.1 17.9-4.2 26.9-6.2l.5-.1c9.2-2.1 18.3-4.2 27.4-6.4 10.4-2.5 19.1-4.8 27.5-7.3 9.9-2.9 18.9-5.9 27.5-9.2 19.4-7.4 37.8-17 55-28.5 8.9-5.9 18.1-12.8 27.5-20.4 8.5-6.9 17.5-14.8 27.5-24.1 10.1-9.4 20-19.3 27.4-26.8 6.4-6.5 12.9-13.1 19.3-19.7l8.1-8.3c8.1-8.2 17.6-17.9 27.4-27.5 9.6-9.5 18.6-17.9 27.4-25.9 9.1-8.2 18.2-16.2 27.2-23.6 8.8-7.2 17.9-14.3 27.2-21.2 8.7-6.5 17.7-12.8 27.5-19.4 8.7-5.9 17.7-11.7 27.6-18 8.1-5.1 16.8-10.5 27.4-16.8 9-5.4 18-10.7 27-16 9.1-5.3 18.2-10.6 27.2-15.9 9.2-5.4 18.4-10.7 27.6-16 9.1-5.3 18.3-10.6 27.6-15.9 8.9-5.2 18-10.4 27.3-15.8l54.6-31.5c9.1-5.3 18.3-10.6 27.5-15.9l49.7-28.6c.6-.3.8-1.1.4-1.7-.3-.6-1.1-.8-1.7-.4l-49.7 28.6c-9.1 5.3-18.3 10.6-27.5 15.8l-54.6 31.5c-9.2 5.3-18.3 10.6-27.3 15.8-9.3 5.4-18.5 10.7-27.6 15.9-9.2 5.3-18.4 10.7-27.7 16l-27.3 15.9c-9 5.3-18 10.7-27 16.1-10.6 6.4-19.3 11.7-27.4 16.9-10 6.3-19 12.1-27.7 18-9.8 6.6-18.8 13-27.6 19.5-9.3 6.9-18.5 14.1-27.3 21.3-9 7.4-18.2 15.4-27.3 23.7-8.8 8-17.8 16.5-27.4 26-9.8 9.6-19.4 19.3-27.5 27.6l-8.1 8.3c-6.4 6.6-12.9 13.2-19.3 19.6-7.5 7.5-17.3 17.3-27.4 26.7-9.9 9.3-18.9 17.2-27.4 24.1-9.3 7.6-18.5 14.4-27.3 20.3s-17.9 11.2-27.3 16.1c-8.9 4.5-18 8.6-27.3 12.2-8.5 3.3-17.4 6.3-27.3 9.2-8.3 2.4-17 4.7-27.3 7.2-9.1 2.2-18.1 4.3-27.4 6.3l-.5.1c-8.9 2-17.9 4.1-26.9 6.2-9.3 2.2-18.5 4.6-27.4 7-9.4 2.6-18.6 5.3-27.4 8.1-9.2 2.9-18.5 6.1-27.5 9.4-9.1 3.3-18.3 6.9-27.4 10.7-9 3.7-18.2 7.8-27.4 12-8.9 4.1-18.1 8.4-27.4 13-8.9 4.4-18.1 9-27.4 13.8-8.1 4.2-16.8 8.7-27.4 14.4-9.1 4.9-18.2 9.9-27.4 14.9-9.1 5-18.3 10.1-27.4 15.2-9.1 5.1-18.2 10.2-27.4 15.4l-22.2 12.6-5.2 2.9c-9.1 5.2-18.3 10.4-27.4 15.6l-6.9 3.9c-6.9 3.9-13.8 7.9-20.6 11.8L382 1153.1c-112.7 65-229.3 132.3-343.9 198.1-.6.3-.8 1.1-.4 1.7.2.4.6.6 1.1.6.1-.1.4-.1.5-.2zm74.7 0c111.8-63 225.5-128.3 335.5-191.5l60.1-34.5 18.9-10.8 8.1-4.6c9.4-5.4 18.7-10.7 28.1-16 8.9-5.1 17.9-10.2 26.8-15.3l1-.6 27.6-15.6c9.1-5.1 18.3-10.3 27.5-15.3 9.1-5.1 18.3-10.1 27.4-15.1 9.1-5 18.3-9.9 27.4-14.8 9.3-5 18.6-9.9 27.4-14.4 9.7-5 18.7-9.6 27.4-13.9 10-5 19-9.3 27.4-13.3 9.2-4.4 18.4-8.6 27.4-12.5 9.7-4.2 18.6-8 27.4-11.5 9.3-3.7 18.5-7.2 27.4-10.3s18.1-6.2 27.3-9.1c8.7-2.7 17.6-5.4 27.4-8 7.9-2.2 16.6-4.5 27.4-7.3 4.4-1.1 8.8-2.3 13.3-3.4l14.1-3.6c10.7-2.7 19.4-5 27.4-7.2 10.3-2.9 19.2-5.6 27.4-8.3 9.8-3.3 18.8-6.6 27.5-10.3 9.3-3.9 18.6-8.2 27.5-12.9 9.2-4.8 18.5-10.3 27.5-16.1 9-5.9 18.3-12.5 27.5-19.6 8.9-6.9 17.9-14.4 27.5-22.9 8.5-7.5 17.4-15.9 27.4-25.6 8.8-8.6 17.6-17.4 27.4-27.1l2.2-2.2c8.4-8.4 16.8-16.8 25.2-25.1 10.5-10.3 19.2-18.6 27.4-26.3 9.4-8.8 18.6-17 27.4-24.4 8.9-7.6 18.1-15 27.4-22.2 8.8-6.8 18-13.5 27.3-20.1 8.6-6.1 17.5-12.1 27.2-18.4 8.4-5.5 17.4-11.1 27.5-17.4 8.1-5 16.9-10.3 27.6-16.7 9.1-5.4 18.2-10.8 27.4-16.2 9-5.2 18-10.5 27-15.7 9.1-5.3 18.2-10.5 27.2-15.8 7.9-4.6 15.9-9.2 23.8-13.8l3.8-2.2c9.1-5.2 18.3-10.6 27.6-15.9 9-5.2 18.1-10.4 27.3-15.7 5.9-3.4 11.9-6.9 17.9-10.4l38.8-22.4c8.5-4.9 16.9-9.8 25.4-14.7l10.9-6.3c.6-.3.8-1.1.4-1.7-.3-.6-1.1-.8-1.7-.4l-10.9 6.3c-8.5 4.9-16.9 9.8-25.4 14.7l-38.8 22.4c-6 3.5-12 6.9-17.9 10.4-9.2 5.3-18.3 10.6-27.3 15.7-9.3 5.4-18.5 10.7-27.6 15.9l-3.8 2.2c-8 4.6-15.9 9.2-23.8 13.8-9 5.2-18.1 10.5-27.2 15.8-9 5.2-18 10.5-27 15.7-9.2 5.4-18.3 10.8-27.4 16.2-10.7 6.4-19.5 11.7-27.7 16.7-10.2 6.3-19.2 12-27.6 17.5-9.7 6.3-18.6 12.3-27.2 18.4-9.3 6.6-18.5 13.3-27.3 20.1-9.3 7.2-18.5 14.7-27.4 22.3-8.8 7.5-18 15.7-27.5 24.5-8.3 7.7-17 16-27.5 26.3-8.4 8.3-16.8 16.7-25.2 25.1l-2.2 2.2c-9.8 9.8-18.5 18.5-27.4 27.1-10 9.7-18.9 18-27.3 25.5-9.5 8.5-18.5 16-27.3 22.8-9.1 7.1-18.3 13.6-27.3 19.5-9 5.8-18.2 11.2-27.3 16-8.8 4.6-18 8.9-27.3 12.8-8.6 3.6-17.6 6.9-27.3 10.2-8.2 2.7-17.1 5.4-27.3 8.3-8 2.2-16.7 4.5-27.4 7.2l-14.1 3.6c-4.4 1.1-8.9 2.2-13.3 3.4-10.8 2.7-19.5 5.1-27.4 7.3-9.7 2.7-18.7 5.3-27.4 8.1-9.3 2.9-18.5 6-27.4 9.1-8.9 3.1-18.1 6.6-27.4 10.4-8.7 3.5-17.7 7.2-27.4 11.5-8.9 3.9-18.2 8.1-27.4 12.5-8.4 4-17.4 8.3-27.4 13.3-8.7 4.3-17.7 8.9-27.4 13.9-8.8 4.6-18.1 9.4-27.4 14.4-9.1 4.9-18.3 9.8-27.4 14.8-9.1 5-18.3 10-27.4 15.1s-18.3 10.2-27.5 15.3l-27.6 15.6-1 .6c-8.9 5.1-17.9 10.2-26.8 15.3-9.4 5.3-18.7 10.7-28.1 16.1l-8.1 4.6-18.9 10.8-60.1 34.5c-110 63.1-223.7 128.4-335.5 191.4-.6.3-.8 1.1-.5 1.7.2.4.6.6 1.1.6-.4 0-.2-.1 0-.1zM3.8 299.4 34.1 282l17-9.8 10.4-6c9.1-5.3 18.3-10.6 27.4-15.8l109.6-63.3c9.1-5.3 18.3-10.6 27.4-15.8 9.1-5.3 18.3-10.5 27.4-15.8 9.1-5.2 18.3-10.4 27.4-15.6 10.8-6.1 19.5-10.9 27.4-15.1 10.4-5.6 19.1-10 27.4-13.9 10-4.7 19-8.5 27.3-11.5 8.8-3.2 17.9-5.7 27.1-7.4 8.9-1.6 17.9-2.5 27-2.5 9.5-.1 19 .6 27.4 1.2h.5c9.1.9 18.2 1.2 27.3 1 9.4-.3 18.8-1.9 27.7-5 9.8-3.5 19-8.6 27.3-14.9 8.5-6.4 17.5-14.6 27.4-25.3 9.4-10.1 18.8-21.6 27.7-32.4l4.4-5.4c7.5-9.2 15.3-18.8 23.1-27.9 9.7-11.3 18.6-21 27.2-29.6 8.7-8.6 17.8-16.9 27.1-24.6 8.5-7 17.5-13.8 27.3-20.7 8.2-5.7 16.9-11.4 27.4-18 7.9-5 16.6-10.3 27.4-16.7 9.1-5.4 18.3-10.8 27.4-16.1 9.1-5.3 18.2-10.6 27.4-15.9 9.1-5.3 18.2-10.6 27.4-15.8l27.4-15.8c5.7-3.3 11.3-6.6 17-9.8l10.5-6.1 27.6-15.9 89.3-51.6c5.4-3.1 10.9-6.3 16.3-9.4l98.6-56.9c.6-.3.8-1.1.5-1.7-.3-.6-1.1-.8-1.7-.5l-98.5 56.9c-5.4 3.1-10.9 6.3-16.3 9.4l-89.3 51.6-27.6 15.9-10.5 6.1c-5.7 3.3-11.3 6.6-17 9.8l-27.4 15.8c-9.1 5.3-18.3 10.6-27.4 15.8-9.1 5.3-18.3 10.6-27.4 15.9-9.1 5.3-18.3 10.7-27.4 16.1-10.8 6.4-19.5 11.7-27.5 16.7-10.6 6.6-19.3 12.4-27.5 18.1-9.9 6.9-18.9 13.7-27.5 20.8-9.4 7.8-18.6 16.1-27.3 24.8s-17.6 18.4-27.3 29.7c-7.8 9.1-15.6 18.7-23.2 27.9l-4.4 5.4c-8.8 10.8-18.2 22.2-27.6 32.3-9.8 10.6-18.7 18.8-27.1 25-8.1 6.2-17.1 11.1-26.7 14.6-8.7 3-17.8 4.6-27 4.8-9 .3-18.2-.3-27-1h-.5c-8.5-.6-18-1.3-27.6-1.3-9.2.1-18.4.9-27.4 2.6-9.3 1.8-18.5 4.3-27.5 7.5-9.4 3.4-18.6 7.2-27.5 11.6-8.3 3.9-17 8.4-27.5 14-7.9 4.3-16.7 9.1-27.5 15.2-9.1 5.1-18.3 10.3-27.4 15.6-9.1 5.2-18.3 10.5-27.4 15.8-9.1 5.2-18.2 10.5-27.4 15.8L87.6 248.2c-9.1 5.3-18.3 10.5-27.4 15.8l-10.4 6-17 9.8-30.2 17.5c-.6.3-.8 1.1-.4 1.7.2.4.6.6 1.1.6.1 0 .3-.1.5-.2zm0 44.8 41.6-24c9.1-5.3 18.3-10.5 27.4-15.8l137-79.1c6.8-3.9 13.6-7.9 20.4-11.8l7-4.1c9.1-5.3 18.3-10.6 27.4-15.8 9.1-5.3 18.3-10.5 27.4-15.7 9.1-5.2 18.3-10.4 27.4-15.6 10.2-5.7 19.1-10.7 27.4-15.2 10.5-5.6 19.2-10.1 27.4-14 10-4.7 18.9-8.5 27.3-11.6 8.8-3.2 17.9-5.8 27.1-7.6 8.9-1.7 17.9-2.6 27-2.7 9.1-.1 17.8.4 27.4 1.2l1.4.1c8.6.6 17.5 1.3 26.4 1.1 9.4-.1 18.8-1.7 27.7-4.5 9.8-3.4 19-8.2 27.3-14.4 8.5-6.2 17.5-14.3 27.4-24.9 8.7-9.3 17.4-19.6 27.7-32.2 2.2-2.8 4.5-5.5 6.8-8.3 6.8-8.3 13.8-16.9 20.8-25.1 9.7-11.4 18.6-21.2 27.2-29.9 8.7-8.8 17.8-17.2 27.1-25 8.4-7 17.4-13.9 27.3-20.9 8.2-5.8 17.2-11.7 27.4-18.2 8-5 16.7-10.4 27.4-16.8 9.1-5.4 18.3-10.8 27.4-16.1 7.4-4.3 14.8-8.6 22.1-12.9l70.6-40.8c5.7-3.3 11.3-6.6 17-9.8 6.8-4 13.7-7.9 20.5-11.8l70.6-40.7 19.5-11.3 22.7-13.1c45.8-26.4 91.6-52.9 137.3-79.3.6-.3.8-1.1.5-1.7-.3-.6-1.1-.8-1.7-.5-45.8 26.4-91.6 52.9-137.3 79.3l-22.7 13.1-19.5 11.3-70.6 40.7c-6.8 3.9-13.7 7.9-20.5 11.8-5.7 3.3-11.3 6.6-17 9.8l-70.6 40.8c-7.4 4.3-14.7 8.6-22.1 12.9-9.1 5.3-18.3 10.7-27.4 16.1-10.7 6.4-19.5 11.7-27.5 16.8-10.3 6.5-19.3 12.4-27.5 18.2-10 7.1-19 13.9-27.5 21-9.3 7.8-18.5 16.3-27.3 25.1-8.7 8.8-17.6 18.6-27.3 30-7 8.2-14 16.8-20.8 25.2-2.3 2.8-4.5 5.5-6.8 8.3-10.3 12.6-18.9 22.8-27.6 32.1-9.8 10.4-18.7 18.5-27.1 24.5-8.1 6-17.1 10.7-26.7 14-8.7 2.8-17.8 4.3-27 4.4-8.7.1-17.4-.3-26.1-1.1l-1.4-.1c-9.3-.7-18.5-1.3-27.6-1.2-9.2.1-18.4 1.1-27.4 2.8-9.3 1.8-18.5 4.4-27.5 7.7-8.5 3-17.5 6.9-27.5 11.6-8.2 3.9-17 8.4-27.5 14-8.3 4.5-17.3 9.4-27.5 15.2-9.1 5.1-18.3 10.3-27.4 15.6-9.1 5.2-18.3 10.5-27.4 15.7-9.2 5.3-18.3 10.5-27.4 15.8l-7 4.1c-6.8 3.9-13.6 7.8-20.4 11.8l-137 79.1c-9.1 5.3-18.2 10.6-27.4 15.8l-41.6 24c-.6.3-.8 1.1-.4 1.7.2.4.6.6 1.1.6.3.5.5.4.6.3zm0 44.8 25.6-14.8c6.6-3.8 13.2-7.7 19.9-11.5l43.1-24.9 19.2-11.1 27.4-15.8c9.1-5.3 18.3-10.6 27.4-15.8l82.2-47.5c9.1-5.3 18.3-10.6 27.4-15.8 6.6-3.8 13.3-7.7 19.9-11.5l34.9-20.1c9.1-5.2 18.3-10.4 27.4-15.6 7.6-4.3 17.5-9.8 27.4-15.2 10.6-5.7 19.3-10.2 27.4-14 10.1-4.8 19.1-8.7 27.3-11.7 8.8-3.3 17.9-5.9 27.1-7.8 8.9-1.7 17.9-2.7 27-2.9 9.3-.2 18.6.4 27.4 1.1l2.2.2c8.4.6 17 1.3 25.6 1.2 19.8.1 39.2-6.2 55.1-17.9 8.7-6.1 17.6-14.1 27.4-24.4 9.5-10 18.9-21.3 27.7-32 2.6-3.2 5.3-6.5 7.9-9.7 6.4-7.9 13-16 19.6-23.8C697.1 16 706 6.2 714.5-2.6c8.9-9 18-17.5 27.1-25.3 8.5-7.2 17.5-14.1 27.3-21.1 8.2-5.9 17.2-11.8 27.4-18.3 7.9-5 16.3-10.2 27.4-16.8 9.1-5.5 18.3-10.8 27.4-16.2 9.1-5.3 18.2-10.6 27.4-15.9l29.2-16.9c8.5-4.9 17.1-9.8 25.6-14.8l27.5-15.9 27.6-15.9 56-32.3 27-15.6 198.7-114.7c.6-.3.8-1.1.5-1.7-.3-.6-1.1-.8-1.7-.5l-198.8 114.7-27 15.6-56 32.3-27.6 15.9-27.5 15.9c-8.5 4.9-17.1 9.8-25.6 14.8l-29.2 16.9c-9.1 5.3-18.3 10.6-27.4 15.9-9.1 5.3-18.3 10.7-27.4 16.2-11.1 6.6-19.6 11.8-27.5 16.8-10.2 6.5-19.2 12.5-27.5 18.4-9.9 7-18.9 14-27.5 21.3-9.2 7.8-18.4 16.3-27.3 25.4-8.6 8.8-17.5 18.7-27.3 30.3-6.6 7.8-13.2 16-19.7 23.9-2.6 3.3-5.3 6.5-7.9 9.7-8.8 10.7-18.2 22-27.6 31.9-9.7 10.2-18.5 18.1-27 24.1-15.5 11.5-34.4 17.6-53.7 17.5-8.5.1-17-.5-25.3-1.2l-2.2-.2c-8.8-.7-18.3-1.3-27.7-1.1-9.2.2-18.4 1.2-27.4 2.9-9.3 1.9-18.5 4.5-27.5 7.9-8.3 3-17.3 6.9-27.5 11.8-8.2 3.9-16.9 8.4-27.5 14.1-9.9 5.3-19.9 10.9-27.5 15.2-9.1 5.2-18.3 10.4-27.4 15.6l-34.9 20.1c-6.6 3.8-13.3 7.7-19.9 11.5-9.1 5.3-18.3 10.5-27.4 15.8L165.1 293c-9.1 5.3-18.3 10.5-27.4 15.8l-27.4 15.8-19.2 11.1L48 360.6c-6.6 3.8-13.2 7.7-19.9 11.5L2.5 386.9c-.6.3-.8 1.1-.4 1.7.2.4.6.6 1.1.6.2 0 .4-.1.6-.2zm0 44.8 64.4-37.2c9.1-5.3 18.3-10.6 27.4-15.8L123 365c9.1-5.3 18.3-10.5 27.4-15.8l27.4-15.8c6.6-3.8 13.2-7.7 19.9-11.5l89.7-51.8c6.4-3.7 12.7-7.4 19.1-11l8.3-4.8c9.1-5.3 18.3-10.6 27.4-15.8l5.4-3.1 21.9-12.6.5-.3c9-5.1 17.9-10.3 26.9-15.3 11.1-6.3 19.5-11 27.4-15.2 10.5-5.7 19.2-10.2 27.4-14.1 10.1-4.9 19-8.8 27.3-11.8 8.8-3.3 17.9-6 27.1-8 8.9-1.8 17.9-2.9 27-3.1 9.1-.1 18.3.2 27.4 1l3.5.3c7.9.6 16.1 1.3 24.2 1.2 9.4.1 18.7-1.1 27.7-3.6 9.8-2.9 19-7.4 27.4-13.2 8.6-5.9 17.6-13.7 27.4-23.9 9.8-10.2 19.5-21.8 27.7-31.8 3.1-3.8 6.3-7.7 9.5-11.6 5.9-7.3 12-14.8 18.1-22 9.9-11.8 18.8-21.8 27.2-30.5 8.8-9.1 17.9-17.7 27.1-25.6 8.4-7.2 17.4-14.2 27.3-21.4 8.3-5.9 17-11.8 27.4-18.4 7.9-5.1 16.4-10.3 27.4-16.9 9.1-5.5 18.3-10.8 27.4-16.2s18.3-10.6 27.4-15.9l28.6-16.6c8.7-5 17.5-10.1 26.2-15.1 9.1-5.3 18.3-10.6 27.5-15.9l91.1-52.6 19.5-11.3 22.7-13.1c53.1-30.7 106.3-61.4 159.5-92.1l55.4-32c.6-.3.8-1.1.5-1.7-.3-.6-1.1-.8-1.7-.5l-55.4 32c-53.1 30.7-106.3 61.4-159.5 92.1l-22.7 13.1-19.5 11.3-91.1 52.6c-9.2 5.3-18.3 10.6-27.5 15.9-8.8 5-17.5 10.1-26.2 15.1L916-95.7c-9.1 5.3-18.3 10.6-27.4 15.9-9.1 5.3-18.3 10.7-27.4 16.2-11 6.6-19.5 11.8-27.5 16.9-10.5 6.7-19.2 12.6-27.5 18.5-10 7.2-19 14.2-27.5 21.5-9.2 7.9-18.4 16.6-27.3 25.8-8.5 8.8-17.5 18.8-27.3 30.6C718 57 711.9 64.5 706 71.8c-3.2 3.9-6.3 7.8-9.5 11.6-8.2 10-17.9 21.5-27.6 31.6-9.7 10.1-18.6 17.8-27.1 23.6-8.1 5.7-17.1 10-26.6 12.9-8.8 2.5-17.9 3.6-27 3.5h-.5c-7.9 0-15.8-.6-23.6-1.2l-3.5-.3c-8.7-.7-18.1-1.2-27.7-1-9.2.2-18.4 1.3-27.4 3.2-9.3 2-18.5 4.7-27.5 8.1-8.3 3.1-17.3 7-27.5 11.9-8.2 4-17 8.5-27.5 14.2-7.9 4.3-16.3 8.9-27.4 15.2-9 5.1-17.9 10.2-26.9 15.3l-.5.3-21.9 12.6-5.4 3.1c-9.1 5.3-18.3 10.5-27.4 15.8l-8.3 4.8c-6.4 3.7-12.7 7.4-19.1 11l-89.7 51.8c-6.6 3.8-13.2 7.7-19.9 11.5L149.1 347c-9.1 5.3-18.2 10.6-27.4 15.8l-27.4 15.8c-9.1 5.3-18.3 10.5-27.4 15.8L2.5 431.6c-.6.3-.8 1.1-.4 1.7.2.4.6.6 1.1.6.2 0 .4 0 .6-.1zm0 44.8 55.7-32.2c6.7-3.9 13.4-7.7 20-11.6L107 419c6.6-3.8 13.3-7.7 19.9-11.5l34.9-20.1c9.1-5.3 18.3-10.5 27.4-15.8l27.4-15.8c9.1-5.3 18.3-10.6 27.4-15.8l82.2-47.5c9.1-5.3 18.3-10.6 27.4-15.8 6.7-3.9 13.4-7.7 20-11.6l8.9-5.1c8.6-5 17.3-9.9 25.9-14.9 9.1-5.2 18.3-10.5 27.4-15.6 11-6.2 19.5-10.9 27.4-15.3 10.7-5.8 19.4-10.3 27.4-14.2 10-4.9 18.9-8.8 27.3-12 8.8-3.4 17.9-6.2 27.1-8.2 8.9-1.9 17.9-3 27-3.4 9.1-.2 18.3.1 27.4.9l5.1.4c7.4.6 15 1.2 22.6 1.3 9.3.2 18.7-.8 27.7-3.1 9.7-2.7 19-6.9 27.4-12.5 8.8-5.8 17.7-13.4 27.4-23.3 10.1-10.2 20.1-22.2 27.7-31.5 3.9-4.7 7.7-9.4 11.6-14.2 5.3-6.5 10.6-13.1 16-19.6 10-12 19-22.1 27.2-30.8 9-9.4 18.1-18.2 27.1-26 8.5-7.4 17.5-14.5 27.3-21.6 8.3-6 17.2-12.1 27.4-18.6 8-5.1 16.7-10.5 27.4-16.9 9.7-5.8 19.3-11.5 27.4-16.2 8.9-5.2 17.9-10.4 26.8-15.6l.6-.3c9.1-5.3 18.2-10.6 27.4-15.8 9.1-5.3 18.3-10.6 27.4-15.8 9.1-5.3 18.3-10.6 27.5-15.9L1122-167l27-15.6 22.6-13.1c84.6-48.8 169.1-97.6 253.7-146.4.6-.3.8-1.1.5-1.7-.3-.6-1.1-.8-1.7-.5-84.6 48.8-169.1 97.6-253.7 146.5l-22.6 13.1-27 15.6-83.6 48.3c-9.1 5.3-18.3 10.6-27.5 15.9-9.1 5.3-18.3 10.5-27.4 15.8-9.1 5.3-18.3 10.6-27.4 15.9l-.6.3c-8.9 5.2-17.9 10.4-26.8 15.6-8.1 4.7-17.7 10.4-27.4 16.2-10.7 6.4-19.5 11.8-27.5 17-10.2 6.5-19.2 12.6-27.5 18.7-9.9 7.2-18.9 14.3-27.5 21.8-9.1 7.8-18.2 16.6-27.3 26.1C782 51 773 61.2 762.9 73.2c-5.4 6.5-10.7 13.1-16 19.6-3.9 4.8-7.7 9.5-11.6 14.2-7.6 9.2-17.6 21.2-27.6 31.3-9.6 9.8-18.4 17.3-27 23-8.2 5.5-17.2 9.6-26.6 12.2-8.8 2.3-17.9 3.3-27.1 3-7.5 0-15.1-.7-22.4-1.3l-5.1-.4c-9.2-.8-18.4-1.1-27.7-.9-9.2.3-18.4 1.5-27.4 3.4-9.4 2.1-18.5 4.8-27.5 8.3-8.5 3.2-17.5 7.2-27.5 12.1-8 3.9-16.7 8.4-27.5 14.2-8 4.3-16.4 9-27.5 15.3-9.1 5.2-18.3 10.4-27.4 15.6-8.6 4.9-17.3 9.9-25.9 14.9l-8.9 5.1c-6.7 3.9-13.4 7.7-20 11.6-9.1 5.3-18.3 10.5-27.4 15.8l-82.2 47.5c-9.1 5.3-18.3 10.5-27.4 15.8l-27.4 15.8c-9.1 5.3-18.3 10.6-27.4 15.8l-34.9 20.1c-6.6 3.8-13.3 7.7-19.9 11.5l-27.4 15.8c-6.7 3.9-13.4 7.7-20 11.6L2.5 476.4c-.6.3-.8 1.1-.4 1.7.2.4.6.6 1.1.6.2 0 .4-.1.6-.2v.1zm0 44.7 32.4-18.7c6.6-3.8 13.3-7.7 19.9-11.5l89.6-51.8c9.1-5.3 18.3-10.6 27.4-15.8l27.4-15.8c9.1-5.3 18.3-10.5 27.4-15.8l27.4-15.8c6.5-3.8 13.1-7.6 19.6-11.3l43.4-25 19.2-11.1 90.9-52.5c6.2-3.6 12.5-7.2 18.7-10.8 9.1-5.2 18.3-10.5 27.4-15.6 10.7-6.1 19.4-10.9 27.4-15.3 10.7-5.8 19.4-10.4 27.4-14.3 10.2-5 19.2-9 27.3-12.1 8.8-3.5 17.9-6.3 27.1-8.4 8.9-2 17.9-3.2 27-3.6 9.1-.3 18.3 0 27.4.8 2.3.2 4.5.3 6.8.5 6.8.6 13.9 1.1 20.9 1.3 9.3.4 18.6-.5 27.7-2.6 9.7-2.4 19-6.5 27.4-11.9 8.8-5.6 17.8-13 27.5-22.7 10.1-10.1 20.1-22 27.7-31.2 4.2-5.1 8.5-10.4 12.7-15.6 4.9-6.1 9.9-12.2 14.9-18.2 10.1-12.2 19-22.3 27.2-31.1 8.9-9.4 18-18.3 27.1-26.3 8.7-7.6 17.6-14.8 27.3-21.9 8.2-6 17.2-12.2 27.4-18.7 7.9-5.1 16.7-10.5 27.4-17 8.1-4.9 16.8-10 27.4-16.2 9.1-5.4 18.3-10.7 27.4-15.9 9.1-5.3 18.3-10.6 27.4-15.8l27.4-15.8c9.1-5.3 18.3-10.6 27.5-15.9l89.9-51.9c6.9-4 13.8-8 20.7-11.9l315.2-182c.6-.3.8-1.1.5-1.7-.3-.6-1.1-.8-1.7-.4l-292.5 168.8-22.7 13.1c-6.9 4-13.8 8-20.7 11.9L1076-98.5c-9.2 5.3-18.3 10.6-27.5 15.9l-27.4 15.8c-9.1 5.3-18.3 10.6-27.4 15.9-9.1 5.3-18.3 10.6-27.4 15.9-10.6 6.2-19.3 11.4-27.4 16.2-10.8 6.5-19.5 11.9-27.5 17C901.1 4.8 892.1 11 883.9 17c-9.8 7.2-18.8 14.4-27.5 22-9.2 8.1-18.4 17-27.3 26.5-8.3 8.8-17.2 19-27.3 31.2-5 6.1-10 12.2-14.9 18.3-4.3 5.2-8.5 10.5-12.7 15.6-7.6 9.2-17.5 21-27.6 31-9.6 9.6-18.4 16.9-27 22.4-8.2 5.3-17.2 9.2-26.6 11.6-8.9 2.1-18 2.9-27.1 2.6-6.9-.1-14-.7-20.8-1.3-2.3-.2-4.5-.4-6.8-.5-9.2-.8-18.4-1-27.7-.8-9.2.4-18.4 1.6-27.4 3.6-9.4 2.2-18.5 5-27.5 8.5-8.2 3.2-17.2 7.2-27.5 12.2-8 3.9-16.7 8.5-27.5 14.3-8 4.3-16.7 9.2-27.4 15.3-9.1 5.2-18.3 10.4-27.4 15.7-6.2 3.6-12.5 7.2-18.7 10.8l-90.9 52.5-19.2 11.1-43.4 25c-6.5 3.8-13.1 7.5-19.6 11.3l-27.4 15.8c-9.1 5.3-18.3 10.6-27.4 15.8l-27.4 15.8c-9.1 5.3-18.3 10.5-27.4 15.8L54.9 491c-6.6 3.8-13.3 7.7-19.9 11.5L2.5 521.2c-.6.3-.8 1.1-.4 1.7.2.4.6.6 1.1.6.2 0 .4-.1.6-.2zm0 44.8 133.3-77c6.7-3.9 13.4-7.7 20-11.6l27.4-15.8c7-4.1 14.1-8.1 21.2-12.2l33.6-19.4c9.1-5.3 18.3-10.5 27.4-15.8l27.4-15.8c9.1-5.3 18.3-10.6 27.4-15.8 6.8-3.9 13.6-7.9 20.4-11.8l61.8-35.7c9.1-5.3 18.3-10.6 27.4-15.8 6.7-3.9 13.4-7.7 20-11.6l34.7-20c9.1-5.2 18.3-10.5 27.4-15.6 8.3-4.7 18-10.1 27.4-15.3 10.8-5.9 19.5-10.4 27.4-14.3 10.1-5 19.1-9 27.3-12.2 8.8-3.5 17.9-6.4 27.1-8.6 8.9-2.1 17.9-3.3 27-3.7 9.1-.3 18.3-.1 27.4.7 2.6.2 5.3.4 7.9.6 6.5.5 13.2 1.1 19.8 1.3 9.3.4 18.6-.4 27.7-2.3 9.7-2.3 19-6.2 27.4-11.4 8.7-5.4 18-12.9 27.5-22.3 8-7.9 16.6-17.5 27.7-31 4.7-5.7 9.4-11.5 14.2-17.4 4.4-5.5 8.9-11 13.4-16.5 10.4-12.6 19.1-22.6 27.2-31.3 8.9-9.5 18-18.5 27.1-26.6 8.6-7.6 17.5-14.8 27.3-22.1 8.3-6.2 17.3-12.3 27.4-18.8 7.9-5.1 16.3-10.4 27.4-17.1 9.7-5.8 19.3-11.5 27.4-16.2 9.1-5.3 18.2-10.7 27.4-15.9 9.1-5.3 18.3-10.6 27.4-15.8 9.1-5.3 18.3-10.6 27.4-15.8 9.1-5.3 18.3-10.6 27.5-15.9l83.6-48.3 27-15.6 22.6-13.1 304.5-175.8 26.7-15.4c.6-.3.8-1.1.5-1.7-.3-.6-1.1-.8-1.7-.5l-26.7 15.4-304.5 175.8-22.6 13.1-27 15.6-83.6 48.3c-9.1 5.3-18.3 10.6-27.5 15.9-9.1 5.3-18.3 10.6-27.4 15.8-9.1 5.3-18.3 10.5-27.4 15.8-9.1 5.3-18.3 10.6-27.4 15.9-8 4.5-17.6 10.2-27.3 16-11.1 6.7-19.6 12-27.5 17.1-10.1 6.5-19.1 12.8-27.5 18.9-9.9 7.3-18.9 14.6-27.5 22.2-9.2 8.1-18.4 17.1-27.3 26.7-8.2 8.8-16.9 18.8-27.3 31.5-4.5 5.5-9 11-13.4 16.5-4.7 5.9-9.5 11.7-14.2 17.4-11.1 13.4-19.6 23-27.6 30.8-9.4 9.3-18.4 16.7-27 22-8.2 5.1-17.2 8.9-26.6 11.1-8.9 1.9-18 2.7-27.1 2.2-6.5-.2-13.2-.7-19.7-1.3-2.6-.2-5.3-.4-7.9-.6-9.2-.8-18.5-1-27.7-.7-9.2.4-18.4 1.7-27.4 3.8-9.4 2.2-18.5 5.1-27.5 8.7-8.3 3.3-17.3 7.3-27.5 12.3-7.9 3.9-16.7 8.5-27.5 14.4-9.5 5.2-19.1 10.6-27.5 15.3-9.1 5.2-18.3 10.4-27.4 15.7l-34.7 20c-6.7 3.9-13.4 7.7-20 11.6-9.1 5.3-18.3 10.5-27.4 15.8l-61.8 35.7c-6.8 3.9-13.6 7.8-20.4 11.8-9.1 5.3-18.3 10.5-27.4 15.8L265.5 414c-9.1 5.3-18.3 10.6-27.4 15.8l-33.6 19.4c-7 4.1-14.1 8.1-21.2 12.2l-27.4 15.8c-6.7 3.9-13.4 7.7-20 11.6L2.6 566c-.6.3-.8 1.1-.4 1.7.2.4.6.6 1.1.6.1 0 .3-.1.5-.2zm0 89.6 11.8-6.8L43 635.1c9.1-5.3 18.3-10.6 27.4-15.8l27.4-15.8c9.1-5.3 18.3-10.5 27.4-15.8L180 556c9.1-5.3 18.3-10.6 27.4-15.8l54.8-31.6c6.6-3.8 13.3-7.7 19.9-11.5l199.2-115c9.1-5.3 18.3-10.6 27.4-15.8 6.7-3.9 13.4-7.7 20-11.6l34.7-20c9.1-5.2 18.3-10.5 27.4-15.6 10.8-6.1 19.5-11 27.4-15.3 10.6-5.8 19.3-10.3 27.4-14.3 10.1-5 19-9 27.3-12.2 8.8-3.5 17.9-6.4 27.1-8.6 8.9-2.1 17.9-3.3 27-3.7 9.1-.3 18.3-.1 27.4.7 2.7.2 5.4.4 8 .7 6.4.6 13.1 1.1 19.7 1.4 9.3.5 18.6-.3 27.7-2.2 9.7-2.2 18.9-6 27.4-11.2 8.8-5.4 17.8-12.6 27.5-22.2 8.1-8 16.7-17.6 27.7-31 4.9-6 9.8-12.1 14.8-18.2 4.2-5.3 8.5-10.6 12.8-15.8 10.4-12.7 19.1-22.7 27.2-31.5 8.9-9.6 18-18.6 27.1-26.7 8.6-7.7 17.5-14.9 27.3-22.2 8.2-6.1 17.1-12.3 27.4-18.9 7.9-5.1 16.6-10.6 27.4-17.1 8.6-5.2 17.2-10.3 27.4-16.3 9.1-5.4 18.3-10.7 27.4-15.9 9.1-5.3 18.3-10.6 27.4-15.9 5.9-3.4 11.9-6.9 17.8-10.3l542.8-313.3c.6-.3.8-1.1.4-1.7-.3-.6-1.1-.8-1.7-.4L1155.3-9.9c-5.9 3.4-11.9 6.8-17.8 10.3-9.1 5.3-18.3 10.6-27.4 15.9-9.1 5.3-18.3 10.6-27.4 15.9-10.2 6-18.8 11-27.4 16.3-10.8 6.5-19.5 12-27.5 17.1-10.3 6.7-19.3 12.9-27.5 19-9.9 7.3-18.9 14.6-27.5 22.3-9.1 8.2-18.3 17.2-27.3 26.9-8.2 8.8-16.9 18.9-27.3 31.6-4.3 5.2-8.6 10.5-12.8 15.8-4.9 6.2-9.9 12.3-14.8 18.2-8.7 10.7-17.9 21-27.6 30.8-9.5 9.4-18.3 16.5-27 21.8-8.2 5.1-17.2 8.8-26.6 10.9-8.9 1.9-18 2.6-27.1 2.1-6.5-.2-13.1-.8-19.5-1.4-2.7-.2-5.4-.5-8.1-.7-9.2-.8-18.5-1-27.7-.7-9.2.4-18.4 1.7-27.4 3.8-9.4 2.2-18.5 5.1-27.5 8.7-8.3 3.3-17.3 7.3-27.5 12.3-8.1 4-16.9 8.6-27.5 14.4-7.9 4.3-16.7 9.2-27.5 15.3-9.1 5.2-18.3 10.4-27.4 15.6l-34.7 20c-6.7 3.9-13.4 7.7-20.1 11.6-9.1 5.3-18.3 10.5-27.4 15.8l-199.2 115c-6.6 3.8-13.3 7.7-19.9 11.5l-54.8 31.6c-9.1 5.3-18.3 10.5-27.4 15.8L124 585.5c-9.1 5.3-18.3 10.6-27.4 15.8l-27.4 15.8c-9.1 5.3-18.3 10.5-27.4 15.8l-27.4 15.8-11.8 6.8c-.6.3-.8 1.1-.4 1.7.2.4.6.6 1.1.6.1.1.3 0 .5-.1zm0 44.8 78-45c6.8-3.9 13.6-7.9 20.4-11.8l40.7-23.5c7-4.1 14.1-8.1 21.2-12.2l54.8-31.6c6.6-3.8 13.3-7.7 19.9-11.5l89.7-51.8c9.1-5.3 18.3-10.6 27.4-15.8l82.2-47.5c9.1-5.3 18.3-10.6 27.4-15.8l118.3-68.3c6.2-3.6 12.4-7.2 18.6-10.7 9.1-5.2 18.3-10.4 27.4-15.6 10.1-5.7 19-10.7 27.4-15.3 10-5.5 19-10.1 27.4-14.2 10.2-4.9 19.1-8.9 27.3-12 8.8-3.4 17.9-6.2 27.1-8.3 8.9-1.9 17.9-3.1 27-3.4 9.1-.2 18.3.1 27.4.9 2.2.2 4.5.4 6.7.6 6.8.6 13.9 1.2 20.9 1.4 9.3.4 18.6-.5 27.7-2.6 9.7-2.4 19-6.4 27.4-11.8 8.8-5.5 17.8-13 27.5-22.7 8-8 16.5-17.6 27.7-31.2 4.4-5.4 8.9-11 13.4-16.5 4.7-5.8 9.4-11.7 14.2-17.5 10.4-12.6 19-22.5 27.2-31.3 8.9-9.5 18-18.5 27.1-26.5 8.6-7.6 17.5-14.8 27.3-22.1 8.4-6.2 17.3-12.3 27.4-18.8 8.1-5.2 16.8-10.7 27.4-17.1 9.5-5.7 18.8-11.2 27.4-16.3 9.1-5.3 18.3-10.7 27.4-15.9l27.4-15.8c5.9-3.4 11.9-6.9 17.8-10.3L1343-70.7c7.5-4.4 15.1-8.7 22.7-13.1l333.7-192.6c.6-.3.8-1.1.4-1.7-.3-.6-1.1-.8-1.7-.4L1364.4-85.9c-7.6 4.4-15.1 8.7-22.7 13.1L1194 12.5c-5.9 3.4-11.9 6.8-17.8 10.3l-27.4 15.8c-9.1 5.3-18.3 10.6-27.4 15.9-8.6 5.1-17.9 10.5-27.4 16.3-10.6 6.4-19.4 11.8-27.5 17.1-10.1 6.5-19.1 12.7-27.5 18.9-9.9 7.3-18.9 14.6-27.5 22.2-9.1 8.1-18.3 17.1-27.3 26.7-8.3 8.8-17 18.8-27.3 31.5-4.8 5.8-9.5 11.6-14.2 17.5-4.5 5.6-8.9 11.1-13.4 16.5-11.1 13.5-19.7 23.1-27.6 31.1-9.6 9.6-18.4 16.9-27 22.3-8.2 5.3-17.2 9.1-26.6 11.5-8.9 2-18 2.9-27.1 2.5-6.9-.1-14-.8-20.8-1.3-2.2-.2-4.5-.4-6.8-.6-9.2-.8-18.4-1.1-27.7-.9-9.2.3-18.4 1.5-27.4 3.5-9.3 2.1-18.5 4.9-27.5 8.4-8.3 3.1-17.3 7.1-27.5 12.1-8.4 4.1-17.4 8.8-27.5 14.3-8.4 4.5-17.4 9.5-27.4 15.3-9.1 5.2-18.3 10.4-27.4 15.6-6.2 3.6-12.4 7.1-18.6 10.7L464.1 434c-9.1 5.3-18.3 10.5-27.4 15.8l-82.2 47.5c-9.1 5.3-18.3 10.5-27.4 15.8l-89.7 51.8c-6.6 3.8-13.3 7.7-19.9 11.5L162.7 608c-7 4.1-14.1 8.1-21.2 12.2l-40.7 23.5c-6.8 3.9-13.6 7.8-20.4 11.8l-78 45c-.6.3-.8 1.1-.4 1.7.2.4.6.6 1.1.6.3-.1.5-.2.7-.3zm.1 44.7c2.2-1.3 4.5-2.6 6.8-3.9l27.6-15.9 27.5-15.9c9.1-5.3 18.3-10.6 27.4-15.8l82.2-47.5c9.1-5.3 18.3-10.5 27.4-15.8l54.8-31.6c9.1-5.3 18.3-10.6 27.4-15.8l273.9-158.2 17-9.8 37.8-21.8c9.1-5.3 18.3-10.5 27.4-15.7 9.1-5.2 18.3-10.4 27.4-15.6 8.1-4.5 17.7-9.9 27.4-15.1 10.6-5.7 19.3-10.1 27.4-13.9 9.9-4.7 18.8-8.5 27.3-11.5 8.8-3.2 17.9-5.7 27.1-7.6 8.9-1.7 17.9-2.6 27-2.7 9.6-.2 19.2.5 27.4 1.2l3.4.3c8 .6 16.3 1.3 24.3 1.3 9.4.1 18.7-1.2 27.7-3.7 9.7-2.9 19-7.4 27.4-13.2 8.7-5.9 17.6-13.7 27.4-23.8 10-10.4 20.1-22.4 27.7-31.8 3.6-4.4 7.2-8.9 10.9-13.4 5.4-6.7 11.1-13.7 16.7-20.4 9.9-12 18.8-22.1 27.2-30.9 8.9-9.3 18-18.1 27.1-26 8.6-7.5 17.5-14.6 27.3-21.7 8.2-6 16.9-11.9 27.4-18.6 7.9-5.1 16.4-10.3 27.4-17 7.9-4.8 16.4-9.8 27.4-16.2 7.9-4.6 15.7-9.2 23.6-13.7l3.8-2.2c9.1-5.3 18.3-10.6 27.4-15.8 9.1-5.3 18.3-10.6 27.4-15.8l111.1-64.1 27-15.6 317.5-183.3c.6-.3.8-1.1.4-1.7-.3-.6-1.1-.8-1.7-.4l-317.3 183-27 15.6-111.1 64.1c-9.1 5.3-18.3 10.6-27.4 15.8-9.1 5.3-18.3 10.5-27.4 15.8l-3.8 2.2c-7.9 4.6-15.7 9.1-23.6 13.7-11 6.5-19.5 11.5-27.4 16.2-11 6.6-19.5 11.9-27.5 17-10.5 6.7-19.2 12.7-27.5 18.7-9.9 7.2-18.8 14.3-27.5 21.8-9.2 8-18.4 16.8-27.3 26.2-8.4 8.9-17.4 19-27.3 31-5.6 6.7-11.2 13.7-16.7 20.5-3.6 4.5-7.3 9-10.9 13.4-7.6 9.3-17.6 21.3-27.6 31.6-9.7 10-18.5 17.7-27 23.5-8.2 5.7-17.1 10-26.6 12.8-8.8 2.5-17.9 3.7-27 3.6-8 0-16.2-.6-24.1-1.3l-3.4-.3c-8.3-.7-18-1.4-27.6-1.2-9.2.1-18.4 1.1-27.4 2.8-9.3 1.9-18.5 4.4-27.5 7.7-8.6 3.1-17.5 6.9-27.5 11.6-8.2 3.9-16.9 8.3-27.5 14-9.7 5.2-19.3 10.6-27.5 15.1-9.1 5.1-18.3 10.3-27.4 15.6-9.1 5.2-18.3 10.5-27.4 15.7l-37.8 21.8-17 9.8-274.1 158.4c-9.1 5.3-18.3 10.5-27.4 15.8l-54.8 31.6c-9.1 5.3-18.3 10.6-27.4 15.8L92 693.5c-9.1 5.3-18.3 10.5-27.4 15.8l-27.5 15.9-27.6 15.9c-2.2 1.3-4.5 2.6-6.8 3.9h-.1c-.6.3-.8 1-.4 1.6.2.4.6.6 1.1.6.2.2.4.1.6 0zm-.1 44.9c5.9-3.4 11.9-6.8 17.8-10.3l36.2-20.9c6.4-3.7 12.9-7.4 19.3-11.1l27.5-15.9c9.1-5.3 18.3-10.6 27.4-15.8 9.1-5.3 18.3-10.6 27.4-15.8l62.6-36.1c6.5-3.8 13.1-7.5 19.6-11.3l54.8-31.6c6.6-3.8 13.3-7.7 19.9-11.5l89.6-51.8c9.1-5.3 18.3-10.6 27.4-15.8l219.2-126.5c9.1-5.3 18.3-10.5 27.4-15.7 11-6.3 19.5-11 27.4-15.5 10.1-5.6 19.1-10.5 27.4-14.8 10.1-5.3 19.1-9.7 27.4-13.4 8.9-4 18-7.6 27.3-10.6 8.8-2.9 17.9-5 27.1-6.4 8.9-1.3 18-1.9 27-1.7 8.1.1 16.3.7 24.1 1.3l3.3.2c9.2.8 18.5 1 27.8.6 9.5-.5 18.8-2.4 27.7-5.7 9.8-3.8 19-9 27.3-15.5 9.9-7.7 19-16.3 27.4-25.6 9.6-10.4 19.3-22.2 27.7-32.5l5.4-6.6c7.2-8.9 14.7-18.1 22.2-27 9.8-11.6 18.7-21.4 27.2-30 8.7-8.9 17.8-17.4 27.1-25.1 8.4-7.1 17.4-14 27.3-21.1 8.3-5.9 17-11.7 27.4-18.3 8-5 16.7-10.4 27.4-16.8 9.9-5.9 19.8-11.7 27.4-16.1 9.1-5.3 18.3-10.6 27.4-15.9 9.1-5.3 18.3-10.6 27.4-15.9l165.5-95.5c7.5-4.4 15.1-8.7 22.7-13.1l256.1-147.9c.6-.3.8-1.1.4-1.7s-1.1-.8-1.7-.4L1442-41.1c-7.6 4.4-15.1 8.7-22.7 13.1l-165.5 95.5c-9.1 5.3-18.3 10.6-27.4 15.9-9.1 5.3-18.3 10.6-27.4 15.9-7.6 4.4-17.5 10.2-27.4 16.1-10.7 6.4-19.5 11.8-27.5 16.8-10.5 6.6-19.2 12.5-27.5 18.3-10 7.1-19 14.1-27.5 21.2-9.3 7.8-18.5 16.4-27.3 25.3-8.6 8.7-17.5 18.5-27.4 30.2-7.5 8.8-15 18.1-22.2 27l-5.4 6.6c-8.3 10.2-18 22-27.6 32.4-8.3 9.2-17.4 17.6-27.1 25.3-8.1 6.3-17.1 11.4-26.7 15.1-8.7 3.2-17.8 5-27 5.5-9.2.6-18.2 0-27.5-.6l-3.3-.2c-7.9-.6-16.1-1.2-24.3-1.3-9.2-.1-18.3.4-27.4 1.7-9.3 1.4-18.5 3.6-27.5 6.5-9.4 3-18.6 6.6-27.5 10.7-8.3 3.7-17.3 8.1-27.5 13.4-8.4 4.3-17.3 9.2-27.4 14.9-7.9 4.4-16.4 9.2-27.4 15.5-9.1 5.2-18.3 10.5-27.4 15.7L432.1 541.9c-9.1 5.3-18.3 10.5-27.4 15.8L315 609.5c-6.6 3.8-13.3 7.7-19.9 11.5l-54.8 31.6c-6.5 3.8-13.1 7.6-19.6 11.3L158.1 700c-9.1 5.3-18.3 10.5-27.4 15.8-9.1 5.3-18.3 10.5-27.4 15.8l-27.5 15.9c-6.4 3.7-12.9 7.4-19.3 11.1l-36.2 20.9c-5.9 3.4-11.9 6.8-17.8 10.3-.6.3-.8 1.1-.4 1.7.2.4.6.6 1.1.6.2.1.4.1.6 0zm0 44.8 28.5-16.4 28.1-16.2c9.3-5.4 18.6-10.7 27.9-16.1l27.6-15.9 27.5-15.9c9.1-5.3 18.3-10.6 27.4-15.8L253 693c9.1-5.3 18.3-10.5 27.4-15.8l54.8-31.6c9.1-5.3 18.3-10.6 27.4-15.8l82.2-47.5c6.3-3.6 12.6-7.2 18.8-10.9l145.5-84c9.1-5.3 18.3-10.5 27.4-15.8 9.1-5.3 18.3-10.5 27.4-15.8 9.1-5.3 18.3-10.5 27.4-15.8 9.1-5.2 18.3-10.5 27.4-15.6 10.5-5.9 19.2-10.8 27.4-15.3 10.3-5.6 19.2-10.3 27.4-14.4 10.1-5 19-9.1 27.3-12.4 8.9-3.7 18-6.7 27.2-9.2 8.9-2.3 17.9-3.9 27.1-4.8 9-.8 18-.9 27-.5 4.6.2 9.2.5 13.7.8 4.6.3 9.2.6 13.8.8 9.3.5 18.6.2 27.9-1.1 9.7-1.4 19-4.4 27.8-8.7 9.8-5 19-11.3 27.3-18.7 9.7-8.7 18.9-17.9 27.4-27.8 8.7-9.9 17.6-20.8 26.1-31.3l1.5-1.9c8.8-10.8 18.2-22.2 27.6-32.9 9.2-10.5 18.4-20.2 27.2-28.7 8.6-8.3 17.7-16.4 27.1-23.9 8.4-6.7 17.3-13.3 27.3-20.2 8-5.5 16.7-11.1 27.4-17.8 8.4-5.2 17.4-10.7 27.4-16.6 9.1-5.4 18.3-10.8 27.4-16.1 9.1-5.3 18.3-10.6 27.4-15.9 9.1-5.3 18.3-10.6 27.4-15.8l405.5-234c.6-.3.8-1.1.4-1.7s-1.1-.8-1.7-.4l-405.3 234c-9.1 5.3-18.3 10.6-27.4 15.8-9.1 5.3-18.3 10.6-27.4 15.9-9.1 5.3-18.3 10.7-27.4 16.1-10.1 6-19.1 11.4-27.5 16.6-10.8 6.7-19.5 12.4-27.5 17.9-10.1 6.9-19.1 13.6-27.5 20.3-9.5 7.6-18.6 15.7-27.3 24-8.9 8.6-18.1 18.3-27.3 28.8-9.4 10.7-18.8 22.1-27.6 32.9l-1.5 1.9c-8.6 10.5-17.4 21.3-26.1 31.2-10.1 11.5-19 20.5-27.1 27.6-8.1 7.2-17.1 13.4-26.7 18.3-8.5 4.2-17.6 7.1-27 8.5-9.1 1.2-18.3 1.6-27.4 1-4.5-.2-9.1-.5-13.7-.8s-9.2-.6-13.8-.8c-9.1-.4-18.3-.3-27.4.5-9.3.9-18.5 2.5-27.5 4.8-9.4 2.5-18.6 5.6-27.6 9.3-8.4 3.4-17.4 7.5-27.5 12.5-8.2 4.1-17.2 8.8-27.5 14.4-8.2 4.5-17 9.3-27.4 15.3-9.1 5.2-18.3 10.4-27.4 15.6-9.1 5.2-18.3 10.5-27.4 15.8-9.1 5.3-18.2 10.5-27.4 15.8-9.1 5.3-18.3 10.6-27.4 15.8l-145.5 84c-6.3 3.6-12.5 7.2-18.8 10.9l-82.2 47.5c-9.1 5.3-18.3 10.5-27.4 15.8l-54.8 31.6c-9.1 5.3-18.3 10.6-27.4 15.8L169.7 738c-9.1 5.3-18.3 10.5-27.4 15.8l-27.5 15.9-27.6 15.9c-9.3 5.4-18.6 10.7-27.9 16.1l-28.1 16.2-27 15.6-1.5.8c-.6.3-.8 1.1-.5 1.7.2.4.6.6 1.1.6.2.5.4.4.5.3zm0 44.8 17.6-10.2c5.4-3.1 10.8-6.3 16.2-9.4l14.2-8.2L71 842.8c6.6-3.8 13.1-7.6 19.7-11.4l70.4-40.6c7-4.1 14-8.1 21-12.1 9.1-5.3 18.3-10.6 27.4-15.8l89.7-51.8c6.6-3.8 13.2-7.7 19.9-11.5l17.7-10.2 37.1-21.4c6.9-4 13.9-8 20.9-12l88.7-51.2c9.1-5.3 18.3-10.6 27.4-15.8l191.8-110.7c9.1-5.3 18.3-10.5 27.4-15.7 9.1-5.2 18.3-10.4 27.4-15.5 10.6-5.9 19.3-10.6 27.4-14.9 10.2-5.3 19.2-9.8 27.4-13.5 9.8-4.5 18.7-8.1 27.3-11 8.9-3.1 18-5.5 27.2-7.3 8.9-1.7 18-2.6 27.1-2.8 9.4-.3 18.5.1 27.1.6l3 .1c8.1.4 16.4.8 24.6.6 9.4-.1 18.8-1.4 27.9-3.9 9.8-2.9 19.2-7.2 27.7-12.8 9.8-6.6 18.9-14.1 27.2-22.4 7.9-7.8 16.6-17.3 27.3-30.1 5.5-6.5 11-13.2 16.4-19.8 3.7-4.6 7.5-9.1 11.2-13.6 10.7-12.8 19.4-22.9 27.5-31.6 9.1-9.8 18.2-18.9 27.2-27 8.5-7.7 17.4-15.1 27.1-22.4 8.2-6.2 17.2-12.5 27.3-19.3 8.2-5.4 17.2-11 27.4-17.3 8-4.8 16.4-9.9 27.4-16.4 9.1-5.4 18.3-10.7 27.4-16 9.1-5.3 18.3-10.6 27.4-15.8l192.9-111.4c7.5-4.4 15.1-8.7 22.7-13.1l178.5-103.1c.6-.3.8-1.1.4-1.7s-1.1-.8-1.7-.4L1519.5 3.7c-7.6 4.3-15.1 8.7-22.7 13.1L1304 128.2c-9.1 5.3-18.3 10.6-27.4 15.9s-18.3 10.6-27.4 16c-11 6.5-19.5 11.5-27.4 16.4-10.3 6.3-19.3 12-27.5 17.4-10.2 6.8-19.2 13.1-27.5 19.3-9.8 7.4-18.7 14.8-27.3 22.6-9 8.2-18.2 17.3-27.4 27.1-8.2 8.8-16.9 18.9-27.6 31.7-3.8 4.5-7.5 9.1-11.3 13.7-5.4 6.5-10.9 13.3-16.4 19.8-10.7 12.7-19.3 22.2-27.2 29.9-8.2 8.2-17.2 15.6-26.8 22.1-8.3 5.5-17.5 9.7-27 12.5-8.9 2.4-18.1 3.7-27.3 3.8-8.1.2-16-.2-24.4-.6l-3-.1c-8.6-.4-17.8-.8-27.3-.6-9.2.3-18.4 1.2-27.5 2.9-9.4 1.8-18.6 4.2-27.6 7.4-8.7 3-17.7 6.6-27.5 11.1-8.3 3.8-17.3 8.2-27.5 13.6-8.1 4.3-16.8 9-27.4 14.9-9.1 5.1-18.3 10.3-27.4 15.5-9.1 5.2-18.2 10.4-27.4 15.7L509.7 586.8c-9.1 5.3-18.3 10.5-27.4 15.8l-88.7 51.2c-6.9 4-13.9 8-20.9 12l-37.1 21.4-17.7 10.2c-6.6 3.8-13.2 7.7-19.9 11.5l-89.7 51.8c-9.1 5.3-18.3 10.5-27.4 15.8-7 4-14 8.1-21 12.1l-70.3 40.6c-6.6 3.8-13.1 7.6-19.7 11.4l-19.2 11.1-14.2 8.3c-5.4 3.1-10.8 6.2-16.2 9.4L2.7 879.5c-.6.3-.8 1.1-.4 1.7.2.4.6.6 1.1.6.1 0 .3 0 .4-.1zm-1.9 45.9 58.4-33.7c7.5-4.4 15.1-8.7 22.7-13.1l27-15.6 28-16.2c9.3-5.4 18.6-10.7 27.9-16.1l27.6-15.9c9.1-5.3 18.3-10.6 27.5-15.9 9.1-5.3 18.3-10.6 27.4-15.8l82.2-47.5c9.1-5.3 18.3-10.5 27.4-15.8l54.8-31.6c9.1-5.3 18.3-10.6 27.4-15.8l82.2-47.5c6.6-3.8 13.3-7.7 19.9-11.5l42.2-24.3c6.7-3.9 13.4-7.7 20-11.6l82.2-47.4c9.1-5.3 18.3-10.5 27.4-15.8l9.4-5.4c6-3.4 12-6.9 18-10.3 9.1-5.2 18.3-10.4 27.4-15.6 10.2-5.7 19.2-10.7 27.4-15.1 10.1-5.4 19-10.1 27.4-14.1 10.1-4.9 19.1-8.9 27.3-12.2 8.9-3.6 18-6.6 27.3-9.1 8.9-2.3 18-4 27.2-5 9-.9 18.1-1.2 27.1-1 4.9.1 9.9.3 14.7.5 4.2.2 8.4.3 12.5.4 9.3.3 18.5-.1 27.7-1.2 9.7-1.3 19.1-4 28-8.1 9.9-4.7 19.2-10.6 27.7-17.6 9.7-8.1 18.7-16.8 27.1-26.2 9.1-9.9 18.1-20.7 27.3-31.8l4.3-5.2c7.6-9.2 15.5-18.8 23.4-27.9 9.8-11.4 18.9-21.2 27.5-29.9 8.7-8.8 17.9-17.2 27.2-25 8.5-7.1 17.3-13.9 27.1-20.9 8.2-5.8 17.1-11.8 27.3-18.3 9.9-6.3 19.8-12.3 27.4-16.9 8.6-5.1 17.6-10.5 27.4-16.2 7.9-4.6 15.7-9.2 23.6-13.7l386.5-223.2c.6-.3.8-1.1.4-1.7-.3-.6-1.1-.8-1.7-.4l-139.7 80.7-246.8 142.5c-7.9 4.6-15.7 9.1-23.6 13.7-9.9 5.8-18.9 11-27.5 16.2-7.6 4.6-17.6 10.6-27.5 16.9-10.3 6.5-19.3 12.6-27.5 18.4-9.9 7-18.8 13.9-27.3 21-9.4 7.9-18.6 16.3-27.4 25.1-8.7 8.8-17.8 18.6-27.7 30-7.8 9-15.7 18.6-23.4 27.9l-4.3 5.2c-9.2 11.1-18.2 21.8-27.2 31.7-8.3 9.3-17.3 17.9-26.9 25.9-8.3 6.9-17.4 12.7-27.1 17.3-8.7 3.9-17.9 6.6-27.3 7.9-9.1 1.1-18.2 1.5-27.3 1.2-4.1-.1-8.3-.2-12.5-.4-4.8-.2-9.8-.4-14.8-.5-9.2-.2-18.3.1-27.4 1-9.3 1-18.5 2.7-27.6 5-9.4 2.5-18.6 5.5-27.6 9.2-8.4 3.3-17.4 7.3-27.5 12.3-8.4 4.1-17.4 8.7-27.4 14.2-8.3 4.4-17.2 9.4-27.4 15.2-9.1 5.1-18.3 10.4-27.4 15.6-6 3.4-12 6.9-18 10.3l-9.4 5.4c-9.1 5.3-18.3 10.5-27.4 15.8l-82.2 47.4c-6.7 3.9-13.4 7.7-20 11.6L541 613.4c-6.6 3.8-13.3 7.7-19.9 11.5l-82.2 47.5c-9.1 5.3-18.3 10.5-27.4 15.8l-54.8 31.6c-9.1 5.3-18.3 10.6-27.4 15.8l-82.2 47.5c-9.1 5.3-18.3 10.5-27.4 15.8-9.1 5.3-18.3 10.6-27.5 15.9l-27.6 15.9c-9.3 5.4-18.6 10.7-27.9 16.1L108.6 863l-27 15.6c-7.6 4.3-15.1 8.7-22.7 13.1L.6 925.4c-.6.3-.8 1.1-.5 1.7.2.4.6.6 1.1.6.3 0 .5 0 .7-.1zm1.9 43.6c31.7-18.3 63.4-36.6 95.2-55 5.8-3.3 11.5-6.7 17.3-10l12.9-7.4 19.5-11.3 229-132.2c6.4-3.7 12.7-7.4 19.1-11l17-9.8 37.8-21.8c6.9-4 13.9-8 20.9-12l88.7-51.2c9.1-5.3 18.3-10.6 27.4-15.8 6.6-3.8 13.2-7.7 19.9-11.5l62.3-36 17-9.8 65.2-37.5c9.1-5.2 18.3-10.4 27.4-15.6 8-4.5 17.6-9.9 27.4-15.3 10.2-5.5 19.1-10.3 27.4-14.4 10-5.1 19-9.3 27.3-12.9 8.9-3.9 18-7.3 27.3-10.2 8.9-2.8 18-5 27.3-6.5 9-1.5 18.1-2.3 27.3-2.6 8.4-.3 16.9-.1 25.1.1h2.1c8.4.2 18 .4 27.3-.2 9.4-.5 18.8-2.2 27.8-4.9 9.9-3.2 19.3-7.7 27.9-13.4 9.9-6.7 19.1-14.3 27.6-22.7 7.9-7.7 16.5-17 27.1-29.4 6.1-7.1 12.2-14.5 18.2-21.7 3-3.6 6-7.3 9-10.9 10.8-12.9 19.6-22.9 27.6-31.7 9.2-10 18.5-19.3 27.5-27.6 8.7-7.9 17.8-15.6 27.2-22.9 8.2-6.3 17.1-12.7 27.1-19.5 8.1-5.4 16.8-11 27.4-17.5 8.2-5 17.2-10.5 27.4-16.5 9.1-5.4 18.3-10.8 27.4-16.1 9.1-5.3 18.3-10.6 27.4-15.9 7.1-4.1 14.3-8.3 21.4-12.4l198.9-114.8c7.5-4.4 15.1-8.7 22.6-13.1L1699.3-8c.6-.3.8-1.1.4-1.7-.3-.6-1.1-.8-1.7-.4l-101 58.3c-7.5 4.3-15.1 8.7-22.6 13.1l-198.9 114.8c-7.1 4.1-14.3 8.2-21.4 12.4-9.1 5.3-18.3 10.6-27.4 15.9-9.1 5.3-18.3 10.7-27.4 16.1-10.3 6.1-19.3 11.5-27.5 16.5-10.6 6.5-19.3 12.1-27.4 17.6-10.1 6.8-19 13.2-27.3 19.5-9.5 7.3-18.7 15-27.4 23-9 8.3-18.4 17.6-27.7 27.7-8.1 8.8-16.9 18.8-27.7 31.8-3 3.6-6 7.2-9.1 10.9-6 7.2-12.1 14.6-18.2 21.7-10.6 12.3-19.1 21.6-26.9 29.2-8.3 8.3-17.4 15.8-27.2 22.4-8.5 5.6-17.6 10-27.3 13.1-8.9 2.7-18 4.3-27.2 4.8-9.2.6-18.7.4-27.1.2h-2.1c-8.3-.2-16.8-.3-25.3-.1-9.2.3-18.5 1.1-27.6 2.6-9.3 1.6-18.6 3.8-27.6 6.6-9.4 2.9-18.6 6.4-27.6 10.3-8.4 3.6-17.4 7.8-27.5 12.9-8.3 4.2-17.3 8.9-27.5 14.5-9.8 5.3-19.4 10.7-27.4 15.3-9.1 5.2-18.3 10.4-27.4 15.6l-65.2 37.5-17 9.8-62.3 36c-6.6 3.8-13.2 7.7-19.9 11.5-9.1 5.3-18.3 10.5-27.4 15.8l-88.7 51.2c-6.9 4-13.9 8-20.9 12l-37.8 21.8-17 9.8c-6.4 3.7-12.7 7.4-19.1 11L147 885.2l-19.5 11.3-12.9 7.4c-5.8 3.3-11.5 6.6-17.3 10-31.3 18.5-63.1 36.8-94.8 55.2-.6.3-.8 1.1-.4 1.7.2.4.6.6 1.1.6.2 0 .4-.1.6-.2zm1200 382.1c1-.5 1.9-1.1 2.8-1.7l6.2-3.6c7-4.1 14.1-8.1 21.2-12.2l7.3-4.2c6.7-3.9 13.4-7.7 20-11.6l137-79.1c9.1-5.3 18.2-10.6 27.4-15.8 7-4.1 14.1-8.1 21.2-12.2l88.4-51c9.1-5.3 18.2-10.6 27.4-15.8 9.1-5.3 18.2-10.6 27.4-15.8l82.2-47.5 27-15.6c.6-.3.8-1.1.4-1.7-.3-.6-1.1-.8-1.7-.4l-27 15.6-82.2 47.5c-9.1 5.3-18.3 10.5-27.4 15.8-9.1 5.3-18.3 10.5-27.4 15.8l-88.4 51c-7 4.1-14.1 8.1-21.2 12.2-9.1 5.3-18.3 10.5-27.4 15.8l-137 79.1c-6.7 3.9-13.4 7.7-20 11.6l-7.3 4.2c-7 4.1-14.1 8.1-21.1 12.2l-6.3 3.6c-.9.6-1.9 1.1-2.8 1.6-.6.3-.8 1.1-.5 1.7.2.4.6.6 1.1.6.3 0 .5 0 .7-.1zm77.6 0 117-67.6c9.1-5.3 18.2-10.6 27.4-15.8l109.6-63.3c9.1-5.3 18.2-10.6 27.4-15.8 9.1-5.3 18.2-10.6 27.4-15.8l82.2-47.5 27-15.6c.6-.3.8-1.1.4-1.7-.3-.6-1.1-.8-1.7-.4l-27 15.6-82.2 47.5c-9.1 5.3-18.3 10.5-27.4 15.8-9.1 5.3-18.3 10.5-27.4 15.8l-109.6 63.3c-9.1 5.3-18.3 10.5-27.4 15.8l-117 67.6c-.6.3-.8 1.1-.4 1.7.2.4.6.6 1.1.6.2 0 .4-.1.6-.2zm77.6 0 176.4-101.8c9.1-5.3 18.2-10.6 27.4-15.8l27.4-15.8c9.1-5.3 18.2-10.5 27.4-15.8l54.8-31.6 27-15.6c.6-.3.8-1.1.4-1.7-.3-.6-1.1-.8-1.7-.4l-27 15.6-54.8 31.6c-9.1 5.3-18.2 10.6-27.4 15.8l-27.4 15.8c-9.1 5.3-18.3 10.5-27.4 15.8l-176.4 101.8c-.6.3-.8 1.1-.4 1.7.2.4.6.6 1.1.6.1 0 .4-.1.6-.2zm77.5 0 3.9-2.3c4.3-2.4 8.5-4.9 12.7-7.3l82.2-47.5c9.1-5.3 18.2-10.6 27.4-15.8l27.4-15.8c9.1-5.3 18.2-10.5 27.4-15.8l54.8-31.6 27-15.6c.6-.3.8-1.1.4-1.7-.3-.6-1.1-.8-1.7-.4l-27 15.6-54.8 31.6c-9.1 5.3-18.2 10.6-27.4 15.8l-27.4 15.8c-9.1 5.3-18.3 10.5-27.4 15.8l-82.2 47.5c-4.3 2.4-8.5 4.9-12.7 7.3l-3.9 2.3c-.6.3-.8 1.1-.4 1.7.2.4.6.6 1.1.6.2 0 .5-.1.6-.2zM3.8 209.8c2.5-1.4 5-2.9 7.4-4.3l164.4-94.8c9.1-5.2 18.3-10.4 27.4-15.6 7.5-4.3 17.5-9.8 27.4-15.2 10.6-5.7 19.3-10.2 27.4-14.1 10-4.8 18.9-8.6 27.3-11.7 8.8-3.3 17.9-5.8 27.1-7.6 8.9-1.6 17.9-2.3 27-2.1 9.2.4 18.3 1.2 27.4 2.6l1.5.2c8.5 1.1 17.4 2.3 26.1 2.3 9.5.1 19-1.5 28-4.8 9.1-3.4 18.3-9 27.4-16.7 8.3-6.9 17-15.9 27.4-28.1 8-9.4 16.1-19.8 24-29.8l3.6-4.6c8.8-11.1 18.1-22.9 27.5-33.7 9.1-10.4 18.2-20.1 27.2-28.6 8.6-8.2 17.5-15.8 27.1-23.3 8.4-6.5 17.3-12.9 27.3-19.7 8.1-5.5 16.8-11 27.4-17.5 8-4.9 16.7-10.1 27.4-16.4 9.1-5.4 18.3-10.7 27.4-16 6.5-3.8 13-7.5 19.5-11.3l35.3-20.4c9.1-5.3 18.3-10.6 27.4-15.8 9.1-5.3 18.3-10.6 27.5-15.8l27.6-15.9c9.3-5.4 18.5-10.7 27.8-16.1l28.1-16.2 70.7-40.8c.6-.3.8-1.1.5-1.7-.3-.6-1.1-.8-1.7-.5L888-303.5c-9.4 5.4-18.7 10.8-28.1 16.2-9.3 5.3-18.5 10.7-27.8 16.1l-27.6 15.9c-9.1 5.3-18.3 10.6-27.5 15.9-9.1 5.3-18.3 10.5-27.4 15.8l-35.3 20.4c-6.5 3.8-13 7.5-19.5 11.3-9.1 5.3-18.3 10.6-27.4 16-10.7 6.3-19.4 11.5-27.5 16.5-10.6 6.5-19.3 12.1-27.5 17.6-10.1 6.7-19.1 13.2-27.5 19.7-9.7 7.6-18.7 15.3-27.3 23.5-9.1 8.6-18.3 18.3-27.4 28.8-9.3 10.8-18.7 22.6-27.5 33.8l-3.6 4.6c-7.8 10-15.9 20.4-23.9 29.8-10.2 12-19 21.1-27.1 27.8-8.9 7.5-17.9 12.9-26.7 16.3-8.6 3.2-17.8 4.8-26.9 4.6h-.2c-8.6 0-17.3-1.2-25.8-2.3l-1.5-.2c-9.2-1.4-18.4-2.2-27.6-2.6-9.2-.2-18.4.5-27.5 2.1-9.4 1.8-18.6 4.3-27.5 7.7-9.4 3.5-18.5 7.4-27.5 11.8-8.1 3.9-16.8 8.4-27.5 14.1-10 5.4-19.9 11-27.5 15.2-9.1 5.2-18.3 10.4-27.4 15.6L10 203.4c-2.5 1.4-5 2.9-7.4 4.3-.6.3-.8 1.1-.4 1.7.2.4.6.6 1.1.6.1 0 .3-.1.5-.2z" style="opacity:.8;fill:#fff;enable-background:new"/></svg>