<svg xmlns="http://www.w3.org/2000/svg" viewBox="0 0 178.7 36" style="enable-background:new 0 0 178.7 36" xml:space="preserve"><path d="M57.2 27.5v-17H65c1.5-.1 3 .3 4.3 1.2 1 .8 1.6 2 1.5 3.2 0 .9-.3 1.9-.9 2.6s-1.5 1.2-2.5 1.4v-.4c1.1.1 2.1.6 2.8 1.4.7.8 1 1.8 1 2.8.1 1.4-.5 2.7-1.6 3.5-1.3.9-2.8 1.4-4.4 1.3h-8zm3.6-2.8h4c.7 0 1.5-.1 2.1-.5.5-.4.8-1 .7-1.7.1-.7-.2-1.3-.7-1.7-.6-.4-1.4-.6-2.1-.5h-4v4.4zm0-7.2h3.6c.8.1 1.5-.1 2.2-.5.5-.4.7-1 .7-1.6s-.2-1.2-.7-1.6c-.6-.4-1.4-.6-2.2-.5h-3.6v4.2zm12.9 10V15.3h3.6v12.2h-3.6zm-.2-14.2V9.9h3.9v3.4h-3.9zm6.4 14.2v-2.4l7.2-8v.9h-7.2v-2.7h10.5v2.4l-7.3 8v-.9h7.6v2.7H79.9zm21.5.2c-1.6 0-3.2-.3-4.7-1.1-1.3-.7-2.3-1.8-3-3-.7-1.4-1.1-3-1-4.6 0-1.6.3-3.2 1-4.6.7-1.3 1.7-2.3 3-3 1.4-.8 3-1.1 4.7-1.1 1.1 0 2.2.2 3.2.5.9.3 1.7.8 2.4 1.4l-1.2 3c-.6-.5-1.3-.9-2.1-1.2-.7-.2-1.5-.4-2.2-.4-1.4-.1-2.7.4-3.6 1.4-.9 1.1-1.4 2.6-1.3 4-.1 1.5.4 2.9 1.3 4 .9 1 2.3 1.5 3.6 1.4.8 0 1.5-.1 2.2-.4.8-.3 1.5-.7 2.1-1.2l1.2 3c-.7.6-1.6 1.1-2.5 1.4-.9.4-2 .5-3.1.5zm12.9 0c-1.2 0-2.3-.2-3.4-.8-.9-.5-1.7-1.3-2.2-2.2-.5-1-.8-2.2-.8-3.4 0-1.2.2-2.3.8-3.4.5-.9 1.3-1.7 2.2-2.2 1-.5 2.2-.8 3.4-.8 1.2 0 2.3.2 3.4.8.9.5 1.7 1.3 2.2 2.2.5 1 .8 2.2.8 3.4 0 1.2-.2 2.3-.8 3.4-.5.9-1.3 1.7-2.2 2.2-1 .6-2.2.9-3.4.8zm0-2.7c.8 0 1.5-.3 2-.9.6-.8.8-1.8.7-2.7.1-1-.2-1.9-.7-2.7-.5-.6-1.2-.9-2-.9s-1.5.3-2 .9c-.6.8-.8 1.8-.7 2.7-.1 1 .2 1.9.7 2.7.6.6 1.3.9 2 .9zm8.8 2.5V16.9c0-.6-.1-1.1-.1-1.6h3.5l.3 2.3h-.3c.4-.8 1-1.4 1.7-1.8.8-.4 1.7-.7 2.6-.6 1.2-.1 2.4.4 3.2 1.2.8 1.1 1.2 2.5 1.1 3.8v7.3h-3.6v-7.2c.1-.7-.1-1.3-.5-1.9-.4-.4-.9-.6-1.4-.6-.7 0-1.4.2-1.9.8-.5.6-.8 1.3-.7 2v6.8h-3.9v.1zm19.2.2c-1 0-2-.1-3-.4-.8-.2-1.6-.5-2.3-1l1-2.3c.6.4 1.3.7 2.1.9.7.2 1.5.3 2.3.3.5 0 1.1-.1 1.6-.3.3-.2.5-.5.5-.9 0-.3-.1-.6-.3-.7-.3-.2-.6-.3-1-.4l-2.5-.5c-.9-.1-1.7-.5-2.4-1.2-.6-.6-.8-1.4-.8-2.2 0-.7.2-1.5.6-2.1.5-.6 1.1-1.1 1.8-1.4.9-.4 1.8-.5 2.8-.5.9 0 1.7.1 2.6.3.8.2 1.5.5 2.1 1l-1 2.3c-.5-.4-1.1-.7-1.7-.9-.6-.2-1.2-.3-1.9-.3-.6 0-1.2.1-1.7.4-.3.2-.5.6-.5.9s.1.5.3.7c.3.2.6.4.9.4l2.5.5c.9.1 1.8.5 2.4 1.1.6.6.9 1.4.8 2.2 0 .8-.2 1.5-.7 2.2-.5.6-1.1 1.1-1.9 1.4-.7.4-1.7.5-2.6.5zm12 0c-1.3.1-2.5-.4-3.4-1.3-.8-1.1-1.2-2.5-1.1-3.8v-7.3h3.6v7.3c0 .6.1 1.2.5 1.7.4.4.9.6 1.5.6.7 0 1.3-.3 1.8-.8.5-.6.7-1.3.7-2v-6.8h3.6v12.2H158v-2.3h.3c-.3.8-.9 1.4-1.6 1.9-.7.4-1.5.7-2.4.6zm10.2-.2V9.8h3.6v17.7h-3.6zm12.2.2c-1.3.1-2.6-.3-3.6-1.2-.9-1-1.3-2.3-1.2-3.6v-5h-2.3v-2.7h2.3v-3l3.6-.9v3.9h3.1V18h-3.1v4.8c-.1.6.1 1.1.5 1.6.3.3.8.4 1.2.4.3 0 .5 0 .8-.1.2 0 .4-.1.6-.2v2.8c-.3.1-.6.2-1 .3-.2.1-.5.1-.9.1z" style="fill:#fff"/><path d="M22.4 35.5v-13h13.2v13.1l-13.2-.1zm-5.5 0c-.1 0-.2 0-.3-.1-3.4-.2-6.7-1.5-9.4-3.6C3.8 29.1 1.5 25.3.8 21c-.1-.6-.2-1.3-.3-1.9v-2.2c0-.3.1-.6.1-1 .5-4.5 2.8-8.6 6.3-11.4C12.5-.2 20.4-.8 26.7 2.9c4.5 2.5 7.7 7 8.5 12.2.1.6.2 1.3.3 1.9v1h-8.7c0-2.5-1-4.8-2.9-6.5-1.8-1.7-4.3-2.5-6.8-2.2-4.1.4-7.4 3.7-7.8 7.8-.2 2.2.4 4.3 1.7 6.1 1.6 2.2 4.3 3.6 7.1 3.6v8.7h-1.2z" style="fill:#2c69ff"/></svg>