<svg xmlns="http://www.w3.org/2000/svg" width="209.587" height="41.202"><path d="M21.07 41.118a5.682 5.682 0 0 1 1.5-11.256l-.027-.029a6.714 6.714 0 0 0 7.257-7.252l.027.028a5.656 5.656 0 0 1 1.615-4.526h.006a5.674 5.674 0 1 1 3.511 9.652l.029.028a6.714 6.714 0 0 0-7.254 7.254l-.029-.028a5.682 5.682 0 0 1-6.632 6.13ZM6.124 39.573a5.683 5.683 0 0 1 1.51-11.257l-.027-.029a6.714 6.714 0 0 0 7.252-7.251l.027.027a5.611 5.611 0 0 1 6.145-6.14L21 14.894a6.709 6.709 0 0 0 7.252-7.252l.029.027a5.68 5.68 0 1 1 5.13 5.131l.029.027a6.713 6.713 0 0 0-7.254 7.251l-.027-.027a5.615 5.615 0 0 1-6.145 6.141l.029.027a6.713 6.713 0 0 0-7.254 7.252l-.029-.027a5.681 5.681 0 0 1-5.66 6.213 5.762 5.762 0 0 1-.976-.084Zm80.9-3.832a7.8 7.8 0 0 1-3.1-2.871l3.915-2.265a3.487 3.487 0 0 0 3.487 1.926 3.046 3.046 0 0 0 3.456-3.271v-1.4a5.431 5.431 0 0 1-4.467 1.99 7.774 7.774 0 0 1 0-15.539 5.442 5.442 0 0 1 4.459 1.989v-1.56h4.467v14.526c0 5.14-4.008 7.313-8.075 7.313q-.29.021-.58.02a7.819 7.819 0 0 1-3.567-.858Zm3.416-17.467a3.709 3.709 0 0 0 .635 7.363 3.462 3.462 0 0 0 3.7-3.554 3.708 3.708 0 0 0-4.336-3.81Zm38.165 17.882V14.742h4.59v1.437a5.742 5.742 0 0 1 4.555-1.866 7.679 7.679 0 0 1 7.313 8.078 7.677 7.677 0 0 1-7.313 8.073 5.728 5.728 0 0 1-4.55-1.864v7.558Zm7.463-17.233a3.64 3.64 0 0 0 .767 7.2 3.5 3.5 0 0 0 2.656-1.052 3.479 3.479 0 0 0 .982-2.679 3.638 3.638 0 0 0-4.4-3.468Zm12.945 10.732a6.705 6.705 0 0 1-2.728-2.831l3.974-2.262a2.518 2.518 0 0 0 2.6 1.805c1.1 0 1.651-.339 1.651-.948 0-1.684-7.526-.8-7.526-6.087 0-3.336 2.815-5.018 6-5.018a6.692 6.692 0 0 1 5.965 3.274l-3.916 2.11a2.221 2.221 0 0 0-2.05-1.345c-.8 0-1.285.309-1.285.854.006 1.745 7.53.581 7.53 6.241 0 3.518-3.057 5.016-6.36 5.016-.2.018-.4.028-.607.028a6.691 6.691 0 0 1-3.247-.837Zm18.011.812c-3.09 0-5.717-2.2-5.717-6.335v-9.39h4.593v8.718a2.524 2.524 0 0 0 .123 1.078 2.485 2.485 0 0 0 .563.93 2.53 2.53 0 0 0 1.975.774c1.682 0 2.844-.98 2.844-3.151v-8.345h4.584v15.3H171.4V28.6a5.234 5.234 0 0 1-4.013 1.878q-.187.001-.362-.011Zm-60.187-.591a8.019 8.019 0 0 1-5-7.484 8.107 8.107 0 1 1 8.107 8.073h-.1a7.977 7.977 0 0 1-3.007-.59Zm2.363-10.827a3.519 3.519 0 0 0 .747 6.958 3.39 3.39 0 0 0 1.385-.252 3.429 3.429 0 0 0 2.134-3.363 3.516 3.516 0 0 0-4.266-3.343ZM69.736 29.875a8.017 8.017 0 0 1-5-7.484 8.107 8.107 0 1 1 8.109 8.073h-.1a7.977 7.977 0 0 1-3.009-.589ZM72.1 19.049a3.519 3.519 0 0 0 .747 6.958 3.39 3.39 0 0 0 1.385-.252 3.419 3.419 0 0 0 1.919-1.973 3.373 3.373 0 0 0 .213-1.39 3.514 3.514 0 0 0-4.264-3.343Zm125.611 10.988v-8.994c0-1.529-.735-2.507-2.2-2.507-1.529 0-2.388 1.07-2.388 2.875v8.626h-4.586v-8.994c0-1.529-.733-2.507-2.2-2.507-1.529 0-2.386 1.07-2.386 2.875v8.626h-4.588V14.74h4.588v1.406a4.71 4.71 0 0 1 4.1-1.835 4.552 4.552 0 0 1 4.007 2.018 5.046 5.046 0 0 1 4.436-2.018c3.513 0 5.813 2.51 5.813 6.336v9.391Zm-77.06 0 .006-15.3h4.592v15.3Zm-63.1 0V7.707h4.59v22.33ZM4.45 24.654a5.673 5.673 0 0 1 1.729-11.19l-.027-.027A6.714 6.714 0 0 0 13.4 6.183l.027.029a5.681 5.681 0 1 1 5.126 5.126l.029.027a6.714 6.714 0 0 0-7.256 7.252l-.029-.027a5.647 5.647 0 0 1-1.614 4.525 5.673 5.673 0 0 1-5.24 1.537Zm198.325-13.411a3.406 3.406 0 1 1 3.407 3.406 3.4 3.4 0 0 1-3.407-3.406Zm-81.766 1.339a2.777 2.777 0 0 1-.814-1.94 2.753 2.753 0 1 1 2.752 2.754 2.785 2.785 0 0 1-1.938-.814Z" fill="#fff"/></svg>