<svg xmlns="http://www.w3.org/2000/svg" width="177.929" height="41.479"><path d="M0 41.479V4.5h17.524A13.868 13.868 0 1 1 37 24.2v17.279Zm7.119-7.12H29.88v-6.78a13.677 13.677 0 0 1-2.148.182 13.9 13.9 0 0 1-13.887-13.887 13.3 13.3 0 0 1 .211-2.261H7.119Zm16.852-26.1a6.771 6.771 0 1 0 3.761-1.141 6.756 6.756 0 0 0-3.761 1.144Zm48.735 23.63-.029-.014h4.353a2.33 2.33 0 0 0 2.444 1.4c1.728 0 2.625-.927 2.625-2.3v-2.494a4.31 4.31 0 0 1-4.2 2.424c-3.3 0-5.491-2.514-5.491-6.838s2.092-7.022 5.616-7.022a4.316 4.316 0 0 1 4.087 2.379V17.16h4.465v13.675c0 3.3-2.92 5.363-7.217 5.363-3.901-.012-6.401-1.798-6.653-4.309Zm4.213-7.821c0 2.189.967 3.481 2.582 3.481s2.613-1.192 2.613-3.481c0-2.2-1.013-3.595-2.613-3.595s-2.582 1.403-2.582 3.595Zm34.022 11.372V17.187h4.478v2.473h.084a4.342 4.342 0 0 1 4.213-2.669c3.538-.029 5.575 2.569 5.575 7.091l-.084-.014c0 4.508-2.021 7.119-5.462 7.119a4.3 4.3 0 0 1-4.213-2.57h-.084v6.823Zm4.465-11.372c-.014 2.2 1.011 3.595 2.6 3.595s2.7-1.306 2.7-3.581l-.084-.014c0-2.192-1.024-3.609-2.612-3.609s-2.591 1.404-2.605 3.609Zm-27.016 0h-.028c0-4.521 2.809-7.231 7.022-7.231s7.019 2.71 7.019 7.231-2.723 7.259-7.019 7.259-6.995-2.64-6.995-7.259Zm4.537 0c0 2.541.954 3.931 2.5 3.931s2.541-1.39 2.541-3.917l-.027-.014c0-2.484-.983-3.945-2.514-3.945s-2.501 1.404-2.501 3.945Zm-36.086 0c0-4.521 2.807-7.231 7.019-7.231s7.021 2.71 7.021 7.231-2.709 7.259-7.021 7.259-7.02-2.64-7.02-7.259Zm4.562 0c0 2.541.956 3.931 2.5 3.931s2.541-1.39 2.541-3.917l-.027-.014c0-2.484-.969-3.945-2.514-3.945S61.4 21.527 61.4 24.068Zm65.012 2.569h4.367c.125 1.026.94 1.63 2.26 1.63s1.937-.422 1.937-1.167-.42-.87-1.5-1.094l-2.612-.547c-2.711-.575-4.128-1.994-4.128-4.115.084-2.75 2.444-4.506 6.247-4.506l-.084-.014c3.779 0 6.122 1.783 6.152 4.647h-4.115c0-1-.829-1.614-2.064-1.614s-1.826.477-1.826 1.194.52.94 1.558 1.152l2.893.588c2.809.591 3.933 1.714 3.933 3.806 0 2.807-2.6 4.718-6.46 4.718s-6.373-1.856-6.559-4.678Zm19.629 4.62a4.816 4.816 0 0 1-4.957-5.208V17.16h4.508v7.919c0 1.628.856 2.514 2.26 2.514a2.311 2.311 0 0 0 2.2-1.666 2.352 2.352 0 0 0 .064-.975V17.16h4.494l-.084 13.816h-4.367v-2.6h-.086a3.962 3.962 0 0 1-3.813 2.886 2.637 2.637 0 0 1-.219-.005Zm27.339-.267v-8.241c0-1.406-.661-2.191-1.939-2.191a1.969 1.969 0 0 0-1.914 1.395 2.023 2.023 0 0 0-.067.837v8.2h-4.3v-8.285c0-1.4-.688-2.148-1.923-2.148a2 2 0 0 0-1.933 1.415 1.976 1.976 0 0 0-.074.847v8.171h-4.508l-.025-13.844h4.38v2.669h.1a4.02 4.02 0 0 1 3.947-2.922 3.6 3.6 0 0 1 3.847 2.936h.2a4.214 4.214 0 0 1 4.212-2.936 4.383 4.383 0 0 1 4.287 2.891 4.409 4.409 0 0 1 .248 1.814v9.392Zm-69.084 0-.07-13.844h4.564V30.99Zm-53.765-.057V12.68h4.508v18.254Zm55.137-15.048a2.21 2.21 0 0 1-1.231-1.187 2.169 2.169 0 0 1-.182-.853l-.029-.012a2.3 2.3 0 0 1 4.553-.586 2.3 2.3 0 0 1-2.25 2.789h-.059a2.185 2.185 0 0 1-.802-.15Z" fill="#fff"/></svg>