<svg xmlns="http://www.w3.org/2000/svg" width="201.693" height="51.12"><path d="m19.374 49.7 3.749-14.506a10.294 10.294 0 0 0 5.468.051l-4.1 15.876Zm9.408-14.507a10.377 10.377 0 0 0 3.528-1.807l-.575-.6a11.13 11.13 0 0 0 2.635-5.034l1.928 2a11.49 11.49 0 0 0 .237-2.321 10.791 10.791 0 0 0-10.589-10.982 10.789 10.789 0 0 0-10.589 10.983c0 .233.006.469.021.7l.258-.073a11.074 11.074 0 0 0 2.23 4.576l.425-.44a10.545 10.545 0 0 0 4.648 2.945L11.72 46.777l-3.742-3.884 9.244-9.587-14.464 4.018-1.371-5.3 10.9-3.028L0 25.577l1.371-5.3 14.3 3.976L4.186 12.338l3.749-3.884L18.4 19.314l-4.2-16.27 5.113-1.423 3.889 15.062L27.517 0l5.113 1.42-3.837 14.853L40.12 4.526l3.742 3.884-10.467 10.861 15.689-4.36 1.368 5.3-14.3 3.977 15.691 4.36-1.371 5.3-13.962-3.874 9.257 9.605-3.743 3.882-7.684-7.97 3.3 12.773-5.115 1.42Zm61.718-1.37h4.845c.276.805 1.1 1.491 2.758 1.491 2.118 0 3.007-1.075 3.007-2.924v-1.522h-.122a5.067 5.067 0 0 1-4.019 1.761 6.623 6.623 0 0 1-6.648-5.529c-.446 4.091-3.633 7.085-8.318 7.085-5.03 0-8.4-3.491-8.4-8.088s3.374-8.091 8.4-8.091c4.4 0 7.474 2.638 8.2 6.346.38-3.93 2.953-6.621 6.545-6.621a5.074 5.074 0 0 1 4.416 2.089h.062v-1.637h4.785v13.789a6.461 6.461 0 0 1-2.089 5.075 8.74 8.74 0 0 1-5.762 1.7c-4.322 0-7.175-1.731-7.66-4.924ZM78.661 26.1c0 2.777 1.133 4.627 3.312 4.627s3.343-1.85 3.343-4.627-1.166-4.657-3.343-4.657-3.312 1.882-3.312 4.657Zm16.376-.874c0 2.3 1.228 3.791 3.1 3.791 2.177 0 3.189-1.671 3.189-3.819 0-2.06-1.1-3.793-3.189-3.793-1.873-.005-3.1 1.495-3.1 3.821Zm35.408 13.3V18.194h4.785v1.851h.093a5.763 5.763 0 0 1 4.754-2.3c4.169 0 6.715 3.493 6.715 8.088a11.241 11.241 0 0 1-.361 2.92h4.7c.183 1.523 1.226 2.27 2.88 2.27 1.5 0 2.455-.536 2.455-1.523 0-1.374-1.9-1.523-3.986-1.881-2.731-.446-5.644-1.162-5.644-4.745 0-3.223 3.067-4.9 6.779-4.9 3.26 0 5.414 1.01 6.43 2.737v-2.3h4.969v9.019c0 1.672.768 2.6 2.361 2.6 1.72 0 2.76-1.253 2.76-3.073v-8.54h5V33.7h-4.783v-1.882h-.093a5.406 5.406 0 0 1-4.694 2.328 5.032 5.032 0 0 1-4.93-2.791c-1.06 1.875-3.527 2.836-6.59 2.836-4.571 0-7.447-2.033-7.632-5.37a6.478 6.478 0 0 1-6.459 5.134 5.279 5.279 0 0 1-4.447-2.058h-.064v6.625Zm4.847-12.506c0 2.476 1.227 4.179 3.374 4.179 1.9 0 3.067-1.583 3.067-4.179 0-2.625-1.011-4.357-3.16-4.357-2.173-.004-3.281 1.874-3.281 4.352Zm16.117-3.527c0 1.075 1.78 1.224 3.771 1.583 1.739.282 3.673.658 4.866 1.876v-3.075H156.1c-.185-1.372-1.135-1.79-2.515-1.79-1.226-.001-2.176.446-2.176 1.402ZM106.47 26.1c0-4.6 3.374-8.091 8.4-8.091 5.059 0 8.371 3.493 8.371 8.091s-3.312 8.088-8.371 8.088c-5.026-.001-8.4-3.488-8.4-8.088Zm5.061 0c0 2.777 1.133 4.627 3.312 4.627s3.343-1.85 3.343-4.627-1.168-4.657-3.343-4.657-3.312 1.882-3.312 4.657Zm12.56 7.86V18.675h5V33.96Zm-65.508 0V12.615h5.43v16.867h9.844v4.478Zm138.112-.228v-9.074c0-1.641-.706-2.6-2.208-2.6-1.6 0-2.486 1.283-2.486 3.1v8.566h-5v-9.066c0-1.641-.7-2.6-2.206-2.6-1.563 0-2.484 1.283-2.484 3.1v8.566h-5V18.45h4.789v2.18h.091a5.266 5.266 0 0 1 4.75-2.63 4.713 4.713 0 0 1 4.416 2.685h.062A5.618 5.618 0 0 1 196.356 18c3.557 0 5.337 2.356 5.337 5.791v9.938Zm-72.6-17.177v-3.94h5v3.94Z" fill="#fff"/></svg>