<svg xmlns="http://www.w3.org/2000/svg" width="218.365" height="49.173"><path d="M0 49.173V0h22.566v7.159a17.43 17.43 0 0 0 0 34.859v7.155Zm84.778-7.06a8.425 8.425 0 0 1-3.378-3.146l4.261-2.458a3.821 3.821 0 0 0 3.806 2.105 3.38 3.38 0 0 0 1.465-.143A3.374 3.374 0 0 0 93.02 36.5a3.387 3.387 0 0 0 .223-1.453v-1.536a5.934 5.934 0 0 1-4.867 2.157 8.421 8.421 0 1 1 0-16.841 5.941 5.941 0 0 1 4.867 2.155V19.3l4.867-.1v15.845c0 5.591-4.378 7.965-8.807 7.965q-.346.028-.692.029a8.393 8.393 0 0 1-3.833-.926Zm3.743-19.066a4.041 4.041 0 0 0 .68 8.024 3.773 3.773 0 0 0 4.042-3.871 4.038 4.038 0 0 0-4.043-4.213 3.92 3.92 0 0 0-.679.059Zm41.45 19.526V19.2h5.052v1.565a6.246 6.246 0 0 1 5.052-2.021 8.423 8.423 0 0 1 8.033 8.791 8.417 8.417 0 0 1-8.033 8.84 6.273 6.273 0 0 1-5.052-2.037v8.234Zm10.7-11.23a3.807 3.807 0 0 0 2.389-3.808 3.973 3.973 0 1 0-3.958 4.076 3.794 3.794 0 0 0 1.565-.268ZM22.566 7.159a17.428 17.428 0 1 1 0 34.857Zm149.421 29.216c-3.368 0-6.248-2.409-6.248-6.9V19.2h5.052v9.514a2.743 2.743 0 0 0 .137 1.179 2.766 2.766 0 0 0 1.606 1.668 2.745 2.745 0 0 0 1.17.185c1.819 0 3.1-1.078 3.1-3.368V19.2h4.984v16.67h-5.052V34.3a5.723 5.723 0 0 1-4.422 2.08 3.562 3.562 0 0 1-.327-.005Zm-65.6-.65a8.74 8.74 0 0 1-5.431-8.19 8.842 8.842 0 1 1 8.825 8.84h-.087a8.73 8.73 0 0 1-3.307-.65Zm4.909-4.532a3.74 3.74 0 0 0 2.307-3.658h.016a3.839 3.839 0 1 0-3.823 3.941 3.731 3.731 0 0 0 1.504-.283Zm-45.351 4.526a8.723 8.723 0 0 1-5.406-8.184 8.842 8.842 0 1 1 8.791 8.84h-.073a8.672 8.672 0 0 1-3.312-.656Zm2.61-11.837a3.84 3.84 0 0 0 .809 7.594 3.74 3.74 0 0 0 3.806-3.941h.03a3.837 3.837 0 0 0-4.648-3.653Zm83.793 11.573a7.3 7.3 0 0 1-2.978-3.086l4.345-2.459a2.73 2.73 0 0 0 2.813 1.971c1.2 0 1.8-.372 1.8-1.045 0-1.835-8.2-.858-8.2-6.635 0-3.638 3.065-5.457 6.535-5.457a7.305 7.305 0 0 1 6.6 3.554l-4.345 2.289a2.471 2.471 0 0 0-2.241-1.465c-.875 0-1.4.338-1.4.926 0 1.921 8.2.656 8.2 6.82 0 3.841-3.368 5.474-6.939 5.474-.218.02-.436.029-.654.029a7.3 7.3 0 0 1-3.536-.917Zm-99.69.417V11.537h5.052v24.334Zm152.7 0v-9.8c0-1.686-.791-2.729-2.391-2.729s-2.61 1.163-2.61 3.134v9.395h-5.047v-9.8c0-1.686-.791-2.729-2.391-2.729s-2.61 1.163-2.61 3.134v9.395h-5.052V19.2h5.052v1.53a5.16 5.16 0 0 1 4.48-1.986 4.932 4.932 0 0 1 4.362 2.19 5.484 5.484 0 0 1 4.833-2.19c3.939 0 6.431 2.727 6.431 6.887v10.238Zm-83.93 0V19.2h5.052v16.67Zm89.521-20.478a3.705 3.705 0 1 1 3.7 3.706 3.7 3.7 0 0 1-3.695-3.709Zm-89.123 1.455a2.985 2.985 0 0 1 .963-4.88 3 3 0 1 1 1.147 5.767 3.046 3.046 0 0 1-2.104-.889Z" fill="#fff"/></svg>