<svg xmlns="http://www.w3.org/2000/svg" viewBox="0 0 50 50"><path d="M5.2 46.5a5 5 0 0 1-5.1-4.2l-.1-.2V26.5c1.4 1.4 3.2 2.4 5.1 3l5.6 1.6 10.8 3.1c2.3.7 4.8.7 7.1 0l16.7-4.8c1.7-.5 3.2-1.4 4.4-2.6l.3-.3v14.9a5 5 0 0 1-4.8 5.1h-40zm17.5-15.2L5.9 26.4c-2.8-.8-5-3-5.6-5.8l-.2-1.2v-3.6l.1-.1a5 5 0 0 1 5.2-4.2h10.4V7.4a3.7 3.7 0 0 1 3.6-3.9h11a3.7 3.7 0 0 1 3.9 3.6v4.5h10.6a4.8 4.8 0 0 1 4.9 3.9c.2 1.6.2 3.2 0 4.8a7.7 7.7 0 0 1-5.9 6.4l-16 4.6c-1 .3-2 .4-3 .5l-2.2-.5zM19.6 6.6c-.3 0-.6.2-.6.5v4.3h12.1V7.1c0-.4-.3-.5-.6-.5H19.6z"></path></svg>