<svg xmlns="http://www.w3.org/2000/svg" viewBox="0 0 70 70"><path d="m49.5 70-3.9-.8a19 19 0 1 1 24-21.9l.1.7a19 19 0 0 1-14.4 21.6l-2.7.5-3.1-.1zm-39.1 0-.4-.1c-4.6-.7-8.4-4-9.6-8.6L0 59.6V57c.3-.9.4-1.9.8-2.8C2.5 49.6 7 46.5 12 46.6a11.6 11.6 0 0 0 10.1-17 11.3 11.3 0 0 0-10.2-6.3c-5.4 0-10.1-3.6-11.5-8.9L0 13v-2.6l.1-.4a11.7 11.7 0 0 1 23.3 2 11.6 11.6 0 0 0 17.2 9.9c3.8-2 6.2-6 6.1-10.3A11.6 11.6 0 0 1 59.9.1a11.7 11.7 0 0 1-.4 23.2c-1.9.2-3.7.1-5.6.4a34.4 34.4 0 0 0-26.9 19 33 33 0 0 0-3.7 15.4c.1 5-2.9 9.4-7.6 11.2l-2.9.8-2.4-.1z"></path></svg>