<svg xmlns="http://www.w3.org/2000/svg" viewBox="0 0 70 70"><path d="m44.6 69.2.9.8H30.4l-5.2-5.2c-3.2-2.6-4.8-5.5-4.7-8.3.1-2.7 1.7-5.3 4.6-7.6 4.3-3.3 6.8-8.2 6.9-13.5.1-5.5-2.4-10.7-6.8-14.4-3.2-2.6-4.8-5.5-4.7-8.4.1-2.7 1.7-5.5 4.6-7.7l5.1-5h15l-.5.5a15.9 15.9 0 0 0-6.8 12.1c-.1 3.3 1.1 8.2 6.8 13 3.1 2.6 4.8 6.1 4.7 9.8a12 12 0 0 1-4.6 9 15.7 15.7 0 0 0-6.9 12.1c0 3.3 1.1 8.1 6.7 12.8zM53.5 0l-5.1 5c-2.9 2.2-4.6 4.9-4.6 7.7-.1 2.9 1.6 5.8 4.7 8.4 4.5 3.7 7 8.9 6.8 14.4A17.2 17.2 0 0 1 48.4 49c-3 2.3-4.6 4.9-4.6 7.6-.1 2.8 1.6 5.7 4.7 8.3l5.2 5.2H70V0H53.5zM14.6 56.4a16 16 0 0 1 6.9-12.1c2.9-2.2 4.6-5.4 4.6-9 .1-3.7-1.6-7.2-4.7-9.8-5.8-4.8-6.9-9.7-6.8-13C14.7 8 17.1 3.7 21.4.4l.5-.4H0v70h22.1l-.9-.9c-5.5-4.6-6.6-9.4-6.6-12.7z"></path></svg>