<svg xmlns="http://www.w3.org/2000/svg" viewBox="0 0 70 70"><path d="M25.6 70a5.8 5.8 0 0 1-6.1-5.2V45.2a5.6 5.6 0 0 1 5.2-6h19.7a5.7 5.7 0 0 1 6 5.3V64c0 3.8-2.3 6.1-6.1 6.1h-9.4l-9.3-.1zm28.9-16.3h-.7v-4.2c0-1.9.1-3.7-.1-5.6a8.8 8.8 0 0 0-9.1-8.1H32.5V22.3a5.7 5.7 0 0 1 5.4-6H64a5.7 5.7 0 0 1 6 5.3v26.2a5.7 5.7 0 0 1-5.4 6h-4.3l-5.8-.1zM4.6 42.2A5.6 5.6 0 0 1 0 36.9v-3.7c.1-3 2.5-5.4 5.5-5.4h4.1c2.6.3 4.7 2.4 4.9 5v4.5a5.3 5.3 0 0 1-4.7 5l-2.5.2-2.7-.3zm18.6-11.6a5.5 5.5 0 0 1-3.7-5.1V5.4c0-3 2.5-5.4 5.4-5.4H45c3 0 5.4 2.4 5.4 5.4V13h-12a9 9 0 0 0-9.1 8.8v9.1H26a9 9 0 0 1-2.8-.3z"></path></svg>