<svg xmlns="http://www.w3.org/2000/svg" viewBox="0 0 70 70"><path d="m34.9 70-.6-.4L4 52.8c-.4-.2-.7-.6-.6-1.1V18c0-.4.2-.8.6-1L34.4.2a1 1 0 0 1 1.1 0L66 17.1c.4.2.6.6.6 1v33.7c0 .5-.2.9-.6 1.1L35.7 69.6l-.6.4h-.2zm-.4-54.8-17 9.4c-.4.2-.6.5-.5.9v18.8c0 .4.2.8.6.9l17 9.4c.3.2.7.2 1.1 0l17-9.4c.4-.2.6-.5.6-1V25.5a1 1 0 0 0-.5-.9l-17.1-9.4-.5-.2-.7.2zm.1 33.2-11.4-6.3c-.3-.1-.5-.5-.5-.9V28.6c0-.3.2-.7.5-.8l11.4-6.3c.3-.2.6-.2.9 0l11.4 6.3c.3.1.5.5.5.8v12.7c0 .3-.2.6-.4.7l-11.5 6.4-.4.1-.5-.1z"></path></svg>