<svg xmlns="http://www.w3.org/2000/svg" viewBox="0 0 70 70"><path d="m47.6 69.9-4.3-.8c-4.9-1.3-9.1-4.3-11.9-8.5s-4.1-9.2-3.4-14.2c.2-2.2.8-4.3 1.7-6.3a26.9 26.9 0 0 0 38.1.2l.2-.2c.2.7.6 1.3.7 1.9a21.3 21.3 0 0 1-18.1 28l-.3.1-2.7-.2zm-27.7 0-.3-.1A20.8 20.8 0 0 1 1 54.6a23 23 0 0 1-.9-4.4v-2.6l.8-4.4a19.7 19.7 0 0 1 10.5-12.9 21 21 0 0 1 16.3-1.4l2.2.8a26.9 26.9 0 0 0-.2 38.1l.2.2a15 15 0 0 1-4.8 1.5c-.9.1-1.9.2-2.8.5l-2.4-.1zm29-27.7c-3 0-6.1-.7-8.7-2a27 27 0 0 0 .2-38.1l-.2-.2.5-.2A23 23 0 0 1 48.9.1h.1c6.1 0 11.8 2.7 15.8 7.2l.2.3a21 21 0 0 1 .1 26.9l-.1.1c-4 4.8-9.8 7.6-16 7.6h-.1zM.5 25.2 0 22.4v-2.6l.8-4.4a21 21 0 0 1 41 8.2c-.2 2.2-.8 4.3-1.7 6.3a26.7 26.7 0 0 0-37.9-.1l-.3.2a29 29 0 0 1-1.4-4.8z"></path></svg>